<svg width="140" height="42" viewBox="0 0 140 42" fill="none" xmlns="http://www.w3.org/2000/svg">
<rect x="0.473647" y="0.695815" width="138.298" height="40.0527" rx="4.52635" fill="black"/>
<path d="M53.8318 28.0983H49.4263L48.3569 31.0308H46.4209L50.7287 20.0751H52.557L56.9624 31.0308H54.9363L53.8318 28.0983ZM49.9873 26.5996H53.2682L52.0936 23.4622C51.9333 23.0301 51.773 22.5505 51.6178 22.0259C51.475 22.4905 51.3197 22.9626 51.1544 23.4472L49.9873 26.5996Z" fill="white"/>
<path d="M57.7413 24.8687C57.7413 24.2642 57.7212 23.5981 57.6812 22.8704H59.4343C59.5002 23.2129 59.5453 23.5591 59.5696 23.907C59.8763 23.5403 60.259 23.2442 60.6913 23.039C61.1236 22.8338 61.5953 22.7243 62.0741 22.718C62.6354 22.7092 63.1867 22.8675 63.6573 23.1727C64.128 23.4779 64.4967 23.9162 64.7163 24.4316C65.0244 25.14 65.1707 25.9079 65.1446 26.6796C65.1637 27.5211 64.9925 28.3561 64.6437 29.1226C64.352 29.7587 63.8756 30.293 63.2762 30.6563C62.6596 31.0117 61.9572 31.1922 61.2451 31.1783C60.6847 31.178 60.1284 31.0834 59.5996 30.8986V34.2782L57.7262 34.4381L57.7413 24.8687ZM62.6651 29.0327C63.0458 28.5331 63.2387 27.7837 63.2387 26.7846C63.2387 25.8737 63.0801 25.2076 62.7628 24.7863C62.6195 24.5905 62.4307 24.4323 62.2126 24.3252C61.9944 24.2182 61.7536 24.1655 61.5106 24.1718C61.1606 24.1671 60.8154 24.2532 60.5088 24.4216C60.183 24.6056 59.8867 24.8371 59.6297 25.1085V29.4798C59.8372 29.5774 60.0559 29.6495 60.2808 29.6946C60.5228 29.7468 60.7696 29.7736 61.0172 29.7745C61.3316 29.7933 61.6458 29.7356 61.9329 29.6064C62.22 29.4771 62.4713 29.2802 62.6651 29.0327Z" fill="white"/>
<path d="M66.2842 24.8687C66.2842 24.2642 66.2642 23.5981 66.2241 22.8704H67.9773C68.0452 23.2126 68.0912 23.5589 68.115 23.907C68.8447 23.1143 69.6795 22.718 70.6195 22.718C71.1809 22.7092 71.7321 22.8675 72.2028 23.1727C72.6735 23.4779 73.0422 23.9162 73.2618 24.4316C73.5699 25.14 73.7162 25.9079 73.6901 26.6796C73.7131 27.5202 73.5461 28.3551 73.2017 29.1226C72.9093 29.7591 72.432 30.2933 71.8317 30.6563C71.2152 31.0121 70.5127 31.1926 69.8006 31.1783C69.2402 31.178 68.6839 31.0834 68.1551 30.8986V34.2782L66.2817 34.4381L66.2842 24.8687ZM71.2156 29.0327C71.5963 28.5214 71.7866 27.7721 71.7866 26.7846C71.7866 25.8737 71.6289 25.2076 71.3133 24.7863C71.1699 24.5905 70.9811 24.4323 70.763 24.3252C70.5449 24.2182 70.304 24.1655 70.061 24.1718C69.7111 24.1676 69.366 24.2536 69.0592 24.4216C68.7335 24.6056 68.4372 24.8371 68.1801 25.1085V29.4798C68.388 29.5766 68.6065 29.6487 68.8313 29.6946C69.0733 29.7468 69.3201 29.7736 69.5676 29.7745C69.882 29.7929 70.1961 29.735 70.4831 29.6058C70.7701 29.4766 71.0215 29.2799 71.2156 29.0327Z" fill="white"/>
<path d="M77.134 30.5138C76.3337 30.076 75.6836 29.4085 75.2681 28.5979C74.814 27.6819 74.5905 26.6694 74.617 25.6479C74.5845 24.555 74.8438 23.4731 75.3683 22.513C75.842 21.6799 76.5534 21.006 77.412 20.5772C78.3144 20.1374 79.308 19.9158 80.3123 19.9302C80.9213 19.9276 81.5284 19.998 82.1205 20.1401C82.6743 20.2701 83.2119 20.4611 83.7234 20.7096L83.2375 22.1459C82.3516 21.7001 81.3769 21.4578 80.3849 21.4365C79.6846 21.4248 78.9936 21.5971 78.3813 21.936C77.8002 22.2687 77.3333 22.7684 77.0414 23.3698C76.7056 24.0832 76.5426 24.8652 76.5655 25.6529C76.553 26.3626 76.6771 27.0681 76.9312 27.7311C77.1618 28.318 77.5674 28.8202 78.0932 29.1699C78.6923 29.5438 79.3907 29.7284 80.0969 29.6995C80.4628 29.6986 80.828 29.6677 81.1888 29.607C81.538 29.5517 81.881 29.463 82.2132 29.3423V27.1141H79.6736V25.6629H84.034V30.2815C83.4013 30.5755 82.7388 30.8008 82.0579 30.9534C81.3827 31.1085 80.6921 31.1873 79.9992 31.1882C79.002 31.2121 78.0153 30.9798 77.134 30.5138Z" fill="white"/>
<path d="M90.6883 31.0307C90.6175 30.6739 90.574 30.3124 90.5581 29.9491C90.2452 30.3121 89.8629 30.6093 89.4336 30.8233C88.9488 31.0682 88.4116 31.1917 87.8683 31.183C87.4237 31.1886 86.9836 31.0938 86.5809 30.9058C86.1979 30.7266 85.8777 30.4368 85.6618 30.074C85.4225 29.6627 85.3036 29.1928 85.3186 28.7176C85.3046 28.3572 85.3749 27.9984 85.524 27.6698C85.6732 27.3411 85.8969 27.0516 86.1777 26.8242C86.7487 26.3513 87.7013 26.1156 89.0354 26.1173C89.5323 26.1171 90.0286 26.1521 90.5205 26.2222V26.0624C90.5205 25.343 90.3669 24.8351 90.0597 24.5386C89.6924 24.2234 89.2158 24.0647 88.7323 24.0965C88.2993 24.1018 87.8686 24.1605 87.45 24.2714C87.0353 24.3711 86.6311 24.5099 86.2428 24.686L85.9473 23.3272C86.372 23.1464 86.8132 23.0067 87.2647 22.91C87.8325 22.782 88.4131 22.7183 88.9953 22.7202C89.6121 22.7034 90.2259 22.813 90.7985 23.0424C91.3022 23.2645 91.7123 23.655 91.9581 24.1465C92.2655 24.8046 92.409 25.5269 92.3764 26.2522V29.4995C92.3764 29.8325 92.3964 30.3437 92.4365 31.0332L90.6883 31.0307ZM89.5663 29.5319C89.9273 29.3646 90.2516 29.1278 90.5205 28.835V27.3363C90.1048 27.2873 89.6868 27.2598 89.2683 27.2538C88.4952 27.2538 87.9601 27.3787 87.6629 27.6285C87.5179 27.7507 87.4027 27.9041 87.3259 28.0772C87.2491 28.2503 87.2127 28.4385 87.2196 28.6277C87.206 28.7911 87.2279 28.9556 87.2836 29.1099C87.3393 29.2641 87.4277 29.4047 87.5427 29.5219C87.7868 29.7273 88.1004 29.8318 88.4192 29.8142C88.8181 29.8082 89.2104 29.7116 89.5663 29.5319Z" fill="white"/>
<path d="M93.8242 29.0724V19.4305L95.6876 19.2806V28.7401C95.6611 29.0027 95.7237 29.2666 95.8654 29.4895C95.937 29.5663 96.0252 29.6257 96.1232 29.6634C96.2213 29.701 96.3267 29.7159 96.4314 29.7068C96.6013 29.6995 96.7696 29.6709 96.9323 29.6219L97.1527 30.9608C96.943 31.0397 96.7256 31.0966 96.5041 31.1306C96.265 31.172 96.0229 31.1937 95.7802 31.1956C94.4762 31.1872 93.8242 30.4795 93.8242 29.0724Z" fill="white"/>
<path d="M98.4854 29.0724V19.4305L100.351 19.2806V28.7401C100.325 29.0027 100.387 29.2666 100.529 29.4895C100.601 29.5663 100.689 29.6257 100.787 29.6634C100.885 29.701 100.99 29.7159 101.095 29.7068C101.265 29.6995 101.433 29.6709 101.596 29.6219L101.814 30.9608C101.605 31.0397 101.388 31.0967 101.168 31.1306C100.928 31.1721 100.685 31.1938 100.441 31.1956C99.139 31.1872 98.487 30.4795 98.4854 29.0724Z" fill="white"/>
<path d="M109.477 27.189H104.125C104.21 28.8992 105.026 29.7543 106.574 29.7543C106.971 29.7523 107.367 29.7054 107.754 29.6145C108.149 29.5228 108.535 29.3974 108.908 29.2398L109.319 30.5187C108.355 30.9719 107.299 31.1992 106.234 31.1831C105.47 31.2051 104.713 31.0332 104.035 30.6836C103.447 30.3666 102.975 29.8715 102.687 29.2697C102.369 28.5726 102.215 27.8122 102.236 27.0466C102.216 26.2444 102.379 25.448 102.715 24.7186C103.001 24.0996 103.463 23.5783 104.045 23.2199C104.64 22.8699 105.322 22.6918 106.013 22.7053C106.699 22.6811 107.376 22.8706 107.949 23.2473C108.466 23.6052 108.867 24.1063 109.101 24.6886C109.359 25.323 109.487 26.0025 109.477 26.6869V27.189ZM107.651 26.0025C107.655 25.4722 107.478 24.9563 107.15 24.5388C107.003 24.3746 106.822 24.2447 106.619 24.1583C106.416 24.072 106.196 24.0313 105.976 24.0392C105.754 24.0346 105.533 24.0767 105.329 24.1628C105.124 24.2489 104.94 24.377 104.788 24.5388C104.435 24.9491 104.219 25.459 104.17 25.9975L107.651 26.0025Z" fill="white"/>
<path d="M110.895 24.9209C110.895 24.4738 110.872 23.7893 110.832 22.8726H112.585C112.615 23.0999 112.643 23.3722 112.673 23.6844C112.703 23.9967 112.718 24.2564 112.728 24.4538C112.917 24.1354 113.131 23.833 113.369 23.5495C113.576 23.3073 113.825 23.105 114.105 22.9526C114.4 22.7941 114.73 22.7141 115.065 22.7202C115.318 22.7141 115.571 22.7452 115.816 22.8127L115.581 24.4313C115.287 24.3466 114.979 24.3251 114.677 24.3682C114.375 24.4112 114.085 24.5179 113.827 24.6811C113.413 24.9884 113.052 25.3613 112.758 25.7852V31.0307H110.895V24.9209Z" fill="white"/>
<path d="M116.858 34.3706C116.63 34.3337 116.405 34.2794 116.185 34.2082L116.525 32.8469C116.683 32.8892 116.842 32.9233 117.004 32.9493C117.184 32.9812 117.366 32.9979 117.55 32.9992C118.384 32.9992 119.005 32.4672 119.413 31.4031L119.536 31.1008L116.518 22.8728H118.521L120.054 27.4714C120.25 28.0629 120.409 28.6661 120.53 29.2774C120.673 28.6879 120.838 28.0984 121.031 27.5089L122.559 22.8728H124.444L121.439 31.1383C121.212 31.8041 120.903 32.4392 120.52 33.0292C120.227 33.4748 119.828 33.8406 119.358 34.0933C118.854 34.3387 118.298 34.4587 117.737 34.443C117.443 34.4441 117.149 34.4199 116.858 34.3706Z" fill="white"/>
<path d="M46.4209 9.64417H49.7519L49.6592 10.4485H47.3927V12.0047H49.529V12.754H47.3927V14.4776H49.7795L49.6968 15.2944H46.4209V9.64417Z" fill="white"/>
<path d="M52.0539 12.4118L50.3007 9.64417H51.4127L52.6049 11.6774L53.8571 9.64417H54.9366L53.1834 12.3769L55.0793 15.2944H53.9523L52.6024 13.0713L51.2274 15.2944H50.1479L52.0539 12.4118Z" fill="white"/>
<path d="M55.7979 9.64417H57.3256C58.0419 9.64417 58.5912 9.78988 58.9736 10.0813C59.1638 10.2305 59.315 10.4234 59.4144 10.6435C59.5138 10.8635 59.5585 11.1043 59.5446 11.3452C59.5552 11.6894 59.4684 12.0296 59.2941 12.3269C59.1241 12.6064 58.8761 12.8303 58.5804 12.9714C58.2518 13.1263 57.8918 13.2032 57.5285 13.1962C57.2762 13.1926 57.0248 13.1667 56.7771 13.1187V15.2944H55.7979V9.64417ZM58.2523 12.167C58.3591 12.0647 58.4424 11.9405 58.4965 11.8029C58.5505 11.6653 58.574 11.5177 58.5653 11.3702C58.5781 11.2289 58.5557 11.0865 58.5003 10.9559C58.4448 10.8252 58.3579 10.7101 58.2473 10.6208C57.9654 10.4496 57.6374 10.3694 57.3081 10.391H56.7771V12.3893C56.9632 12.4228 57.1516 12.442 57.3406 12.4468C57.669 12.4714 57.9946 12.3715 58.2523 12.167Z" fill="white"/>
<path d="M60.5117 9.64417H61.4885V14.4601H63.8327L63.7501 15.2944H60.5117V9.64417Z" fill="white"/>
<path d="M65.3203 15.0168C64.9098 14.7865 64.5782 14.4383 64.3685 14.0177C64.1407 13.5514 64.0282 13.0375 64.0404 12.5189C64.0285 11.9771 64.1488 11.4404 64.3911 10.9553C64.6132 10.5179 64.9623 10.1576 65.3929 9.92114C65.8749 9.66934 66.4144 9.5471 66.9582 9.56644C67.4724 9.55267 67.9812 9.67414 68.4334 9.91864C68.8414 10.1498 69.1703 10.4979 69.3776 10.9178C69.6009 11.3792 69.7116 11.8868 69.7007 12.399C69.7142 12.947 69.593 13.4898 69.3475 13.9802C69.1233 14.416 68.7747 14.7758 68.3457 15.0143C67.8721 15.2656 67.3417 15.3912 66.8054 15.379C66.2869 15.3921 65.7742 15.2671 65.3203 15.0168ZM67.8548 14.3249C68.1309 14.1424 68.3456 13.8813 68.4709 13.5755C68.6115 13.2255 68.6804 12.851 68.6738 12.474C68.6801 12.1039 68.619 11.7357 68.4935 11.3874C68.3811 11.0857 68.1804 10.8246 67.9174 10.638C67.6125 10.4519 67.2619 10.3534 66.9044 10.3534C66.5468 10.3534 66.1963 10.4519 65.8913 10.638C65.6144 10.8296 65.3988 11.0967 65.2702 11.4074C65.1277 11.743 65.0569 12.1046 65.0623 12.469C65.0563 12.8444 65.1226 13.2175 65.2576 13.5681C65.3776 13.8887 65.597 14.1629 65.8839 14.3507C66.1708 14.5384 66.5103 14.63 66.853 14.6122C67.2086 14.6209 67.5582 14.5206 67.8548 14.3249Z" fill="white"/>
<path d="M70.79 9.64405H72.5632C73.0827 9.60737 73.5998 9.74353 74.0334 10.0312C74.1998 10.1615 74.3322 10.3299 74.4194 10.5221C74.5066 10.7143 74.546 10.9246 74.5343 11.1353C74.5402 11.4092 74.4782 11.6803 74.354 11.9246C74.2453 12.1388 74.0935 12.3285 73.9082 12.4816C73.7424 12.6151 73.5564 12.7213 73.3572 12.7964L75.1103 15.2943H73.9708L72.4956 13.0462H71.7768V15.2943H70.79V9.64405ZM72.3253 12.3168C72.5428 12.3215 72.7583 12.2744 72.9539 12.1794C73.1301 12.095 73.2786 11.9625 73.3822 11.7972C73.4856 11.6208 73.5384 11.4195 73.535 11.2152C73.5451 11.0973 73.5256 10.9788 73.4784 10.8702C73.4312 10.7616 73.3577 10.6665 73.2645 10.5932C73.0297 10.4466 72.7545 10.3776 72.4781 10.3959H71.7693V12.3268L72.3253 12.3168Z" fill="white"/>
<path d="M75.874 9.64417H79.2125L79.1174 10.4485H76.8633V12.0047H78.9796V12.754H76.8433V14.4776H79.2301L79.1574 15.2944H75.874V9.64417Z" fill="white"/>
<path d="M82.8442 9.64417H83.821V15.2944H82.8442V9.64417Z" fill="white"/>
<path d="M86.4084 10.4585H84.6553L84.7404 9.64417H89.1484L89.0582 10.4585H87.3877V15.2944H86.4084V10.4585Z" fill="white"/>
<path d="M93.3936 15.0169C92.9838 14.7863 92.6531 14.4382 92.4444 14.0177C92.2145 13.5521 92.101 13.0378 92.1138 12.519C92.1018 11.9771 92.2221 11.4405 92.4644 10.9553C92.6871 10.5184 93.0361 10.1582 93.4662 9.92117C93.9445 9.66813 94.4802 9.54251 95.0215 9.55647C95.5417 9.5425 96.0562 9.66755 96.5117 9.91867C96.9203 10.1491 97.2494 10.4974 97.4559 10.9178C97.6801 11.379 97.7917 11.8866 97.7815 12.3991C97.7954 12.9473 97.6732 13.4905 97.4258 13.9802C97.2023 14.4166 96.8536 14.7766 96.424 15.0144C95.9507 15.2663 95.4201 15.3919 94.8837 15.379C94.3635 15.393 93.849 15.268 93.3936 15.0169ZM95.9306 14.3249C96.2054 14.1416 96.4191 13.8807 96.5442 13.5756C96.6848 13.2255 96.7537 12.851 96.7471 12.474C96.7534 12.1039 96.6923 11.7358 96.5668 11.3874C96.4553 11.0859 96.2555 10.8248 95.9932 10.6381C95.6879 10.4517 95.3369 10.3531 94.9789 10.3531C94.621 10.3531 94.2699 10.4517 93.9646 10.6381C93.6877 10.8296 93.4721 11.0968 93.3435 11.4074C93.2022 11.7434 93.1314 12.1047 93.1356 12.469C93.1296 12.8445 93.1959 13.2176 93.3309 13.5681C93.4505 13.8762 93.6587 14.1422 93.9295 14.3324C94.226 14.5276 94.5763 14.6254 94.9313 14.6122C95.2859 14.6195 95.6343 14.5193 95.9306 14.3249Z" fill="white"/>
<path d="M98.8657 9.64417H99.9877L102.79 14.023C102.765 13.6058 102.755 13.2236 102.755 12.8714V9.64417H103.662V15.2944H102.575L99.7298 10.8456C99.7573 11.3452 99.7724 11.7973 99.7724 12.1895V15.2944H98.8657V9.64417Z" fill="white"/>
<path fill-rule="evenodd" clip-rule="evenodd" d="M32.646 9.67407H22.2497C17.3484 9.67407 15.5552 11.4626 15.5552 16.3509V26.7271C15.5552 31.6155 17.3484 33.404 22.2497 33.404H32.646C37.5473 33.404 39.3431 31.6155 39.3431 26.7271V16.3509C39.3481 11.4626 37.5548 9.67407 32.646 9.67407Z" fill="#C8102E"/>
<path d="M20.2667 21.5388H20.8978V24.6437H20.2667V23.3823H18.8416V24.6437H18.2104V21.5388H18.8416V22.7878H20.2667V21.5388ZM23.8231 23.3148C23.8231 23.8144 23.5726 24.0892 23.1168 24.0892C22.661 24.0892 22.4055 23.8144 22.4055 23.2873V21.5388H21.7744V23.3123C21.7744 24.1841 22.2603 24.6837 23.1068 24.6837C23.9533 24.6837 24.4542 24.1841 24.4542 23.2848V21.5388H23.8231V23.3148ZM31.1162 23.672L30.4099 21.5388H29.8915L29.1902 23.6745L28.5015 21.5388H27.8303L28.9147 24.6437H29.4382L30.142 22.6054L30.8482 24.6437H31.3767L32.4611 21.5388H31.805L31.1162 23.672ZM33.5907 23.3048H34.7403V22.7428H33.5907V22.1083H35.2587V21.5388H32.9696V24.6362H35.3188V24.0767H33.5907V23.3048ZM36.0702 24.6362H36.6938V21.5388H36.0702V24.6362ZM25.7015 23.9942L25.4184 24.6387H24.7748L26.1347 21.5388H26.6907L28.0557 24.6387H27.4045L27.1365 23.9967L25.7015 23.9942ZM25.9369 23.4347H26.8861L26.4102 22.3257L25.9369 23.4347Z" fill="white"/>
<path d="M27.4518 17.5898C26.4019 17.5891 25.3951 17.1728 24.6527 16.4324C23.9102 15.6919 23.4929 14.6878 23.4922 13.6406H24.0507C24.0507 14.5403 24.409 15.4031 25.0469 16.0392C25.6847 16.6754 26.5498 17.0328 27.4518 17.0328C28.3539 17.0328 29.219 16.6754 29.8568 16.0392C30.4946 15.4031 30.853 14.5403 30.853 13.6406H31.4115C31.4108 14.6878 30.9934 15.6919 30.251 16.4324C29.5085 17.1728 28.5018 17.5891 27.4518 17.5898Z" fill="white"/>
<rect x="0.473647" y="0.695815" width="138.298" height="40.0527" rx="4.52635" stroke="white" stroke-width="0.947293"/>
</svg>
