<svg width="140" height="41" viewBox="0 0 140 41" fill="none" xmlns="http://www.w3.org/2000/svg">
<rect x="0.473647" y="0.473647" width="139.053" height="40.0527" rx="4.52635" fill="black"/>
<path d="M31.7461 20.6681C31.7579 19.7612 32.0005 18.872 32.4513 18.0832C32.9021 17.2944 33.5466 16.6317 34.3246 16.1567C33.8304 15.4557 33.1783 14.8788 32.4202 14.4719C31.6621 14.0649 30.8189 13.8391 29.9576 13.8123C28.1202 13.6208 26.3389 14.9041 25.4026 14.9041C24.4482 14.9041 23.0066 13.8313 21.4543 13.8631C20.4502 13.8953 19.4716 14.1852 18.6139 14.7046C17.7562 15.2241 17.0486 15.9553 16.5601 16.827C14.4439 20.4651 16.0224 25.812 18.0495 28.7529C19.0637 30.1929 20.249 31.8014 21.7999 31.7444C23.3176 31.6819 23.8844 30.7834 25.7164 30.7834C27.5314 30.7834 28.0632 31.7444 29.6456 31.7081C31.2742 31.6819 32.3003 30.2617 33.2789 28.808C34.0076 27.7819 34.5683 26.6479 34.9403 25.4479C33.9942 25.0505 33.1867 24.3854 32.6187 23.5354C32.0507 22.6854 31.7472 21.6882 31.7461 20.6681Z" fill="white"/>
<path d="M28.7574 11.8782C29.6454 10.8197 30.0828 9.4592 29.9769 8.08557C28.6203 8.22706 27.3672 8.8709 26.4672 9.88879C26.0272 10.3861 25.6902 10.9646 25.4755 11.5913C25.2607 12.2179 25.1725 12.8805 25.2158 13.5411C25.8943 13.548 26.5656 13.4019 27.1791 13.1139C27.7926 12.8259 28.3322 12.4034 28.7574 11.8782Z" fill="white"/>
<path d="M50.9306 28.0987H45.7514L44.5077 31.7456H42.314L47.2196 18.2531H49.4988L54.4045 31.7456H52.1733L50.9306 28.0987ZM46.2879 26.4159H50.3932L48.3694 20.4972H48.3128L46.2879 26.4159Z" fill="white"/>
<path d="M64.9995 26.8277C64.9995 29.8846 63.3519 31.8487 60.8654 31.8487C60.2355 31.8814 59.6091 31.7373 59.0578 31.4329C58.5066 31.1285 58.0528 30.6762 57.7485 30.1276H57.7014V35H55.668V21.9086H57.6363V23.5447H57.6736C57.992 22.9988 58.4535 22.5488 59.0089 22.2425C59.5643 21.9363 60.193 21.7853 60.828 21.8056C63.3422 21.8057 64.9995 23.7792 64.9995 26.8277ZM62.9095 26.8277C62.9095 24.8361 61.873 23.5267 60.2916 23.5267C58.7379 23.5267 57.6929 24.8636 57.6929 26.8277C57.6929 28.8098 58.7379 30.1372 60.2916 30.1372C61.873 30.1372 62.9095 28.8373 62.9095 26.8277Z" fill="white"/>
<path d="M75.9029 26.8277C75.9029 29.8846 74.2552 31.8486 71.7687 31.8486C71.1388 31.8814 70.5124 31.7373 69.9612 31.4329C69.4099 31.1285 68.9561 30.6762 68.6518 30.1276H68.6047V35H66.5713V21.9086H68.5395V23.5447H68.5769C68.8953 22.9988 69.3567 22.5488 69.9122 22.2425C70.4676 21.9363 71.0963 21.7853 71.7313 21.8056C74.2456 21.8056 75.9029 23.7792 75.9029 26.8277ZM73.8128 26.8277C73.8128 24.8361 72.7763 23.5267 71.1949 23.5267C69.6412 23.5267 68.5962 24.8636 68.5962 26.8277C68.5962 28.8098 69.6412 30.1371 71.1949 30.1371C72.7763 30.1371 73.8128 28.8373 73.8128 26.8277H73.8128Z" fill="white"/>
<path d="M83.1089 27.9864C83.2596 29.3244 84.5685 30.2029 86.3572 30.2029C88.0712 30.2029 89.3043 29.3243 89.3043 28.1179C89.3043 27.0706 88.5606 26.4435 86.7996 26.0138L85.0387 25.5926C82.5436 24.9941 81.3853 23.8354 81.3853 21.9552C81.3853 19.6272 83.4284 18.0282 86.3295 18.0282C89.2006 18.0282 91.1689 19.6272 91.2351 21.9552H89.1824C89.0596 20.6087 87.9386 19.7959 86.3006 19.7959C84.6625 19.7959 83.5416 20.6183 83.5416 21.8152C83.5416 22.7691 84.2575 23.3304 86.0089 23.7601L87.5059 24.1251C90.2937 24.7797 91.452 25.8918 91.452 27.8653C91.452 30.3896 89.4271 31.9706 86.2065 31.9706C83.1933 31.9706 81.1588 30.4267 81.0273 27.9863L83.1089 27.9864Z" fill="white"/>
<path d="M95.8408 19.5806V21.9086H97.7247V23.5076H95.8408V28.9307C95.8408 29.7732 96.218 30.1658 97.0462 30.1658C97.2698 30.1619 97.4931 30.1463 97.7151 30.1191V31.7085C97.3427 31.7776 96.9643 31.8089 96.5856 31.8019C94.58 31.8019 93.7978 31.0539 93.7978 29.1461V23.5076H92.3574V21.9086H93.7978V19.5806H95.8408Z" fill="white"/>
<path d="M98.8154 26.8277C98.8154 23.7325 100.651 21.7876 103.514 21.7876C106.386 21.7876 108.213 23.7325 108.213 26.8277C108.213 29.9313 106.396 31.8677 103.514 31.8677C100.633 31.8677 98.8154 29.9313 98.8154 26.8277ZM106.141 26.8277C106.141 24.7045 105.161 23.4514 103.514 23.4514C101.866 23.4514 100.887 24.714 100.887 26.8277C100.887 28.9593 101.866 30.2029 103.514 30.2029C105.161 30.2029 106.141 28.9593 106.141 26.8277H106.141Z" fill="white"/>
<path d="M109.89 21.9086H111.829V23.5829H111.876C112.007 23.06 112.316 22.5979 112.75 22.2742C113.184 21.9506 113.717 21.7851 114.259 21.8057C114.493 21.8049 114.727 21.8301 114.956 21.881V23.7697C114.66 23.6799 114.351 23.6387 114.042 23.6477C113.747 23.6358 113.452 23.6875 113.179 23.7993C112.905 23.9111 112.66 24.0803 112.458 24.2953C112.257 24.5103 112.105 24.766 112.013 25.0449C111.92 25.3238 111.89 25.6192 111.923 25.9109V31.7457H109.89L109.89 21.9086Z" fill="white"/>
<path d="M124.331 28.8564C124.058 30.6422 122.306 31.8677 120.066 31.8677C117.184 31.8677 115.395 29.9504 115.395 26.8744C115.395 23.7888 117.193 21.7876 119.98 21.7876C122.721 21.7876 124.444 23.6572 124.444 26.6399V27.3317H117.448V27.4537C117.415 27.8157 117.461 28.1804 117.582 28.5236C117.702 28.8668 117.895 29.1806 118.147 29.4441C118.399 29.7076 118.705 29.9149 119.043 30.0521C119.382 30.1894 119.747 30.2534 120.113 30.2401C120.593 30.2848 121.075 30.1742 121.488 29.925C121.9 29.6757 122.22 29.3009 122.4 28.8564L124.331 28.8564ZM117.457 25.9205H122.41C122.428 25.5949 122.379 25.2692 122.264 24.9636C122.149 24.6581 121.973 24.3794 121.744 24.1449C121.516 23.9105 121.242 23.7254 120.938 23.6013C120.635 23.4772 120.308 23.4168 119.98 23.4238C119.649 23.4218 119.321 23.485 119.014 23.6096C118.708 23.7343 118.429 23.918 118.195 24.1501C117.96 24.3823 117.774 24.6582 117.648 24.9621C117.521 25.2659 117.456 25.5916 117.457 25.9205V25.9205Z" fill="white"/>
<path d="M46.0336 8.0972C46.4599 8.06682 46.8876 8.13078 47.286 8.28445C47.6845 8.43812 48.0435 8.67768 48.3374 8.98585C48.6313 9.29401 48.8527 9.66311 48.9855 10.0665C49.1183 10.4699 49.1593 10.8975 49.1056 11.3186C49.1056 13.3898 47.9783 14.5804 46.0336 14.5804H43.6753V8.0972H46.0336ZM44.6893 13.6635H45.9203C46.2249 13.6816 46.5298 13.632 46.8126 13.5183C47.0955 13.4047 47.3493 13.2298 47.5556 13.0064C47.7618 12.7831 47.9153 12.5169 48.0049 12.2272C48.0945 11.9375 48.1179 11.6316 48.0734 11.3318C48.1146 11.0332 48.0889 10.7292 47.9979 10.4416C47.907 10.1541 47.7531 9.89005 47.5473 9.66847C47.3416 9.4469 47.089 9.27326 46.8077 9.16C46.5264 9.04675 46.2234 8.99667 45.9203 9.01338H44.6893V13.6635Z" fill="white"/>
<path d="M50.2507 12.1319C50.2198 11.8104 50.2568 11.486 50.3595 11.1795C50.4622 10.8731 50.6282 10.5913 50.847 10.3522C51.0658 10.1132 51.3324 9.92226 51.6299 9.79157C51.9273 9.66089 52.249 9.59338 52.5743 9.59338C52.8995 9.59338 53.2212 9.66089 53.5187 9.79157C53.8161 9.92226 54.0828 10.1132 54.3016 10.3522C54.5203 10.5913 54.6864 10.8731 54.7891 11.1795C54.8917 11.486 54.9288 11.8104 54.8978 12.1319C54.9294 12.4538 54.8928 12.7786 54.7904 13.0856C54.688 13.3926 54.522 13.6749 54.3032 13.9144C54.0843 14.1539 53.8175 14.3452 53.5197 14.4762C53.222 14.6072 52.8999 14.6748 52.5743 14.6748C52.2486 14.6748 51.9266 14.6072 51.6288 14.4762C51.3311 14.3452 51.0642 14.1539 50.8454 13.9144C50.6265 13.6749 50.4606 13.3926 50.3582 13.0856C50.2558 12.7786 50.2192 12.4538 50.2507 12.1319ZM53.8976 12.1319C53.8976 11.0714 53.4179 10.4512 52.5759 10.4512C51.7307 10.4512 51.2552 11.0714 51.2552 12.1319C51.2552 13.201 51.7307 13.8164 52.5759 13.8164C53.4179 13.8164 53.8977 13.1967 53.8977 12.1319H53.8976Z" fill="white"/>
<path d="M61.0758 14.5803H60.0671L59.0488 10.9769H58.9718L57.9578 14.5803H56.9587L55.6006 9.68774H56.5868L57.4695 13.4211H57.5421L58.5551 9.68774H59.4879L60.5009 13.4211H60.5778L61.4562 9.68774H62.4285L61.0758 14.5803Z" fill="white"/>
<path d="M63.5703 9.68776H64.5064V10.465H64.579C64.7023 10.1858 64.9102 9.95183 65.1737 9.79558C65.4373 9.63933 65.7434 9.56862 66.0493 9.59332C66.2891 9.57542 66.5298 9.61131 66.7536 9.69834C66.9775 9.78537 67.1788 9.9213 67.3426 10.0961C67.5064 10.2708 67.6284 10.4799 67.6998 10.7079C67.7711 10.9359 67.7899 11.1769 67.7547 11.413V14.5803H66.7823V11.6555C66.7823 10.8693 66.4383 10.4783 65.7191 10.4783C65.5564 10.4707 65.3939 10.4982 65.2428 10.5589C65.0918 10.6196 64.9557 10.7119 64.844 10.8297C64.7322 10.9475 64.6474 11.0878 64.5954 11.2412C64.5434 11.3945 64.5254 11.5572 64.5427 11.7181V14.5803H63.5703L63.5703 9.68776Z" fill="white"/>
<path d="M69.3042 7.77783H70.2766V14.5803H69.3042V7.77783Z" fill="white"/>
<path d="M71.6282 12.132C71.5972 11.8105 71.6343 11.4861 71.737 11.1796C71.8397 10.8731 72.0057 10.5913 72.2245 10.3523C72.4433 10.1132 72.71 9.92226 73.0075 9.79158C73.305 9.66089 73.6267 9.59338 73.952 9.59338C74.2772 9.59338 74.5989 9.66089 74.8964 9.79158C75.1939 9.92226 75.4606 10.1132 75.6794 10.3523C75.8982 10.5913 76.0642 10.8731 76.1669 11.1796C76.2696 11.4861 76.3067 11.8105 76.2758 12.132C76.3073 12.4539 76.2706 12.7788 76.1682 13.0857C76.0658 13.3927 75.8998 13.675 75.6809 13.9145C75.4621 14.154 75.1952 14.3453 74.8974 14.4763C74.5997 14.6072 74.2776 14.6749 73.952 14.6749C73.6263 14.6749 73.3042 14.6072 73.0065 14.4763C72.7087 14.3453 72.4418 14.154 72.223 13.9145C72.0041 13.675 71.8381 13.3927 71.7357 13.0857C71.6333 12.7788 71.5966 12.4539 71.6282 12.132ZM75.2751 12.132C75.2751 11.0715 74.7953 10.4513 73.9533 10.4513C73.1081 10.4513 72.6326 11.0715 72.6326 12.132C72.6326 13.2011 73.1081 13.8165 73.9533 13.8165C74.7953 13.8165 75.2751 13.1968 75.2751 12.132H75.2751Z" fill="white"/>
<path d="M77.2993 13.1968C77.2993 12.3161 77.9597 11.8084 79.1318 11.7362L80.4664 11.6598V11.2375C80.4664 10.7208 80.1224 10.429 79.4577 10.429C78.9149 10.429 78.5388 10.6269 78.4309 10.9728H77.4895C77.5889 10.1324 78.3849 9.59338 79.5026 9.59338C80.7379 9.59338 81.4345 10.204 81.4345 11.2375V14.5804H80.4985V13.8928H80.4216C80.2654 14.1395 80.0461 14.3405 79.7861 14.4755C79.5261 14.6104 79.2347 14.6745 78.9416 14.661C78.7348 14.6824 78.5258 14.6605 78.328 14.5967C78.1302 14.5329 77.9481 14.4287 77.7933 14.2907C77.6386 14.1528 77.5147 13.9841 77.4296 13.7957C77.3445 13.6073 77.3001 13.4033 77.2993 13.1968ZM80.4664 12.7787V12.3697L79.2633 12.4461C78.5848 12.4911 78.277 12.7203 78.277 13.1517C78.277 13.592 78.6617 13.8482 79.1906 13.8482C79.3456 13.8638 79.5022 13.8483 79.651 13.8026C79.7998 13.7568 79.9378 13.6818 80.0569 13.582C80.1759 13.4823 80.2735 13.3597 80.3439 13.2217C80.4142 13.0837 80.4559 12.933 80.4664 12.7787Z" fill="white"/>
<path d="M82.7124 12.1319C82.7124 10.586 83.5127 9.6066 84.7576 9.6066C85.0655 9.59251 85.3711 9.66574 85.6387 9.81774C85.9062 9.96974 86.1247 10.1942 86.2685 10.465H86.3412V7.77783H87.3135V14.5803H86.3818V13.8073H86.3048C86.1499 14.0762 85.9238 14.2979 85.6511 14.4484C85.3784 14.5989 85.0694 14.6724 84.7576 14.661C83.5042 14.661 82.7124 13.6816 82.7124 12.1319ZM83.7169 12.1319C83.7169 13.1697 84.2095 13.7941 85.0333 13.7941C85.8529 13.7941 86.3594 13.1607 86.3594 12.1362C86.3594 11.1165 85.8475 10.474 85.0333 10.474C84.2148 10.474 83.7168 11.1027 83.7168 12.1319H83.7169Z" fill="white"/>
<path d="M91.3367 12.1319C91.3057 11.8104 91.3427 11.486 91.4454 11.1795C91.5481 10.8731 91.7141 10.5913 91.9329 10.3522C92.1517 10.1132 92.4184 9.92226 92.7158 9.79157C93.0133 9.66089 93.3349 9.59338 93.6602 9.59338C93.9855 9.59338 94.3072 9.66089 94.6046 9.79157C94.9021 9.92226 95.1687 10.1132 95.3875 10.3522C95.6063 10.5913 95.7723 10.8731 95.875 11.1795C95.9777 11.486 96.0147 11.8104 95.9837 12.1319C96.0153 12.4538 95.9787 12.7786 95.8763 13.0856C95.7739 13.3926 95.6079 13.6749 95.3891 13.9144C95.1703 14.1539 94.9034 14.3452 94.6057 14.4762C94.3079 14.6072 93.9859 14.6748 93.6602 14.6748C93.3346 14.6748 93.0125 14.6072 92.7147 14.4762C92.417 14.3452 92.1501 14.1539 91.9313 13.9144C91.7125 13.6749 91.5465 13.3926 91.4441 13.0856C91.3417 12.7786 91.3051 12.4538 91.3367 12.1319ZM94.9836 12.1319C94.9836 11.0714 94.5038 10.4512 93.6618 10.4512C92.8166 10.4512 92.3411 11.0714 92.3411 12.1319C92.3411 13.201 92.8166 13.8164 93.6618 13.8164C94.5038 13.8164 94.9836 13.1967 94.9836 12.1319Z" fill="white"/>
<path d="M97.2886 9.68776H98.2246V10.465H98.2973C98.4205 10.1858 98.6284 9.95183 98.892 9.79558C99.1556 9.63933 99.4616 9.56862 99.7676 9.59332C100.007 9.57542 100.248 9.61131 100.472 9.69834C100.696 9.78537 100.897 9.9213 101.061 10.0961C101.225 10.2708 101.347 10.4799 101.418 10.7079C101.489 10.9359 101.508 11.1769 101.473 11.413V14.5803H100.501V11.6555C100.501 10.8693 100.157 10.4783 99.4374 10.4783C99.2746 10.4707 99.1122 10.4982 98.9611 10.5589C98.81 10.6196 98.674 10.7119 98.5622 10.8297C98.4505 10.9475 98.3657 11.0878 98.3137 11.2412C98.2617 11.3945 98.2437 11.5572 98.2609 11.7181V14.5803H97.2886V9.68776Z" fill="white"/>
<path d="M106.967 8.4696V9.70999H108.035V10.5233H106.967V13.0391C106.967 13.5516 107.18 13.776 107.664 13.776C107.788 13.7756 107.911 13.7682 108.035 13.7537V14.558C107.86 14.589 107.683 14.6055 107.506 14.6073C106.424 14.6073 105.994 14.2296 105.994 13.2863V10.5233H105.211V9.70995H105.994V8.4696H106.967Z" fill="white"/>
<path d="M109.363 7.77783H110.327V10.474H110.404C110.533 10.1922 110.746 9.95692 111.015 9.80008C111.284 9.64324 111.595 9.57252 111.906 9.59757C112.144 9.58468 112.383 9.62422 112.604 9.71336C112.825 9.8025 113.024 9.93905 113.186 10.1133C113.348 10.2875 113.47 10.4951 113.542 10.7212C113.614 10.9473 113.635 11.1865 113.603 11.4215V14.5803H112.629V11.6597C112.629 10.8783 112.263 10.4825 111.576 10.4825C111.409 10.4689 111.241 10.4917 111.083 10.5493C110.926 10.607 110.783 10.6981 110.665 10.8162C110.547 10.9344 110.456 11.0767 110.399 11.2333C110.342 11.3899 110.32 11.557 110.335 11.7229V14.5803H109.363L109.363 7.77783Z" fill="white"/>
<path d="M119.273 13.2593C119.141 13.7065 118.854 14.0933 118.464 14.352C118.074 14.6108 117.604 14.725 117.138 14.6748C116.813 14.6833 116.491 14.6216 116.192 14.4939C115.894 14.3662 115.628 14.1756 115.411 13.9353C115.195 13.695 115.033 13.4108 114.938 13.1024C114.844 12.7941 114.817 12.4689 114.862 12.1495C114.819 11.8291 114.845 11.5032 114.94 11.1939C115.034 10.8846 115.195 10.599 115.41 10.3567C115.626 10.1143 115.891 9.92071 116.188 9.78901C116.486 9.65732 116.808 9.59059 117.134 9.59334C118.504 9.59334 119.332 10.5234 119.332 12.0598V12.3967H115.852V12.4508C115.837 12.6304 115.86 12.8111 115.919 12.9814C115.978 13.1517 116.073 13.3078 116.196 13.4398C116.32 13.5718 116.47 13.6767 116.636 13.7477C116.803 13.8188 116.983 13.8544 117.165 13.8524C117.397 13.8802 117.633 13.8386 117.841 13.733C118.05 13.6273 118.223 13.4625 118.337 13.2593L119.273 13.2593ZM115.852 11.6826H118.341C118.353 11.5184 118.331 11.3534 118.275 11.1984C118.219 11.0433 118.131 10.9015 118.017 10.7822C117.903 10.6628 117.765 10.5685 117.612 10.5053C117.459 10.4421 117.294 10.4114 117.128 10.4151C116.96 10.413 116.793 10.4444 116.637 10.5074C116.482 10.5703 116.34 10.6636 116.221 10.7817C116.102 10.8998 116.008 11.0404 115.945 11.1951C115.882 11.3498 115.85 11.5156 115.852 11.6826H115.852Z" fill="white"/>
<rect x="0.473647" y="0.473647" width="139.053" height="40.0527" rx="4.52635" stroke="white" stroke-width="0.947293"/>
</svg>
