<svg width="16" height="16" viewBox="0 0 16 16" fill="none" xmlns="http://www.w3.org/2000/svg">
<path d="M5.93997 13.78C5.8133 13.78 5.68664 13.7333 5.58664 13.6333C5.3933 13.44 5.3933 13.12 5.58664 12.9267L9.9333 8.58001C10.2533 8.26001 10.2533 7.74001 9.9333 7.42001L5.58664 3.07335C5.3933 2.88001 5.3933 2.56001 5.58664 2.36668C5.77997 2.17335 6.09997 2.17335 6.2933 2.36668L10.64 6.71335C10.98 7.05335 11.1733 7.51335 11.1733 8.00001C11.1733 8.48668 10.9866 8.94668 10.64 9.28668L6.2933 13.6333C6.1933 13.7267 6.06663 13.78 5.93997 13.78Z" fill="white"/>
</svg>
