<svg width="140" height="41" viewBox="0 0 140 41" fill="none" xmlns="http://www.w3.org/2000/svg">
<rect x="0.473647" y="0.473647" width="138.298" height="40.0527" rx="4.52635" fill="black"/>
<path d="M73.3061 15.4371C72.4551 15.4371 71.7378 15.1382 71.1705 14.5497C70.6079 13.9777 70.2937 13.1891 70.3078 12.3841C70.3078 11.5249 70.5985 10.7975 71.1705 10.2208C71.7354 9.63232 72.4528 9.33337 73.3037 9.33337C74.1453 9.33337 74.8627 9.63232 75.4394 10.2208C76.0114 10.8163 76.302 11.5437 76.302 12.3841C76.2927 13.2456 76.002 13.973 75.4394 14.5473C74.8744 15.1405 74.1571 15.4371 73.3061 15.4371ZM47.9858 15.4371C47.1536 15.4371 46.4316 15.1429 45.8408 14.5614C45.2548 13.9824 44.957 13.2503 44.957 12.3864C44.957 11.5225 45.2548 10.7905 45.8408 10.2114C46.4198 9.62997 47.1419 9.33573 47.9858 9.33573C48.3984 9.33573 48.7993 9.41812 49.1837 9.58524C49.5611 9.74767 49.8682 9.96893 50.0956 10.2396L50.1519 10.3079L49.5166 10.934L49.451 10.8564C49.0923 10.4279 48.6117 10.2185 47.9764 10.2185C47.4091 10.2185 46.9145 10.4209 46.5066 10.8211C46.0963 11.2236 45.8877 11.7509 45.8877 12.3888C45.8877 13.0267 46.0963 13.554 46.5066 13.9565C46.9145 14.3567 47.4091 14.5591 47.9764 14.5591C48.5812 14.5591 49.09 14.3567 49.4861 13.9565C49.7206 13.7211 49.8659 13.3915 49.9175 12.9749H47.8803V12.0945H50.7919L50.8036 12.1746C50.8247 12.3229 50.8458 12.4759 50.8458 12.6171C50.8458 13.4292 50.602 14.0859 50.1191 14.5709C49.5705 15.1452 48.8532 15.4371 47.9858 15.4371ZM81.6516 15.3123H80.7538L78.004 10.894L78.0274 11.6897V15.31H77.1296V9.46049H78.154L78.1821 9.50521L80.7679 13.667L80.7444 12.8737V9.46049H81.6516V15.3123ZM66.5593 15.3123H65.6498V10.3409H64.0721V9.46049H68.1347V10.3409H66.557V15.3123H66.5593ZM63.3313 15.3123H62.4241V9.46049H63.3313V15.3123ZM58.2325 15.3123H57.3253V10.3409H55.7476V9.46049H59.8102V10.3409H58.2325V15.3123ZM55.1733 15.3029H51.6944V9.46049H55.1733V10.3409H52.604V11.9462H54.9225V12.8172H52.604V14.4226H55.1733V15.3029ZM71.8362 13.9447C72.2418 14.3519 72.7341 14.5567 73.3061 14.5567C73.8945 14.5567 74.3751 14.3567 74.7759 13.9447C75.1745 13.5445 75.3761 13.0196 75.3761 12.3864C75.3761 11.7532 75.1745 11.2259 74.7783 10.8281C74.3727 10.4209 73.8781 10.2161 73.3084 10.2161C72.72 10.2161 72.2395 10.4162 71.8409 10.8281C71.4424 11.2283 71.2408 11.7532 71.2408 12.3864C71.2408 13.0196 71.4401 13.5469 71.8362 13.9447Z" fill="white"/>
<path fill-rule="evenodd" clip-rule="evenodd" d="M70.2235 23.4829C68.0082 23.4829 66.2125 25.1706 66.2125 27.4987C66.2125 29.8055 68.0199 31.5145 70.2235 31.5145C72.4389 31.5145 74.2346 29.8149 74.2346 27.4987C74.2346 25.1706 72.4389 23.4829 70.2235 23.4829ZM70.2235 29.9232C69.0115 29.9232 67.9683 28.9157 67.9683 27.4892C67.9683 26.0416 69.0139 25.0553 70.2235 25.0553C71.4355 25.0553 72.4787 26.0416 72.4787 27.4892C72.4811 28.9251 71.4355 29.9232 70.2235 29.9232ZM61.4724 23.4829C59.257 23.4829 57.4613 25.1706 57.4613 27.4987C57.4613 29.8055 59.2688 31.5145 61.4724 31.5145C63.6877 31.5145 65.4834 29.8149 65.4834 27.4987C65.4834 25.1706 63.6854 23.4829 61.4724 23.4829ZM61.4724 29.9232C60.2604 29.9232 59.2172 28.9157 59.2172 27.4892C59.2172 26.0416 60.2627 25.0553 61.4724 25.0553C62.6844 25.0553 63.7276 26.0416 63.7276 27.4892C63.7276 28.9251 62.6844 29.9232 61.4724 29.9232ZM51.0591 24.7093V26.4088H55.1217C54.9975 27.3621 54.6834 28.066 54.2028 28.5485C53.6073 29.1464 52.6884 29.7961 51.0685 29.7961C48.5718 29.7961 46.6191 27.7717 46.6191 25.2648C46.6191 22.7579 48.5718 20.7335 51.0685 20.7335C52.4164 20.7335 53.3987 21.2678 54.1278 21.9505L55.328 20.7453C54.3153 19.7707 52.9674 19.0245 51.0779 19.0245C47.6529 19.0245 44.7788 21.8257 44.7788 25.2554C44.7788 28.6945 47.6505 31.4862 51.0779 31.4862C52.9275 31.4862 54.3153 30.8789 55.4124 29.7349C56.5306 28.6121 56.8846 27.0279 56.8846 25.7497C56.8846 25.3519 56.8542 24.9941 56.7909 24.6904H51.0568C51.0591 24.6881 51.0591 24.7093 51.0591 24.7093ZM93.6522 26.0322C93.3169 25.1306 92.3042 23.4735 90.2272 23.4735C88.1689 23.4735 86.4576 25.1 86.4576 27.4892C86.4576 29.7443 88.1502 31.505 90.4265 31.505C92.255 31.505 93.3193 30.3822 93.7577 29.7231L92.4003 28.8098C91.9502 29.4807 91.3243 29.9209 90.4358 29.9209C89.538 29.9209 88.9097 29.5113 88.4924 28.7039L93.8397 26.4794C93.8397 26.4818 93.6522 26.0322 93.6522 26.0322ZM88.1994 27.3739C88.1572 25.8227 89.3997 25.0341 90.2882 25.0341C90.9891 25.0341 91.5728 25.3801 91.7721 25.8839L88.1994 27.3739ZM83.8555 31.2649H85.6113V19.4671H83.8555V31.2649ZM80.972 24.375H80.9087C80.5125 23.9019 79.76 23.4735 78.7989 23.4735C76.8039 23.4735 74.966 25.2365 74.966 27.501C74.966 29.7561 76.7945 31.498 78.7989 31.498C79.7483 31.498 80.5125 31.0672 80.9087 30.5847H80.972V31.1614C80.972 32.6938 80.1562 33.52 78.8411 33.52C77.765 33.52 77.0969 32.7432 76.825 32.0935L75.2989 32.7338C75.7373 33.7931 76.9071 35.1042 78.8387 35.1042C80.897 35.1042 82.6411 33.8872 82.6411 30.9189V23.7136H80.9814V24.375C80.9837 24.375 80.972 24.375 80.972 24.375ZM78.9559 29.9232C77.744 29.9232 76.7312 28.9063 76.7312 27.501C76.7312 26.084 77.744 25.0576 78.9559 25.0576C80.1562 25.0576 81.0869 26.0957 81.0869 27.501C81.0986 28.9063 80.1586 29.9232 78.9559 29.9232ZM101.874 19.4671H97.6749V31.2649H99.4308V26.7972H101.876C103.819 26.7972 105.73 25.3825 105.73 23.1368C105.73 20.8912 103.826 19.4671 101.874 19.4671ZM101.925 25.1494H99.4285V21.1007H101.925C103.24 21.1007 103.983 22.1906 103.983 23.1251C103.983 24.0502 103.231 25.1494 101.925 25.1494ZM112.767 23.4617C111.492 23.4617 110.177 24.029 109.633 25.2648L111.19 25.9145C111.525 25.2648 112.139 25.0435 112.788 25.0435C113.698 25.0435 114.617 25.5896 114.638 26.5642V26.6889C114.324 26.51 113.635 26.237 112.81 26.237C111.129 26.237 109.424 27.1597 109.424 28.8898C109.424 30.474 110.803 31.4909 112.338 31.4909C113.518 31.4909 114.167 30.9566 114.572 30.3375H114.636V31.2508H116.328V26.7313C116.328 24.6269 114.772 23.4617 112.767 23.4617ZM112.547 29.9232C111.973 29.9232 111.169 29.6407 111.169 28.9157C111.169 28.0024 112.172 27.6564 113.028 27.6564C113.801 27.6564 114.167 27.8235 114.626 28.0542C114.5 29.1135 113.609 29.9138 112.547 29.9232ZM122.503 23.7136L120.487 28.831H120.424L118.335 23.7136H116.446L119.58 30.8671L117.793 34.8429H119.622L124.444 23.7136H122.503ZM106.698 31.2649H108.454V19.4671H106.698V31.2649Z" fill="white"/>
<path fill-rule="evenodd" clip-rule="evenodd" d="M15.9842 10.0583C15.7122 10.3525 15.5552 10.8021 15.5552 11.3906V32.2629C15.5552 32.8514 15.7122 33.301 15.9936 33.5834L16.0662 33.647L27.7126 21.9527V21.6914L16.0568 9.99475L15.9842 10.0583Z" fill="url(#paint0_linear_140_6208)"/>
<path fill-rule="evenodd" clip-rule="evenodd" d="M31.5876 25.8627L27.7031 21.9622V21.6892L31.5876 17.7887L31.672 17.8405L36.2668 20.4628C37.5819 21.2066 37.5819 22.4353 36.2668 23.1886L31.672 25.8109L31.5876 25.8627Z" fill="url(#paint1_linear_140_6208)"/>
<path fill-rule="evenodd" clip-rule="evenodd" d="M31.6722 25.8109L27.7034 21.8257L15.9844 33.593C16.4134 34.0543 17.1331 34.1061 17.9372 33.6565L31.6722 25.8109Z" fill="url(#paint2_linear_140_6208)"/>
<path fill-rule="evenodd" clip-rule="evenodd" d="M31.6722 17.8405L17.9372 10.0067C17.1331 9.54531 16.411 9.60887 15.9844 10.0702L27.7034 21.8257L31.6722 17.8405Z" fill="url(#paint3_linear_140_6208)"/>
<path opacity="0.2" fill-rule="evenodd" clip-rule="evenodd" d="M31.5883 25.7262L17.9469 33.5082C17.185 33.9484 16.5052 33.9178 16.0668 33.5177L15.9941 33.5906L16.0668 33.6542C16.5052 34.052 17.185 34.085 17.9469 33.6448L31.6821 25.8109L31.5883 25.7262Z" fill="black"/>
<path opacity="0.12" fill-rule="evenodd" clip-rule="evenodd" d="M36.2671 23.0521L31.5762 25.7261L31.6606 25.8109L36.2553 23.1886C36.9141 22.812 37.2376 22.3177 37.2376 21.8257C37.1977 22.2776 36.8625 22.7061 36.2671 23.0521Z" fill="black"/>
<path opacity="0.25" fill-rule="evenodd" clip-rule="evenodd" d="M17.937 10.1433L36.2668 20.5994C36.8622 20.936 37.1975 21.3762 37.249 21.8258C37.249 21.3339 36.9255 20.8395 36.2668 20.4629L17.937 10.0068C16.6218 9.25115 15.5552 9.88201 15.5552 11.3909V11.5274C15.5552 10.0162 16.6218 9.3971 17.937 10.1433Z" fill="white"/>
<rect x="0.473647" y="0.473647" width="138.298" height="40.0527" rx="4.52635" stroke="white" stroke-width="0.947293"/>
<defs>
<linearGradient id="paint0_linear_140_6208" x1="26.6679" y1="11.1654" x2="8.00236" y2="16.1185" gradientUnits="userSpaceOnUse">
<stop stop-color="#00A0FF"/>
<stop offset="0.00657" stop-color="#00A1FF"/>
<stop offset="0.2601" stop-color="#00BEFF"/>
<stop offset="0.5122" stop-color="#00D2FF"/>
<stop offset="0.7604" stop-color="#00DFFF"/>
<stop offset="1" stop-color="#00E3FF"/>
</linearGradient>
<linearGradient id="paint1_linear_140_6208" x1="37.9819" y1="21.8257" x2="15.2354" y2="21.8257" gradientUnits="userSpaceOnUse">
<stop stop-color="#FFE000"/>
<stop offset="0.4087" stop-color="#FFBD00"/>
<stop offset="0.7754" stop-color="#FFA500"/>
<stop offset="1" stop-color="#FF9C00"/>
</linearGradient>
<linearGradient id="paint2_linear_140_6208" x1="29.5141" y1="23.9942" x2="14.4465" y2="49.2503" gradientUnits="userSpaceOnUse">
<stop stop-color="#FF3A44"/>
<stop offset="1" stop-color="#C31162"/>
</linearGradient>
<linearGradient id="paint3_linear_140_6208" x1="13.0334" y1="3.11603" x2="19.7557" y2="14.3958" gradientUnits="userSpaceOnUse">
<stop stop-color="#32A071"/>
<stop offset="0.0685" stop-color="#2DA771"/>
<stop offset="0.4762" stop-color="#15CF74"/>
<stop offset="0.8009" stop-color="#06E775"/>
<stop offset="1" stop-color="#00F076"/>
</linearGradient>
</defs>
</svg>
