<svg width="140" height="16" viewBox="0 0 140 16" fill="none" xmlns="http://www.w3.org/2000/svg">
<g clip-path="url(#clip0_93_7291)">
<path fill-rule="evenodd" clip-rule="evenodd" d="M53.6979 12.0886C54.4484 11.4005 54.472 10.3783 54.472 9.69036V1.1201H57.5679V10.0442C57.5679 11.2044 57.3801 12.5013 56.1371 13.5627C54.4947 14.9781 51.939 15.037 50.4379 15.037C48.9369 15.037 46.3806 14.9783 44.7387 13.5627C43.4958 12.5013 43.3081 11.2039 43.3081 10.0442V1.1201H46.4039V9.69036C46.4039 10.457 46.4273 11.3808 47.2014 12.0886C48.0692 12.8749 49.4764 12.9731 50.4379 12.9731C51.3293 12.9731 52.8537 12.8749 53.6979 12.0886ZM59.9133 14.8797V3.18402C59.9133 2.67292 59.9133 2.12262 60.4761 1.65073C61.0155 1.19868 61.7666 1.1201 62.3289 1.1201H70.1391C71.0068 1.1201 72.3904 1.1201 73.399 1.94563C74.5246 2.8499 74.6422 4.40272 74.6422 5.56252C74.6422 6.68282 74.5013 8.45197 73.2112 9.33699C72.6015 9.74969 71.6635 10.0052 70.7018 10.0052H63.0096V14.8797H59.9133ZM68.8959 7.94088C69.5761 7.94088 70.3736 7.94088 70.9129 7.42993C71.4054 6.95804 71.4523 6.07362 71.4523 5.54284C71.4523 4.93349 71.3819 4.10796 70.8657 3.6559C70.3264 3.2037 69.4579 3.18402 68.9427 3.18402H63.9475C63.7364 3.18402 63.455 3.16433 63.2206 3.36099C63.0096 3.53723 63.0096 3.77383 63.0096 4.00955V7.94088H68.8961H68.8959ZM78.6294 14.8797C78.09 14.8797 77.4802 14.7815 77.1052 14.5259C76.9215 14.3987 76.772 14.2281 76.6697 14.0293C76.5674 13.8305 76.5154 13.6096 76.5185 13.386V1.1201H79.6144V12.0687C79.6144 12.226 79.5909 12.4817 79.8255 12.6585C79.9194 12.7172 80.107 12.8159 80.5996 12.8159H89.6056V14.8797H78.6292H78.6294ZM104.101 2.41737C105.813 3.79337 105.977 6.19184 105.977 7.99991C105.977 9.808 105.789 12.2065 104.101 13.5824C102.318 15.037 99.4573 15.037 97.5574 15.037C95.6106 15.037 92.8196 15.037 91.0135 13.5824C89.1142 12.0496 89.1142 9.55289 89.1142 7.99991C89.1142 6.13251 89.2315 3.83272 91.0138 2.41737C92.8433 0.963392 95.5639 0.963393 97.5574 0.963393C99.5038 0.962953 102.295 0.962952 104.101 2.41737ZM93.3121 11.833C94.2737 12.8749 95.8216 12.9731 97.5332 12.9731C99.2219 12.9731 100.793 12.8749 101.779 11.833C102.318 11.2628 102.787 10.2211 102.787 7.99977C102.787 5.62141 102.294 4.6778 101.779 4.14702C100.818 3.14466 99.1986 3.02672 97.5332 3.02672C95.8216 3.02672 94.2737 3.14421 93.3121 4.14702C92.6788 4.81541 92.3036 5.8965 92.3036 7.99977C92.3039 10.2408 92.773 11.2628 93.3123 11.833H93.3121ZM112.403 2.51578C112.99 1.35553 113.623 0.962952 115.101 0.962952C116.508 0.962952 117.212 1.35597 117.798 2.51578L123.99 14.8797H120.73L119.041 11.4005H111.137L109.472 14.8797H106.212L112.403 2.51578ZM111.934 9.55289H118.243L115.57 3.95081C115.476 3.75415 115.312 3.38082 115.101 3.38082C114.889 3.38082 114.726 3.75415 114.632 3.95081L111.934 9.55289ZM127.204 14.8797C125.984 14.8797 125.492 14.585 125.374 14.5063C125.069 14.3097 124.694 13.8969 124.694 13.1304V3.32163C124.694 2.81054 124.717 2.22013 125.257 1.70977C125.492 1.49358 126.031 1.1201 127.016 1.1201H133.442C135.717 1.1201 137.265 1.84738 138.25 2.75164C139.845 4.22589 139.915 6.19155 139.915 7.84262C139.915 9.33655 139.798 11.6954 138.461 13.1893C137.805 13.9164 136.444 14.8797 133.864 14.8797H127.204ZM127.791 11.8722C127.791 12.1475 127.766 12.4029 128.001 12.6193C128.212 12.8159 128.517 12.8159 128.798 12.8159H132.364C134.077 12.8159 135.2 12.5013 135.905 11.5382C136.304 11.0075 136.726 9.98541 136.726 7.64627C136.726 6.46693 136.609 5.09078 135.576 4.18682C134.639 3.36128 133.161 3.18431 132.058 3.18431H128.846C128.658 3.18431 128.329 3.18431 128.118 3.32192C128.012 3.40199 127.928 3.50624 127.871 3.62592C127.814 3.7456 127.786 3.87726 127.791 4.00984V11.8725V11.8722ZM99.4631 7.68768L96.7268 6.00665L96.6814 5.97874C96.634 5.95612 96.5821 5.94457 96.5295 5.94496C96.466 5.93713 96.4018 5.95413 96.3504 5.99241C96.299 6.03069 96.2643 6.08733 96.2534 6.15057V9.69975C96.2643 9.763 96.299 9.81964 96.3504 9.85792C96.4018 9.89621 96.466 9.91319 96.5295 9.90536C96.5839 9.90587 96.6375 9.89343 96.686 9.86909L96.7237 9.84618L99.4631 8.16309C99.5087 8.14185 99.5465 8.10823 99.5726 8.06613C99.5998 8.02404 99.6143 7.97523 99.6143 7.92538C99.6143 7.87554 99.5998 7.82673 99.5726 7.78463C99.5465 7.74254 99.5087 7.70892 99.4631 7.68768Z" fill="black"/>
<path fill-rule="evenodd" clip-rule="evenodd" d="M12.5624 13.386C12.0935 14.4276 11.6717 15.037 10.2187 15.037C8.64833 15.037 8.27332 14.2507 7.87487 13.386L3.67959 4.20691C3.60925 4.04962 3.42181 3.75471 3.28128 3.75471C3.02336 3.75471 3.02336 4.10865 3.02336 4.16755L3.0937 14.8804H0V2.77131C0 0.982485 2.17971 0.962952 2.64835 0.962952C4.5467 0.962952 5.08584 1.7688 5.53118 2.73195L9.77316 11.911C9.91394 12.2059 10.0781 12.4221 10.2187 12.4221C10.3594 12.4221 10.5233 12.2059 10.6639 11.911L14.9061 2.73195C15.6095 1.17914 16.617 0.962952 17.7887 0.962952C19.3128 0.962952 20.4373 1.51326 20.4373 2.77131V14.8796H17.3435L17.4373 4.16681C17.4373 3.79334 17.2497 3.75398 17.156 3.75398C16.992 3.75398 16.8279 4.04888 16.7576 4.20617L12.5624 13.386ZM22.7815 14.8797V1.1201H25.8752V14.8796H22.7815V14.8797ZM39.024 14.8797L34.6411 9.72904L30.2582 14.8796H26.5787L32.8833 7.90144L26.7661 1.1201H30.4458L34.6411 6.07356L38.8364 1.1201H42.516L36.3989 7.90144L42.7036 14.8796H39.024V14.8797Z" fill="#E81943"/>
</g>
<defs>
<clipPath id="clip0_93_7291">
<rect width="140" height="14.0741" fill="white" transform="translate(0 0.962952)"/>
</clipPath>
</defs>
</svg>
