<svg width="170" height="120" viewBox="0 0 170 120" fill="none" xmlns="http://www.w3.org/2000/svg">
<circle cx="85" cy="23" r="23" fill="#E81943"/>
<path fill-rule="evenodd" clip-rule="evenodd" d="M87.7523 29.0057C87.2017 30.2638 86.7064 31 85.0001 31C83.1559 31 82.7156 30.0502 82.2476 29.0057L77.321 17.9184C77.2384 17.7284 77.0183 17.3721 76.8533 17.3721C76.5504 17.3721 76.5504 17.7997 76.5504 17.8708L76.633 30.8108H73V16.1843C73 14.0236 75.5597 14 76.11 14C78.3393 14 78.9724 14.9734 79.4954 16.1368L84.4769 27.2241C84.6422 27.5803 84.8349 27.8414 85.0001 27.8414C85.1653 27.8414 85.3577 27.5803 85.5229 27.2241L90.5046 16.1368C91.3306 14.2611 92.5137 14 93.8897 14C95.6795 14 97 14.6647 97 16.1843V30.8098H93.3669L93.4771 17.8699C93.4771 17.4188 93.2568 17.3713 93.1467 17.3713C92.9541 17.3713 92.7614 17.7275 92.6788 17.9175L87.7523 29.0057Z" fill="white"/>
<g clip-path="url(#clip0_201_2421)">
<path fill-rule="evenodd" clip-rule="evenodd" d="M65.2043 81.5097C66.1157 80.6741 66.1443 79.4329 66.1443 78.5976V68.1908H69.9036V79.0272C69.9036 80.4361 69.6756 82.0108 68.1663 83.2997C66.1719 85.0184 63.0685 85.09 61.2458 85.09C59.4231 85.09 56.3191 85.0186 54.3253 83.2997C52.816 82.0108 52.5881 80.4355 52.5881 79.0272V68.1908H56.3473V78.5976C56.3473 79.5285 56.3758 80.6502 57.3157 81.5097C58.3694 82.4645 60.0783 82.5837 61.2458 82.5837C62.3281 82.5837 64.1792 82.4645 65.2043 81.5097ZM72.7515 84.8989V70.697C72.7515 70.0764 72.7516 69.4082 73.435 68.8352C74.09 68.2862 75.002 68.1908 75.6848 68.1908H85.1686C86.2223 68.1908 87.9024 68.1908 89.1271 69.1933C90.4939 70.2913 90.6366 72.1769 90.6366 73.5852C90.6366 74.9456 90.4656 77.0938 88.8991 78.1685C88.1587 78.6696 87.0197 78.9799 85.8519 78.9799H76.5113V84.8989H72.7515ZM83.659 76.4732C84.485 76.4732 85.4533 76.4732 86.1083 75.8528C86.7063 75.2798 86.7632 74.2058 86.7632 73.5613C86.7632 72.8214 86.6778 71.8189 86.051 71.27C85.396 70.7209 84.3414 70.697 83.7158 70.697H77.6503C77.3939 70.697 77.0523 70.6731 76.7676 70.9119C76.5113 71.1259 76.5113 71.4132 76.5113 71.6994V76.4732H83.6593H83.659ZM95.4783 84.8989C94.8233 84.8989 94.0828 84.7796 93.6274 84.4693C93.4044 84.3148 93.2229 84.1077 93.0986 83.8663C92.9744 83.6249 92.9113 83.3567 92.9151 83.0851V68.1908H96.6744V81.4855C96.6744 81.6766 96.6458 81.987 96.9307 82.2017C97.0447 82.2731 97.2725 82.3929 97.8706 82.3929H108.807V84.8989H95.478H95.4783ZM126.408 69.7661C128.487 71.4369 128.686 74.3494 128.686 76.5449C128.686 78.7404 128.458 81.6529 126.408 83.3236C124.243 85.09 120.769 85.09 118.462 85.09C116.098 85.09 112.709 85.09 110.516 83.3236C108.21 81.4624 108.21 78.4306 108.21 76.5449C108.21 74.2773 108.352 71.4847 110.517 69.7661C112.738 68.0005 116.042 68.0005 118.462 68.0005C120.826 68 124.215 68 126.408 69.7661ZM113.307 81.1993C114.475 82.4645 116.355 82.5837 118.433 82.5837C120.483 82.5837 122.392 82.4645 123.588 81.1993C124.243 80.507 124.813 79.2421 124.813 76.5447C124.813 73.6567 124.214 72.5109 123.588 71.8664C122.421 70.6492 120.455 70.506 118.433 70.506C116.355 70.506 114.475 70.6487 113.307 71.8664C112.538 72.678 112.083 73.9907 112.083 76.5447C112.083 79.266 112.653 80.507 113.308 81.1993H113.307ZM136.489 69.8856C137.202 68.4767 137.971 68 139.765 68C141.474 68 142.328 68.4772 143.04 69.8856L150.559 84.8989H146.6L144.549 80.6741H134.952L132.931 84.8989H128.972L136.489 69.8856ZM135.92 78.4306H143.581L140.335 71.6281C140.221 71.3893 140.021 70.936 139.765 70.936C139.508 70.936 139.309 71.3893 139.195 71.6281L135.92 78.4306ZM154.461 84.8989C152.98 84.8989 152.382 84.5411 152.24 84.4455C151.869 84.2068 151.414 83.7055 151.414 82.7748V70.8641C151.414 70.2435 151.442 69.5266 152.098 68.9068C152.382 68.6443 153.038 68.1908 154.233 68.1908H162.036C164.799 68.1908 166.679 69.074 167.875 70.172C169.812 71.9621 169.896 74.349 169.896 76.3539C169.896 78.1679 169.754 81.0322 168.131 82.8463C167.334 83.7292 165.682 84.8989 162.549 84.8989H154.461ZM155.174 81.247C155.174 81.5812 155.145 81.8914 155.429 82.1541C155.686 82.3929 156.056 82.3929 156.398 82.3929H160.727C162.807 82.3929 164.172 82.0108 165.027 80.8414C165.512 80.1969 166.025 78.9558 166.025 76.1155C166.025 74.6834 165.882 73.0124 164.628 71.9147C163.491 70.9123 161.695 70.6974 160.356 70.6974H156.455C156.227 70.6974 155.828 70.6974 155.572 70.8645C155.443 70.9617 155.341 71.0883 155.272 71.2336C155.202 71.3789 155.168 71.5388 155.174 71.6998V81.2473V81.247ZM120.776 76.1657L117.454 74.1245L117.399 74.0906C117.341 74.0631 117.278 74.0491 117.214 74.0496C117.137 74.0401 117.059 74.0607 116.997 74.1072C116.934 74.1537 116.892 74.2225 116.879 74.2992V78.609C116.892 78.6858 116.934 78.7545 116.997 78.801C117.059 78.8475 117.137 78.8681 117.214 78.8586C117.28 78.8592 117.345 78.8442 117.404 78.8146L117.45 78.7868L120.776 76.743C120.832 76.7172 120.878 76.6764 120.909 76.6253C120.942 76.5742 120.96 76.5149 120.96 76.4544C120.96 76.3939 120.942 76.3346 120.909 76.2835C120.878 76.2324 120.832 76.1915 120.776 76.1657Z" fill="black"/>
<path fill-rule="evenodd" clip-rule="evenodd" d="M15.2544 83.0851C14.6849 84.3499 14.1728 85.09 12.4085 85.09C10.5015 85.09 10.0462 84.1352 9.56234 83.0851L4.46807 71.9391C4.38266 71.7481 4.15506 71.39 3.98441 71.39C3.67122 71.39 3.67122 71.8198 3.67122 71.8913L3.75664 84.8997H0V70.1959C0 68.0237 2.64679 68 3.21586 68C5.52099 68 6.17566 68.9785 6.71644 70.1481L11.8674 81.2941C12.0384 81.6522 12.2376 81.9146 12.4085 81.9146C12.5793 81.9146 12.7782 81.6522 12.9491 81.2941L18.1002 70.1481C18.9544 68.2625 20.1778 68 21.6006 68C23.4513 68 24.8167 68.6682 24.8167 70.1959V84.8988H21.06L21.1739 71.8904C21.1739 71.4369 20.9461 71.3891 20.8322 71.3891C20.6332 71.3891 20.4339 71.7472 20.3485 71.9382L15.2544 83.0851ZM27.6633 84.8989V68.1908H31.4199V84.8988H27.6633V84.8989ZM47.3862 84.8989L42.0642 78.6445L36.7421 84.8988H32.2741L39.9298 76.4253L32.5017 68.1908H36.9699L42.0642 74.2057L47.1585 68.1908H51.6266L44.1987 76.4253L51.8544 84.8988H47.3862V84.8989Z" fill="#E81943"/>
</g>
<path d="M31.2594 107.09C30.8794 107.09 30.4994 107.077 30.1194 107.05C29.7461 107.03 29.3561 106.977 28.9494 106.89V100.17C29.2694 100.11 29.6194 100.067 29.9994 100.04C30.3794 100.007 30.7327 99.99 31.0594 99.99C31.4994 99.99 31.9027 100.023 32.2694 100.09C32.6427 100.15 32.9627 100.257 33.2294 100.41C33.4961 100.563 33.7027 100.767 33.8494 101.02C34.0027 101.267 34.0794 101.573 34.0794 101.94C34.0794 102.493 33.8127 102.93 33.2794 103.25C33.7194 103.417 34.0194 103.643 34.1794 103.93C34.3394 104.217 34.4194 104.54 34.4194 104.9C34.4194 105.627 34.1527 106.173 33.6194 106.54C33.0927 106.907 32.3061 107.09 31.2594 107.09ZM30.4694 103.98V105.77C30.5827 105.783 30.7061 105.793 30.8394 105.8C30.9727 105.807 31.1194 105.81 31.2794 105.81C31.7461 105.81 32.1227 105.743 32.4094 105.61C32.6961 105.477 32.8394 105.23 32.8394 104.87C32.8394 104.55 32.7194 104.323 32.4794 104.19C32.2394 104.05 31.8961 103.98 31.4494 103.98H30.4694ZM30.4694 102.79H31.2294C31.7094 102.79 32.0527 102.73 32.2594 102.61C32.4661 102.483 32.5694 102.283 32.5694 102.01C32.5694 101.73 32.4627 101.533 32.2494 101.42C32.0361 101.307 31.7227 101.25 31.3094 101.25C31.1761 101.25 31.0327 101.253 30.8794 101.26C30.7261 101.26 30.5894 101.267 30.4694 101.28V102.79ZM35.6682 107V100.07H40.3482V101.38H37.2282V102.74H39.9982V104.02H37.2282V105.69H40.5782V107H35.6682ZM43.6226 105.81C43.8426 105.81 44.0226 105.793 44.1626 105.76C44.3093 105.72 44.426 105.67 44.5126 105.61C44.5993 105.543 44.6593 105.467 44.6926 105.38C44.726 105.293 44.7426 105.197 44.7426 105.09C44.7426 104.863 44.636 104.677 44.4226 104.53C44.2093 104.377 43.8426 104.213 43.3226 104.04C43.096 103.96 42.8693 103.87 42.6426 103.77C42.416 103.663 42.2126 103.533 42.0326 103.38C41.8526 103.22 41.706 103.03 41.5926 102.81C41.4793 102.583 41.4226 102.31 41.4226 101.99C41.4226 101.67 41.4826 101.383 41.6026 101.13C41.7226 100.87 41.8926 100.65 42.1126 100.47C42.3326 100.29 42.5993 100.153 42.9126 100.06C43.226 99.96 43.5793 99.91 43.9726 99.91C44.4393 99.91 44.8426 99.96 45.1826 100.06C45.5226 100.16 45.8026 100.27 46.0226 100.39L45.5726 101.62C45.3793 101.52 45.1626 101.433 44.9226 101.36C44.6893 101.28 44.406 101.24 44.0726 101.24C43.6993 101.24 43.4293 101.293 43.2626 101.4C43.1026 101.5 43.0226 101.657 43.0226 101.87C43.0226 101.997 43.0526 102.103 43.1126 102.19C43.1726 102.277 43.256 102.357 43.3626 102.43C43.476 102.497 43.6026 102.56 43.7426 102.62C43.8893 102.673 44.0493 102.73 44.2226 102.79C44.5826 102.923 44.896 103.057 45.1626 103.19C45.4293 103.317 45.6493 103.467 45.8226 103.64C46.0026 103.813 46.136 104.017 46.2226 104.25C46.3093 104.483 46.3526 104.767 46.3526 105.1C46.3526 105.747 46.126 106.25 45.6726 106.61C45.2193 106.963 44.536 107.14 43.6226 107.14C43.316 107.14 43.0393 107.12 42.7926 107.08C42.546 107.047 42.326 107.003 42.1326 106.95C41.946 106.897 41.7826 106.84 41.6426 106.78C41.5093 106.72 41.396 106.663 41.3026 106.61L41.7426 105.37C41.9493 105.483 42.2026 105.587 42.5026 105.68C42.8093 105.767 43.1826 105.81 43.6226 105.81ZM52.4976 100.07V101.4H50.4076V107H48.8476V101.4H46.7576V100.07H52.4976ZM60.5525 100.81C60.6325 101.083 60.7192 101.393 60.8125 101.74C60.9125 102.08 61.0159 102.433 61.1225 102.8C61.2359 103.167 61.3492 103.533 61.4625 103.9C61.5759 104.267 61.6859 104.607 61.7925 104.92C61.8792 104.58 61.9659 104.21 62.0525 103.81C62.1459 103.41 62.2325 102.997 62.3125 102.57C62.3925 102.143 62.4692 101.72 62.5425 101.3C62.6225 100.873 62.6959 100.463 62.7625 100.07H64.3825C64.1492 101.23 63.8792 102.407 63.5725 103.6C63.2725 104.793 62.9459 105.927 62.5925 107H61.1625C60.9292 106.36 60.7025 105.69 60.4825 104.99C60.2625 104.283 60.0459 103.577 59.8325 102.87C59.6192 103.577 59.4059 104.283 59.1925 104.99C58.9792 105.69 58.7559 106.36 58.5225 107H57.0925C56.7392 105.927 56.4092 104.793 56.1025 103.6C55.8025 102.407 55.5359 101.23 55.3025 100.07H56.9925C57.0592 100.463 57.1325 100.873 57.2125 101.3C57.2925 101.72 57.3759 102.143 57.4625 102.57C57.5492 102.997 57.6359 103.41 57.7225 103.81C57.8159 104.21 57.9092 104.58 58.0025 104.92C58.1225 104.593 58.2392 104.247 58.3525 103.88C58.4659 103.513 58.5759 103.147 58.6825 102.78C58.7892 102.413 58.8859 102.06 58.9725 101.72C59.0659 101.38 59.1492 101.077 59.2225 100.81H60.5525ZM65.385 107V100.07H70.065V101.38H66.945V102.74H69.715V104.02H66.945V105.69H70.295V107H65.385ZM73.7594 107.09C73.3794 107.09 72.9994 107.077 72.6194 107.05C72.2461 107.03 71.8561 106.977 71.4494 106.89V100.17C71.7694 100.11 72.1194 100.067 72.4994 100.04C72.8794 100.007 73.2327 99.99 73.5594 99.99C73.9994 99.99 74.4027 100.023 74.7694 100.09C75.1427 100.15 75.4627 100.257 75.7294 100.41C75.9961 100.563 76.2027 100.767 76.3494 101.02C76.5027 101.267 76.5794 101.573 76.5794 101.94C76.5794 102.493 76.3127 102.93 75.7794 103.25C76.2194 103.417 76.5194 103.643 76.6794 103.93C76.8394 104.217 76.9194 104.54 76.9194 104.9C76.9194 105.627 76.6527 106.173 76.1194 106.54C75.5927 106.907 74.8061 107.09 73.7594 107.09ZM72.9694 103.98V105.77C73.0827 105.783 73.2061 105.793 73.3394 105.8C73.4727 105.807 73.6194 105.81 73.7794 105.81C74.2461 105.81 74.6227 105.743 74.9094 105.61C75.1961 105.477 75.3394 105.23 75.3394 104.87C75.3394 104.55 75.2194 104.323 74.9794 104.19C74.7394 104.05 74.3961 103.98 73.9494 103.98H72.9694ZM72.9694 102.79H73.7294C74.2094 102.79 74.5527 102.73 74.7594 102.61C74.9661 102.483 75.0694 102.283 75.0694 102.01C75.0694 101.73 74.9627 101.533 74.7494 101.42C74.5361 101.307 74.2227 101.25 73.8094 101.25C73.6761 101.25 73.5327 101.253 73.3794 101.26C73.2261 101.26 73.0894 101.267 72.9694 101.28V102.79ZM80.0582 105.81C80.2782 105.81 80.4582 105.793 80.5982 105.76C80.7448 105.72 80.8615 105.67 80.9482 105.61C81.0348 105.543 81.0948 105.467 81.1282 105.38C81.1615 105.293 81.1782 105.197 81.1782 105.09C81.1782 104.863 81.0715 104.677 80.8582 104.53C80.6448 104.377 80.2782 104.213 79.7582 104.04C79.5315 103.96 79.3048 103.87 79.0782 103.77C78.8515 103.663 78.6482 103.533 78.4682 103.38C78.2882 103.22 78.1415 103.03 78.0282 102.81C77.9148 102.583 77.8582 102.31 77.8582 101.99C77.8582 101.67 77.9182 101.383 78.0382 101.13C78.1582 100.87 78.3282 100.65 78.5482 100.47C78.7682 100.29 79.0348 100.153 79.3482 100.06C79.6615 99.96 80.0148 99.91 80.4082 99.91C80.8748 99.91 81.2782 99.96 81.6182 100.06C81.9582 100.16 82.2382 100.27 82.4582 100.39L82.0082 101.62C81.8148 101.52 81.5982 101.433 81.3582 101.36C81.1248 101.28 80.8415 101.24 80.5082 101.24C80.1348 101.24 79.8648 101.293 79.6982 101.4C79.5382 101.5 79.4582 101.657 79.4582 101.87C79.4582 101.997 79.4882 102.103 79.5482 102.19C79.6082 102.277 79.6915 102.357 79.7982 102.43C79.9115 102.497 80.0382 102.56 80.1782 102.62C80.3248 102.673 80.4848 102.73 80.6582 102.79C81.0182 102.923 81.3315 103.057 81.5982 103.19C81.8648 103.317 82.0848 103.467 82.2582 103.64C82.4382 103.813 82.5715 104.017 82.6582 104.25C82.7448 104.483 82.7882 104.767 82.7882 105.1C82.7882 105.747 82.5615 106.25 82.1082 106.61C81.6548 106.963 80.9715 107.14 80.0582 107.14C79.7515 107.14 79.4748 107.12 79.2282 107.08C78.9815 107.047 78.7615 107.003 78.5682 106.95C78.3815 106.897 78.2182 106.84 78.0782 106.78C77.9448 106.72 77.8315 106.663 77.7382 106.61L78.1782 105.37C78.3848 105.483 78.6382 105.587 78.9382 105.68C79.2448 105.767 79.6182 105.81 80.0582 105.81ZM83.9885 100.07H85.5485V107H83.9885V100.07ZM92.2925 100.07V101.4H90.2025V107H88.6425V101.4H86.5525V100.07H92.2925ZM93.2951 107V100.07H97.9751V101.38H94.8551V102.74H97.6251V104.02H94.8551V105.69H98.2051V107H93.2951ZM101.762 107V100.07H106.402V101.38H103.322V102.83H106.062V104.14H103.322V107H101.762ZM108.736 103.53C108.736 103.87 108.776 104.177 108.856 104.45C108.943 104.723 109.063 104.96 109.216 105.16C109.376 105.353 109.569 105.503 109.796 105.61C110.023 105.717 110.283 105.77 110.576 105.77C110.863 105.77 111.119 105.717 111.346 105.61C111.579 105.503 111.773 105.353 111.926 105.16C112.086 104.96 112.206 104.723 112.286 104.45C112.373 104.177 112.416 103.87 112.416 103.53C112.416 103.19 112.373 102.883 112.286 102.61C112.206 102.33 112.086 102.093 111.926 101.9C111.773 101.7 111.579 101.547 111.346 101.44C111.119 101.333 110.863 101.28 110.576 101.28C110.283 101.28 110.023 101.337 109.796 101.45C109.569 101.557 109.376 101.71 109.216 101.91C109.063 102.103 108.943 102.34 108.856 102.62C108.776 102.893 108.736 103.197 108.736 103.53ZM114.026 103.53C114.026 104.123 113.936 104.647 113.756 105.1C113.583 105.547 113.343 105.923 113.036 106.23C112.729 106.53 112.363 106.757 111.936 106.91C111.516 107.063 111.063 107.14 110.576 107.14C110.103 107.14 109.656 107.063 109.236 106.91C108.816 106.757 108.449 106.53 108.136 106.23C107.823 105.923 107.576 105.547 107.396 105.1C107.216 104.647 107.126 104.123 107.126 103.53C107.126 102.937 107.219 102.417 107.406 101.97C107.593 101.517 107.843 101.137 108.156 100.83C108.476 100.523 108.843 100.293 109.256 100.14C109.676 99.9867 110.116 99.91 110.576 99.91C111.049 99.91 111.496 99.9867 111.916 100.14C112.336 100.293 112.703 100.523 113.016 100.83C113.329 101.137 113.576 101.517 113.756 101.97C113.936 102.417 114.026 102.937 114.026 103.53ZM117.356 99.99C118.396 99.99 119.193 100.177 119.746 100.55C120.3 100.917 120.576 101.49 120.576 102.27C120.576 102.757 120.463 103.153 120.236 103.46C120.016 103.76 119.696 103.997 119.276 104.17C119.416 104.343 119.563 104.543 119.716 104.77C119.87 104.99 120.02 105.223 120.166 105.47C120.32 105.71 120.466 105.963 120.606 106.23C120.746 106.49 120.876 106.747 120.996 107H119.246C119.12 106.773 118.99 106.543 118.856 106.31C118.73 106.077 118.596 105.85 118.456 105.63C118.323 105.41 118.19 105.203 118.056 105.01C117.923 104.81 117.79 104.63 117.656 104.47H116.886V107H115.326V100.17C115.666 100.103 116.016 100.057 116.376 100.03C116.743 100.003 117.07 99.99 117.356 99.99ZM117.446 101.32C117.333 101.32 117.23 101.323 117.136 101.33C117.05 101.337 116.966 101.343 116.886 101.35V103.23H117.326C117.913 103.23 118.333 103.157 118.586 103.01C118.84 102.863 118.966 102.613 118.966 102.26C118.966 101.92 118.836 101.68 118.576 101.54C118.323 101.393 117.946 101.32 117.446 101.32ZM125.959 105.73C126.032 105.737 126.115 105.743 126.209 105.75C126.309 105.75 126.425 105.75 126.559 105.75C127.339 105.75 127.915 105.553 128.289 105.16C128.669 104.767 128.859 104.223 128.859 103.53C128.859 102.803 128.679 102.253 128.319 101.88C127.959 101.507 127.389 101.32 126.609 101.32C126.502 101.32 126.392 101.323 126.279 101.33C126.165 101.33 126.059 101.337 125.959 101.35V105.73ZM130.469 103.53C130.469 104.13 130.375 104.653 130.189 105.1C130.002 105.547 129.735 105.917 129.389 106.21C129.049 106.503 128.632 106.723 128.139 106.87C127.645 107.017 127.092 107.09 126.479 107.09C126.199 107.09 125.872 107.077 125.499 107.05C125.125 107.03 124.759 106.983 124.399 106.91V100.16C124.759 100.093 125.132 100.05 125.519 100.03C125.912 100.003 126.249 99.99 126.529 99.99C127.122 99.99 127.659 100.057 128.139 100.19C128.625 100.323 129.042 100.533 129.389 100.82C129.735 101.107 130.002 101.473 130.189 101.92C130.375 102.367 130.469 102.903 130.469 103.53ZM135.327 104.67C135.327 105.01 135.287 105.33 135.207 105.63C135.134 105.93 135.001 106.193 134.807 106.42C134.621 106.64 134.364 106.817 134.037 106.95C133.717 107.077 133.311 107.14 132.817 107.14C132.364 107.14 131.974 107.087 131.647 106.98C131.321 106.867 131.051 106.737 130.837 106.59L131.357 105.38C131.551 105.493 131.757 105.593 131.977 105.68C132.197 105.767 132.437 105.81 132.697 105.81C133.077 105.81 133.351 105.717 133.517 105.53C133.684 105.343 133.767 105.03 133.767 104.59V100.07H135.327V104.67ZM138.72 105.81C138.94 105.81 139.12 105.793 139.26 105.76C139.407 105.72 139.524 105.67 139.61 105.61C139.697 105.543 139.757 105.467 139.79 105.38C139.824 105.293 139.84 105.197 139.84 105.09C139.84 104.863 139.734 104.677 139.52 104.53C139.307 104.377 138.94 104.213 138.42 104.04C138.194 103.96 137.967 103.87 137.74 103.77C137.514 103.663 137.31 103.533 137.13 103.38C136.95 103.22 136.804 103.03 136.69 102.81C136.577 102.583 136.52 102.31 136.52 101.99C136.52 101.67 136.58 101.383 136.7 101.13C136.82 100.87 136.99 100.65 137.21 100.47C137.43 100.29 137.697 100.153 138.01 100.06C138.324 99.96 138.677 99.91 139.07 99.91C139.537 99.91 139.94 99.96 140.28 100.06C140.62 100.16 140.9 100.27 141.12 100.39L140.67 101.62C140.477 101.52 140.26 101.433 140.02 101.36C139.787 101.28 139.504 101.24 139.17 101.24C138.797 101.24 138.527 101.293 138.36 101.4C138.2 101.5 138.12 101.657 138.12 101.87C138.12 101.997 138.15 102.103 138.21 102.19C138.27 102.277 138.354 102.357 138.46 102.43C138.574 102.497 138.7 102.56 138.84 102.62C138.987 102.673 139.147 102.73 139.32 102.79C139.68 102.923 139.994 103.057 140.26 103.19C140.527 103.317 140.747 103.467 140.92 103.64C141.1 103.813 141.234 104.017 141.32 104.25C141.407 104.483 141.45 104.767 141.45 105.1C141.45 105.747 141.224 106.25 140.77 106.61C140.317 106.963 139.634 107.14 138.72 107.14C138.414 107.14 138.137 107.12 137.89 107.08C137.644 107.047 137.424 107.003 137.23 106.95C137.044 106.897 136.88 106.84 136.74 106.78C136.607 106.72 136.494 106.663 136.4 106.61L136.84 105.37C137.047 105.483 137.3 105.587 137.6 105.68C137.907 105.767 138.28 105.81 138.72 105.81ZM48.3448 118.14C47.2181 118.14 46.3581 117.827 45.7648 117.2C45.1781 116.573 44.8848 115.683 44.8848 114.53C44.8848 113.957 44.9748 113.447 45.1548 113C45.3348 112.547 45.5814 112.167 45.8948 111.86C46.2081 111.547 46.5814 111.31 47.0148 111.15C47.4481 110.99 47.9181 110.91 48.4248 110.91C48.7181 110.91 48.9848 110.933 49.2248 110.98C49.4648 111.02 49.6748 111.07 49.8548 111.13C50.0348 111.183 50.1848 111.24 50.3048 111.3C50.4248 111.36 50.5114 111.407 50.5648 111.44L50.1148 112.7C49.9014 112.587 49.6514 112.49 49.3648 112.41C49.0848 112.33 48.7648 112.29 48.4048 112.29C48.1648 112.29 47.9281 112.33 47.6948 112.41C47.4681 112.49 47.2648 112.62 47.0848 112.8C46.9114 112.973 46.7714 113.2 46.6648 113.48C46.5581 113.76 46.5048 114.1 46.5048 114.5C46.5048 114.82 46.5381 115.12 46.6048 115.4C46.6781 115.673 46.7914 115.91 46.9448 116.11C47.1048 116.31 47.3114 116.47 47.5648 116.59C47.8181 116.703 48.1248 116.76 48.4848 116.76C48.7114 116.76 48.9148 116.747 49.0948 116.72C49.2748 116.693 49.4348 116.663 49.5748 116.63C49.7148 116.59 49.8381 116.547 49.9448 116.5C50.0514 116.453 50.1481 116.41 50.2348 116.37L50.6648 117.62C50.4448 117.753 50.1348 117.873 49.7348 117.98C49.3348 118.087 48.8714 118.14 48.3448 118.14ZM53.6991 110.99C54.7391 110.99 55.5358 111.177 56.0891 111.55C56.6425 111.917 56.9191 112.49 56.9191 113.27C56.9191 113.757 56.8058 114.153 56.5791 114.46C56.3591 114.76 56.0391 114.997 55.6191 115.17C55.7591 115.343 55.9058 115.543 56.0591 115.77C56.2125 115.99 56.3625 116.223 56.5091 116.47C56.6625 116.71 56.8091 116.963 56.9491 117.23C57.0891 117.49 57.2191 117.747 57.3391 118H55.5891C55.4625 117.773 55.3325 117.543 55.1991 117.31C55.0725 117.077 54.9391 116.85 54.7991 116.63C54.6658 116.41 54.5325 116.203 54.3991 116.01C54.2658 115.81 54.1325 115.63 53.9991 115.47H53.2291V118H51.6691V111.17C52.0091 111.103 52.3591 111.057 52.7191 111.03C53.0858 111.003 53.4125 110.99 53.6991 110.99ZM53.7891 112.32C53.6758 112.32 53.5725 112.323 53.4791 112.33C53.3925 112.337 53.3091 112.343 53.2291 112.35V114.23H53.6691C54.2558 114.23 54.6758 114.157 54.9291 114.01C55.1825 113.863 55.3091 113.613 55.3091 113.26C55.3091 112.92 55.1791 112.68 54.9191 112.54C54.6658 112.393 54.2891 112.32 53.7891 112.32ZM58.3391 118V111.07H63.0191V112.38H59.8991V113.74H62.6691V115.02H59.8991V116.69H63.2491V118H58.3391ZM69.0435 118C68.9702 117.76 68.8868 117.513 68.7935 117.26C68.7068 117.007 68.6202 116.753 68.5335 116.5H65.8335C65.7468 116.753 65.6568 117.007 65.5635 117.26C65.4768 117.513 65.3968 117.76 65.3235 118H63.7035C63.9635 117.253 64.2102 116.563 64.4435 115.93C64.6768 115.297 64.9035 114.7 65.1235 114.14C65.3502 113.58 65.5702 113.05 65.7835 112.55C66.0035 112.043 66.2302 111.55 66.4635 111.07H67.9535C68.1802 111.55 68.4035 112.043 68.6235 112.55C68.8435 113.05 69.0635 113.58 69.2835 114.14C69.5102 114.7 69.7402 115.297 69.9735 115.93C70.2068 116.563 70.4535 117.253 70.7135 118H69.0435ZM67.1735 112.64C67.1402 112.74 67.0902 112.877 67.0235 113.05C66.9568 113.223 66.8802 113.423 66.7935 113.65C66.7068 113.877 66.6102 114.127 66.5035 114.4C66.4035 114.673 66.3002 114.96 66.1935 115.26H68.1635C68.0568 114.96 67.9535 114.673 67.8535 114.4C67.7535 114.127 67.6568 113.877 67.5635 113.65C67.4768 113.423 67.4002 113.223 67.3335 113.05C67.2668 112.877 67.2135 112.74 67.1735 112.64ZM75.9302 111.07V112.4H73.8402V118H72.2802V112.4H70.1902V111.07H75.9302ZM76.9328 118V111.07H81.6128V112.38H78.4928V113.74H81.2628V115.02H78.4928V116.69H81.8428V118H76.9328ZM84.5573 116.73C84.6306 116.737 84.7139 116.743 84.8073 116.75C84.9073 116.75 85.0239 116.75 85.1573 116.75C85.9373 116.75 86.5139 116.553 86.8873 116.16C87.2673 115.767 87.4573 115.223 87.4573 114.53C87.4573 113.803 87.2773 113.253 86.9173 112.88C86.5573 112.507 85.9873 112.32 85.2073 112.32C85.1006 112.32 84.9906 112.323 84.8773 112.33C84.7639 112.33 84.6573 112.337 84.5573 112.35V116.73ZM89.0673 114.53C89.0673 115.13 88.9739 115.653 88.7873 116.1C88.6006 116.547 88.3339 116.917 87.9873 117.21C87.6473 117.503 87.2306 117.723 86.7373 117.87C86.2439 118.017 85.6906 118.09 85.0773 118.09C84.7973 118.09 84.4706 118.077 84.0973 118.05C83.7239 118.03 83.3573 117.983 82.9973 117.91V111.16C83.3573 111.093 83.7306 111.05 84.1173 111.03C84.5106 111.003 84.8473 110.99 85.1273 110.99C85.7206 110.99 86.2573 111.057 86.7373 111.19C87.2239 111.323 87.6406 111.533 87.9873 111.82C88.3339 112.107 88.6006 112.473 88.7873 112.92C88.9739 113.367 89.0673 113.903 89.0673 114.53ZM95.0827 118.09C94.7027 118.09 94.3227 118.077 93.9427 118.05C93.5693 118.03 93.1793 117.977 92.7727 117.89V111.17C93.0927 111.11 93.4427 111.067 93.8227 111.04C94.2027 111.007 94.556 110.99 94.8827 110.99C95.3227 110.99 95.726 111.023 96.0927 111.09C96.466 111.15 96.786 111.257 97.0527 111.41C97.3193 111.563 97.526 111.767 97.6727 112.02C97.826 112.267 97.9027 112.573 97.9027 112.94C97.9027 113.493 97.636 113.93 97.1027 114.25C97.5427 114.417 97.8427 114.643 98.0027 114.93C98.1627 115.217 98.2427 115.54 98.2427 115.9C98.2427 116.627 97.976 117.173 97.4427 117.54C96.916 117.907 96.1293 118.09 95.0827 118.09ZM94.2927 114.98V116.77C94.406 116.783 94.5293 116.793 94.6627 116.8C94.796 116.807 94.9427 116.81 95.1027 116.81C95.5693 116.81 95.946 116.743 96.2327 116.61C96.5193 116.477 96.6627 116.23 96.6627 115.87C96.6627 115.55 96.5427 115.323 96.3027 115.19C96.0627 115.05 95.7193 114.98 95.2727 114.98H94.2927ZM94.2927 113.79H95.0527C95.5327 113.79 95.876 113.73 96.0827 113.61C96.2893 113.483 96.3927 113.283 96.3927 113.01C96.3927 112.73 96.286 112.533 96.0727 112.42C95.8593 112.307 95.546 112.25 95.1327 112.25C94.9993 112.25 94.856 112.253 94.7027 112.26C94.5493 112.26 94.4127 112.267 94.2927 112.28V113.79ZM101.69 113.92C101.97 113.447 102.236 112.973 102.49 112.5C102.743 112.027 102.976 111.55 103.19 111.07H104.91C104.53 111.817 104.136 112.54 103.73 113.24C103.323 113.94 102.893 114.643 102.44 115.35V118H100.88V115.37C100.426 114.663 99.9929 113.957 99.5796 113.25C99.1729 112.543 98.7796 111.817 98.3996 111.07H100.21C100.423 111.55 100.653 112.027 100.9 112.5C101.146 112.973 101.41 113.447 101.69 113.92ZM109.723 116.73C109.797 116.737 109.88 116.743 109.973 116.75C110.073 116.75 110.19 116.75 110.323 116.75C111.103 116.75 111.68 116.553 112.053 116.16C112.433 115.767 112.623 115.223 112.623 114.53C112.623 113.803 112.443 113.253 112.083 112.88C111.723 112.507 111.153 112.32 110.373 112.32C110.267 112.32 110.157 112.323 110.043 112.33C109.93 112.33 109.823 112.337 109.723 112.35V116.73ZM114.233 114.53C114.233 115.13 114.14 115.653 113.953 116.1C113.767 116.547 113.5 116.917 113.153 117.21C112.813 117.503 112.397 117.723 111.903 117.87C111.41 118.017 110.857 118.09 110.243 118.09C109.963 118.09 109.637 118.077 109.263 118.05C108.89 118.03 108.523 117.983 108.163 117.91V111.16C108.523 111.093 108.897 111.05 109.283 111.03C109.677 111.003 110.013 110.99 110.293 110.99C110.887 110.99 111.423 111.057 111.903 111.19C112.39 111.323 112.807 111.533 113.153 111.82C113.5 112.107 113.767 112.473 113.953 112.92C114.14 113.367 114.233 113.903 114.233 114.53ZM119.092 115.67C119.092 116.01 119.052 116.33 118.972 116.63C118.899 116.93 118.765 117.193 118.572 117.42C118.385 117.64 118.129 117.817 117.802 117.95C117.482 118.077 117.075 118.14 116.582 118.14C116.129 118.14 115.739 118.087 115.412 117.98C115.085 117.867 114.815 117.737 114.602 117.59L115.122 116.38C115.315 116.493 115.522 116.593 115.742 116.68C115.962 116.767 116.202 116.81 116.462 116.81C116.842 116.81 117.115 116.717 117.282 116.53C117.449 116.343 117.532 116.03 117.532 115.59V111.07H119.092V115.67ZM122.485 116.81C122.705 116.81 122.885 116.793 123.025 116.76C123.172 116.72 123.288 116.67 123.375 116.61C123.462 116.543 123.522 116.467 123.555 116.38C123.588 116.293 123.605 116.197 123.605 116.09C123.605 115.863 123.498 115.677 123.285 115.53C123.072 115.377 122.705 115.213 122.185 115.04C121.958 114.96 121.732 114.87 121.505 114.77C121.278 114.663 121.075 114.533 120.895 114.38C120.715 114.22 120.568 114.03 120.455 113.81C120.342 113.583 120.285 113.31 120.285 112.99C120.285 112.67 120.345 112.383 120.465 112.13C120.585 111.87 120.755 111.65 120.975 111.47C121.195 111.29 121.462 111.153 121.775 111.06C122.088 110.96 122.442 110.91 122.835 110.91C123.302 110.91 123.705 110.96 124.045 111.06C124.385 111.16 124.665 111.27 124.885 111.39L124.435 112.62C124.242 112.52 124.025 112.433 123.785 112.36C123.552 112.28 123.268 112.24 122.935 112.24C122.562 112.24 122.292 112.293 122.125 112.4C121.965 112.5 121.885 112.657 121.885 112.87C121.885 112.997 121.915 113.103 121.975 113.19C122.035 113.277 122.118 113.357 122.225 113.43C122.338 113.497 122.465 113.56 122.605 113.62C122.752 113.673 122.912 113.73 123.085 113.79C123.445 113.923 123.758 114.057 124.025 114.19C124.292 114.317 124.512 114.467 124.685 114.64C124.865 114.813 124.998 115.017 125.085 115.25C125.172 115.483 125.215 115.767 125.215 116.1C125.215 116.747 124.988 117.25 124.535 117.61C124.082 117.963 123.398 118.14 122.485 118.14C122.178 118.14 121.902 118.12 121.655 118.08C121.408 118.047 121.188 118.003 120.995 117.95C120.808 117.897 120.645 117.84 120.505 117.78C120.372 117.72 120.258 117.663 120.165 117.61L120.605 116.37C120.812 116.483 121.065 116.587 121.365 116.68C121.672 116.767 122.045 116.81 122.485 116.81Z" fill="#B3B3B3"/>
<defs>
<clipPath id="clip0_201_2421">
<rect width="170" height="17.09" fill="white" transform="translate(0 68)"/>
</clipPath>
</defs>
</svg>
