<svg width="20" height="20" viewBox="0 0 20 20" xmlns="http://www.w3.org/2000/svg">
<path d="M10.3834 18.9583C10.2417 18.9583 10.1 18.9583 9.95837 18.95C5.2917 18.7416 1.3917 14.9833 1.0667 10.4C0.783372 6.46664 3.05837 2.79164 6.72504 1.24997C7.7667 0.81664 8.31671 1.14997 8.55004 1.39164C8.78337 1.62497 9.10837 2.16664 8.67504 3.15831C8.2917 4.04164 8.10004 4.98331 8.10837 5.94997C8.12504 9.64164 11.1917 12.775 14.9334 12.925C15.475 12.95 16.0084 12.9083 16.525 12.8166C17.625 12.6166 18.0834 13.0583 18.2584 13.3416C18.4334 13.625 18.6334 14.2333 17.9667 15.1333C16.2 17.55 13.3917 18.9583 10.3834 18.9583ZM2.30837 10.3083C2.5917 14.275 5.97504 17.525 10.0084 17.7C12.75 17.8333 15.35 16.5833 16.95 14.4C17.075 14.225 17.1334 14.1 17.1584 14.0333C17.0834 14.025 16.95 14.0166 16.7417 14.0583C16.1334 14.1666 15.5 14.2083 14.875 14.1833C10.475 14.0083 6.87504 10.3166 6.85004 5.96664C6.85004 4.81664 7.07504 3.70831 7.53337 2.66664C7.6167 2.48331 7.63337 2.35831 7.6417 2.29164C7.5667 2.29164 7.43337 2.30831 7.2167 2.39997C4.0417 3.73331 2.07504 6.91664 2.30837 10.3083Z"/>
</svg>
