<svg width="24" height="24" viewBox="0 0 24 24" xmlns="http://www.w3.org/2000/svg">
<path d="M6.28016 22.75C4.15016 22.75 2.41016 21.01 2.41016 18.88C2.41016 16.75 4.15016 15.01 6.28016 15.01C8.41016 15.01 10.1502 16.75 10.1502 18.88C10.1502 21.01 8.41016 22.75 6.28016 22.75ZM6.28016 16.51C4.97016 16.51 3.91016 17.57 3.91016 18.88C3.91016 20.19 4.97016 21.25 6.28016 21.25C7.59016 21.25 8.65016 20.19 8.65016 18.88C8.65016 17.57 7.59016 16.51 6.28016 16.51Z"/>
<path d="M9.40016 19.63C8.99016 19.63 8.65016 19.29 8.65016 18.88V6.30001C8.65016 4.72001 9.60016 3.48001 11.1202 3.07001L17.3602 1.37001C18.6302 1.02001 19.7002 1.15001 20.4502 1.73001C21.2102 2.31001 21.5902 3.28001 21.5902 4.61001V16.81C21.5902 17.22 21.2502 17.56 20.8402 17.56C20.4302 17.56 20.0902 17.22 20.0902 16.81V4.60001C20.0902 4.02001 19.9902 3.26001 19.5402 2.92001C19.0502 2.54001 18.2102 2.69001 17.7502 2.82001L11.5102 4.52001C10.6402 4.76001 10.1502 5.41001 10.1502 6.31001V18.89C10.1502 19.29 9.81016 19.63 9.40016 19.63Z" />
<path d="M17.7202 20.67C15.5902 20.67 13.8502 18.93 13.8502 16.8C13.8502 14.67 15.5902 12.93 17.7202 12.93C19.8502 12.93 21.5902 14.67 21.5902 16.8C21.5902 18.93 19.8502 20.67 17.7202 20.67ZM17.7202 14.43C16.4102 14.43 15.3502 15.49 15.3502 16.8C15.3502 18.11 16.4102 19.17 17.7202 19.17C19.0302 19.17 20.0902 18.11 20.0902 16.8C20.0902 15.49 19.0302 14.43 17.7202 14.43Z"/>
<path d="M9.40016 10.27C9.07016 10.27 8.77016 10.05 8.68016 9.72001C8.57016 9.32001 8.80016 8.90001 9.20016 8.79001L20.6402 5.67001C21.0402 5.56001 21.4502 5.80001 21.5602 6.20001C21.6702 6.60001 21.4302 7.01001 21.0302 7.12001L9.60016 10.24C9.53016 10.26 9.46016 10.27 9.40016 10.27Z"/>
</svg>
