<svg width="18" height="18" viewBox="0 0 18 18" xmlns="http://www.w3.org/2000/svg">
<path d="M6.6827 15.5025C6.5402 15.5025 6.3977 15.45 6.2852 15.3375C6.0677 15.12 6.0677 14.76 6.2852 14.5425L11.1752 9.65248C11.5352 9.29248 11.5352 8.70748 11.1752 8.34748L6.2852 3.45748C6.0677 3.23998 6.0677 2.87998 6.2852 2.66248C6.5027 2.44498 6.86269 2.44498 7.08019 2.66248L11.9702 7.55248C12.3527 7.93498 12.5702 8.45248 12.5702 8.99998C12.5702 9.54748 12.3602 10.065 11.9702 10.4475L7.08019 15.3375C6.96769 15.4425 6.8252 15.5025 6.6827 15.5025Z"/>
</svg>
