<svg width="140" height="42" fill="none" xmlns="http://www.w3.org/2000/svg"><rect x=".474" y=".696" width="138.298" height="40.053" rx="4.526" fill="#000"/><path d="M53.832 28.098h-4.406l-1.07 2.933h-1.935l4.308-10.956h1.828l4.405 10.956h-2.026l-1.104-2.933ZM49.987 26.6h3.281l-1.174-3.138c-.16-.432-.321-.912-.476-1.436a49.03 49.03 0 0 1-.464 1.421L49.987 26.6Zm7.754-1.731c0-.605-.02-1.27-.06-1.999h1.753c.066.343.111.69.136 1.037a3.316 3.316 0 0 1 2.504-1.189 2.828 2.828 0 0 1 2.642 1.714c.308.708.455 1.476.429 2.248a5.592 5.592 0 0 1-.501 2.443 3.5 3.5 0 0 1-1.368 1.533 3.915 3.915 0 0 1-2.03.522 4.98 4.98 0 0 1-1.646-.28v3.38l-1.874.16.015-9.57Zm4.924 4.164c.38-.5.574-1.25.574-2.248 0-.911-.159-1.577-.476-1.999a1.502 1.502 0 0 0-1.252-.614 2.025 2.025 0 0 0-1.002.25 3.75 3.75 0 0 0-.88.686v4.372c.208.097.427.17.652.215.242.052.489.079.736.08a1.948 1.948 0 0 0 1.648-.742Zm3.619-4.164c0-.605-.02-1.27-.06-1.999h1.753a8.2 8.2 0 0 1 .138 1.037c.73-.793 1.565-1.189 2.505-1.189a2.829 2.829 0 0 1 2.642 1.714c.308.708.454 1.476.428 2.248a5.593 5.593 0 0 1-.488 2.443 3.5 3.5 0 0 1-1.37 1.533 3.907 3.907 0 0 1-2.031.522c-.56 0-1.117-.095-1.646-.28v3.38l-1.873.16.002-9.57Zm4.932 4.164c.38-.512.57-1.26.57-2.248 0-.911-.157-1.577-.473-1.999a1.503 1.503 0 0 0-1.252-.614 2.035 2.035 0 0 0-1.002.25 3.755 3.755 0 0 0-.879.686v4.372c.208.097.426.169.651.215.242.052.49.079.737.08a1.952 1.952 0 0 0 1.648-.742Zm5.918 1.481a4.55 4.55 0 0 1-1.866-1.916 6.275 6.275 0 0 1-.651-2.95 6.157 6.157 0 0 1 .751-3.135 4.836 4.836 0 0 1 2.044-1.936 6.41 6.41 0 0 1 2.9-.647 7.61 7.61 0 0 1 1.809.21 7.69 7.69 0 0 1 1.602.57l-.486 1.436a6.664 6.664 0 0 0-2.852-.71 4 4 0 0 0-2.004.5 3.326 3.326 0 0 0-1.34 1.434 5.018 5.018 0 0 0-.475 2.283c-.013.71.111 1.415.365 2.078.23.587.636 1.09 1.162 1.439.6.374 1.298.558 2.004.53a6.68 6.68 0 0 0 1.092-.093 5.485 5.485 0 0 0 1.024-.265v-2.228h-2.54v-1.451h4.361v4.619a9.749 9.749 0 0 1-1.976.671 9.25 9.25 0 0 1-2.059.235 5.831 5.831 0 0 1-2.865-.674Zm13.554.516a7.166 7.166 0 0 1-.13-1.08 3.61 3.61 0 0 1-1.124.873 3.353 3.353 0 0 1-1.566.36 2.956 2.956 0 0 1-1.287-.277 2.11 2.11 0 0 1-.92-.832 2.538 2.538 0 0 1-.342-1.356 2.318 2.318 0 0 1 .859-1.894c.57-.473 1.523-.708 2.857-.707.497 0 .994.035 1.486.105v-.16c0-.719-.154-1.227-.461-1.523a1.852 1.852 0 0 0-1.328-.443 5.258 5.258 0 0 0-1.282.175c-.415.1-.819.239-1.207.415l-.296-1.359c.425-.18.866-.32 1.318-.417a7.755 7.755 0 0 1 1.73-.19 4.518 4.518 0 0 1 1.803.322c.504.223.914.613 1.16 1.104.308.659.451 1.38.418 2.106V29.5c0 .332.02.844.06 1.533l-1.748-.002Zm-1.122-1.498a3 3 0 0 0 .954-.697v-1.499a12.19 12.19 0 0 0-1.252-.082c-.773 0-1.308.125-1.605.374a1.25 1.25 0 0 0-.443 1 1.142 1.142 0 0 0 .323.894c.244.205.557.31.876.292a2.633 2.633 0 0 0 1.147-.282Zm4.258-.46V19.43l1.864-.15v9.46c-.027.263.036.527.177.75a.692.692 0 0 0 .566.217c.17-.008.339-.036.501-.085l.22 1.339a3.204 3.204 0 0 1-.648.17 4.5 4.5 0 0 1-.724.065c-1.304-.009-1.956-.716-1.956-2.124Zm4.661 0V19.43l1.866-.15v9.46a1.18 1.18 0 0 0 .178.75.696.696 0 0 0 .566.217c.17-.008.338-.036.501-.085l.218 1.339a3.22 3.22 0 0 1-.646.17c-.24.041-.483.063-.727.065-1.302-.009-1.954-.716-1.956-2.124Zm10.992-1.883h-5.352c.085 1.71.901 2.565 2.449 2.565a5.278 5.278 0 0 0 1.18-.14 7.076 7.076 0 0 0 1.154-.374l.411 1.279c-.964.453-2.02.68-3.085.664a4.516 4.516 0 0 1-2.199-.5 3.153 3.153 0 0 1-1.348-1.413 5.024 5.024 0 0 1-.451-2.223 5.25 5.25 0 0 1 .479-2.328 3.468 3.468 0 0 1 1.33-1.5 3.74 3.74 0 0 1 1.968-.514 3.313 3.313 0 0 1 1.936.542 3.21 3.21 0 0 1 1.152 1.442c.258.634.386 1.314.376 1.998v.502Zm-1.826-1.186a2.341 2.341 0 0 0-.501-1.464 1.502 1.502 0 0 0-1.174-.5 1.581 1.581 0 0 0-1.188.5c-.353.41-.569.92-.618 1.458l3.481.006Zm3.244-1.083c0-.446-.023-1.13-.063-2.047h1.753c.03.227.058.5.088.811.03.313.045.572.055.77a6.82 6.82 0 0 1 .641-.905c.207-.242.456-.444.736-.596.295-.159.625-.239.96-.233.253-.006.506.025.751.093l-.235 1.618a2.162 2.162 0 0 0-1.754.25c-.414.307-.775.68-1.069 1.104v5.246h-1.863v-6.11Zm5.963 9.45a4.543 4.543 0 0 1-.673-.162l.34-1.361c.158.042.317.076.479.102.18.032.362.049.546.05.834 0 1.455-.532 1.863-1.596l.123-.302-3.018-8.228h2.003l1.533 4.598c.196.592.355 1.195.476 1.806.143-.59.308-1.179.501-1.768l1.528-4.636h1.885l-3.005 8.265a8.527 8.527 0 0 1-.919 1.891 3.21 3.21 0 0 1-1.162 1.064 3.48 3.48 0 0 1-1.621.35 5.146 5.146 0 0 1-.879-.072ZM46.42 9.644h3.332l-.093.804h-2.266v1.557h2.136v.749h-2.136v1.724h2.386l-.082.816H46.42v-5.65Zm5.634 2.768L50.3 9.644h1.112l1.192 2.033 1.252-2.033h1.08l-1.754 2.733 1.896 2.917h-1.127l-1.35-2.223-1.375 2.223h-1.08l1.907-2.882Zm3.744-2.768h1.528c.716 0 1.265.146 1.648.437a1.498 1.498 0 0 1 .57 1.264 1.83 1.83 0 0 1-.25.982c-.17.28-.418.503-.714.644a2.36 2.36 0 0 1-1.051.225 4.27 4.27 0 0 1-.752-.077v2.175h-.98v-5.65Zm2.454 2.523a1.022 1.022 0 0 0 .313-.797.862.862 0 0 0-.318-.75 1.607 1.607 0 0 0-.939-.229h-.53v1.998c.185.034.374.053.563.058a1.31 1.31 0 0 0 .911-.28Zm2.26-2.523h.977v4.816h2.344l-.083.834h-3.238v-5.65Zm4.808 5.373a2.346 2.346 0 0 1-.951-1 3.24 3.24 0 0 1-.329-1.498 3.335 3.335 0 0 1 .351-1.564 2.44 2.44 0 0 1 1.002-1.034 3.14 3.14 0 0 1 1.565-.355 2.937 2.937 0 0 1 1.475.353c.408.23.737.579.945.999.223.461.334.969.323 1.481a3.347 3.347 0 0 1-.353 1.581 2.483 2.483 0 0 1-1.002 1.034 3.134 3.134 0 0 1-1.54.365 2.923 2.923 0 0 1-1.486-.362Zm2.535-.692c.276-.183.49-.444.616-.75.14-.35.21-.724.203-1.101a3.052 3.052 0 0 0-.18-1.087 1.607 1.607 0 0 0-.577-.749 1.945 1.945 0 0 0-2.026 0 1.75 1.75 0 0 0-.62.77 2.617 2.617 0 0 0-.209 1.061c-.006.375.06.748.196 1.1a1.61 1.61 0 0 0 1.595 1.043c.356.009.705-.091 1.002-.287Zm2.935-4.681h1.773a2.36 2.36 0 0 1 1.47.387 1.312 1.312 0 0 1 .501 1.104c.006.274-.056.545-.18.79a1.75 1.75 0 0 1-.446.557c-.166.133-.352.24-.55.314l1.752 2.498h-1.14l-1.474-2.248h-.72v2.248h-.986v-5.65Zm1.535 2.673a1.37 1.37 0 0 0 .629-.138 1.03 1.03 0 0 0 .428-.382c.104-.176.156-.378.153-.582a.713.713 0 0 0-.27-.622 1.32 1.32 0 0 0-.787-.197h-.709v1.93l.556-.01Zm3.549-2.673h3.339l-.096.804h-2.254v1.557h2.117v.749h-2.137v1.724h2.387l-.073.816h-3.283v-5.65Zm6.97 0h.977v5.65h-.977v-5.65Zm3.564.815h-1.753l.085-.815h4.408l-.09.815h-1.67v4.835h-.98V10.46Zm6.986 4.558a2.34 2.34 0 0 1-.95-1 3.207 3.207 0 0 1-.33-1.498 3.334 3.334 0 0 1 .35-1.564 2.453 2.453 0 0 1 1.002-1.034 3.152 3.152 0 0 1 1.556-.365 2.924 2.924 0 0 1 1.49.363c.408.23.737.578.944.999.224.461.336.969.325 1.481a3.32 3.32 0 0 1-.355 1.581 2.468 2.468 0 0 1-1.002 1.034 3.119 3.119 0 0 1-1.54.365 2.923 2.923 0 0 1-1.49-.362Zm2.537-.692c.274-.183.488-.444.613-.75.14-.35.21-.724.203-1.101a3.053 3.053 0 0 0-.18-1.087 1.602 1.602 0 0 0-.574-.749 1.946 1.946 0 0 0-2.028 0 1.749 1.749 0 0 0-.621.77 2.66 2.66 0 0 0-.208 1.061c-.006.376.06.749.195 1.1.12.307.328.573.599.763.296.196.646.293 1.001.28.355.008.703-.093 1-.287Zm2.935-4.681h1.122l2.802 4.379c-.025-.417-.035-.8-.035-1.152V9.644h.907v5.65h-1.087l-2.845-4.448c.027.5.042.951.042 1.344v3.104h-.906v-5.65Z" fill="#fff"/><path fill-rule="evenodd" clip-rule="evenodd" d="M32.646 9.674H22.25c-4.902 0-6.695 1.789-6.695 6.677v10.376c0 4.889 1.793 6.677 6.695 6.677h10.396c4.901 0 6.697-1.789 6.697-6.677V16.351c.005-4.888-1.788-6.677-6.697-6.677Z" fill="#C8102E"/><path d="M20.267 21.539h.63v3.105h-.63v-1.262h-1.425v1.262h-.632v-3.105h.632v1.249h1.425v-1.25Zm3.556 1.776c0 .5-.25.774-.706.774-.456 0-.712-.275-.712-.802V21.54h-.63v1.773c0 .872.485 1.372 1.332 1.372.846 0 1.347-.5 1.347-1.4V21.54h-.63v1.776Zm7.293.357-.706-2.133h-.518l-.702 2.135-.689-2.135h-.67l1.084 3.105h.523l.704-2.039.706 2.039h.529l1.084-3.105h-.656l-.689 2.133Zm2.475-.367h1.15v-.562h-1.15v-.635h1.668v-.57h-2.29v3.098h2.35v-.56H33.59v-.771Zm2.48 1.331h.623V21.54h-.624v3.097Zm-10.37-.642-.283.645h-.643l1.36-3.1h.556l1.365 3.1h-.652l-.267-.642-1.436-.003Zm.236-.56h.95l-.477-1.108-.473 1.109Zm1.515-5.844a3.968 3.968 0 0 1-2.8-1.158 3.946 3.946 0 0 1-1.16-2.791h.559c0 .9.358 1.762.996 2.398a3.405 3.405 0 0 0 4.81 0 3.388 3.388 0 0 0 .996-2.398h.558a3.947 3.947 0 0 1-1.16 2.791 3.968 3.968 0 0 1-2.8 1.158Z" fill="#fff"/><rect x=".474" y=".696" width="138.298" height="40.053" rx="4.526" stroke="#fff" stroke-width=".947"/></svg>