<svg width="140" height="41" fill="none" xmlns="http://www.w3.org/2000/svg"><rect x=".474" y=".474" width="139.053" height="40.053" rx="4.526" fill="#000"/><path d="M31.746 20.668a5.35 5.35 0 0 1 .705-2.585 5.394 5.394 0 0 1 1.874-1.926 5.528 5.528 0 0 0-1.905-1.685 5.573 5.573 0 0 0-2.462-.66c-1.838-.191-3.62 1.092-4.555 1.092-.955 0-2.396-1.073-3.949-1.04a5.846 5.846 0 0 0-2.84.84 5.794 5.794 0 0 0-2.054 2.123c-2.116 3.638-.538 8.985 1.49 11.926 1.014 1.44 2.199 3.048 3.75 2.991 1.518-.062 2.084-.96 3.916-.96 1.815 0 2.347.96 3.93.924 1.628-.026 2.654-1.446 3.633-2.9a11.877 11.877 0 0 0 1.661-3.36 5.224 5.224 0 0 1-2.321-1.913 5.17 5.17 0 0 1-.873-2.867Zm-2.989-8.79a5.27 5.27 0 0 0 1.22-3.792 5.437 5.437 0 0 0-3.51 1.803 5.03 5.03 0 0 0-1.251 3.652c.678.007 1.35-.14 1.963-.427a4.48 4.48 0 0 0 1.578-1.236ZM50.93 28.099h-5.179l-1.243 3.647h-2.194l4.906-13.493h2.279l4.905 13.493h-2.23l-1.243-3.647Zm-4.642-1.683h4.105l-2.024-5.919h-.056l-2.025 5.919ZM65 26.828c0 3.057-1.648 5.02-4.135 5.02a3.378 3.378 0 0 1-1.807-.415 3.346 3.346 0 0 1-1.31-1.305h-.047V35h-2.033V21.909h1.968v1.636h.038a3.51 3.51 0 0 1 1.335-1.303 3.535 3.535 0 0 1 1.819-.436c2.514 0 4.171 1.973 4.171 5.022Zm-2.09 0c0-1.992-1.037-3.301-2.618-3.301-1.554 0-2.6 1.337-2.6 3.3 0 1.983 1.046 3.31 2.6 3.31 1.581 0 2.617-1.3 2.617-3.31Zm12.993 0c0 3.057-1.648 5.02-4.134 5.02a3.376 3.376 0 0 1-1.808-.415 3.346 3.346 0 0 1-1.31-1.305h-.046V35H66.57V21.909h1.969v1.636h.037a3.51 3.51 0 0 1 1.335-1.303 3.535 3.535 0 0 1 1.82-.436c2.514 0 4.17 1.973 4.17 5.022Zm-2.09 0c0-1.992-1.037-3.301-2.618-3.301-1.554 0-2.599 1.337-2.599 3.3 0 1.983 1.045 3.31 2.599 3.31 1.581 0 2.618-1.3 2.618-3.31Zm9.296 1.158c.15 1.338 1.46 2.217 3.248 2.217 1.714 0 2.947-.879 2.947-2.085 0-1.047-.743-1.674-2.504-2.104l-1.761-.421c-2.495-.599-3.654-1.758-3.654-3.638 0-2.328 2.043-3.927 4.944-3.927 2.872 0 4.84 1.6 4.906 3.927h-2.053c-.122-1.346-1.243-2.16-2.881-2.16-1.639 0-2.76.823-2.76 2.02 0 .954.716 1.515 2.468 1.945l1.497.365c2.788.655 3.946 1.767 3.946 3.74 0 2.525-2.025 4.106-5.245 4.106-3.014 0-5.048-1.544-5.18-3.985h2.082ZM95.84 19.58v2.329h1.885v1.599H95.84v5.423c0 .842.377 1.235 1.205 1.235.224-.004.447-.02.67-.047v1.59c-.373.069-.752.1-1.13.093-2.006 0-2.788-.748-2.788-2.656v-5.638h-1.44v-1.6h1.44v-2.327h2.043Zm2.975 7.248c0-3.095 1.836-5.04 4.699-5.04 2.872 0 4.699 1.945 4.699 5.04 0 3.103-1.817 5.04-4.699 5.04-2.881 0-4.699-1.937-4.699-5.04Zm7.326 0c0-2.123-.98-3.377-2.627-3.377-1.648 0-2.627 1.263-2.627 3.377 0 2.131.979 3.375 2.627 3.375 1.647 0 2.627-1.244 2.627-3.375Zm3.749-4.919h1.939v1.674h.047c.131-.523.44-.985.874-1.309a2.375 2.375 0 0 1 1.509-.468c.234-.001.468.024.697.075v1.889a2.863 2.863 0 0 0-.914-.122 2.06 2.06 0 0 0-1.584.647 2.029 2.029 0 0 0-.535 1.616v5.835h-2.033v-9.837Zm14.441 6.947c-.273 1.786-2.025 3.012-4.265 3.012-2.882 0-4.671-1.918-4.671-4.994 0-3.085 1.798-5.086 4.585-5.086 2.741 0 4.464 1.87 4.464 4.852v.692h-6.996v.122a2.55 2.55 0 0 0 .699 1.99 2.586 2.586 0 0 0 1.966.796c.48.045.962-.066 1.375-.315.412-.25.732-.624.912-1.069h1.931Zm-6.874-2.936h4.953a2.347 2.347 0 0 0-.666-1.775 2.377 2.377 0 0 0-1.764-.721 2.527 2.527 0 0 0-1.785.726 2.474 2.474 0 0 0-.738 1.77ZM46.034 8.097a2.906 2.906 0 0 1 2.303.889 2.863 2.863 0 0 1 .769 2.333c0 2.07-1.128 3.261-3.072 3.261h-2.359V8.097h2.359Zm-1.345 5.567h1.231a2.064 2.064 0 0 0 1.636-.658 2.035 2.035 0 0 0 .517-1.674 2.03 2.03 0 0 0-.526-1.664 2.058 2.058 0 0 0-1.627-.655h-1.23v4.65Zm5.561-1.532a2.304 2.304 0 0 1 .597-1.78 2.334 2.334 0 0 1 1.727-.759 2.349 2.349 0 0 1 1.728.76 2.317 2.317 0 0 1 .596 1.779 2.302 2.302 0 0 1-.595 1.782 2.335 2.335 0 0 1-1.729.76 2.348 2.348 0 0 1-1.729-.76 2.314 2.314 0 0 1-.594-1.782Zm3.648 0c0-1.06-.48-1.68-1.322-1.68-.845 0-1.32.62-1.32 1.68 0 1.069.475 1.684 1.32 1.684.842 0 1.322-.62 1.322-1.684Zm7.178 2.448h-1.009l-1.018-3.603h-.077l-1.014 3.603h-1l-1.357-4.892h.986l.882 3.733h.073l1.013-3.733h.933L60.5 13.42h.077l.878-3.733h.972l-1.352 4.892Zm2.494-4.892h.936v.777h.073c.123-.28.331-.513.595-.67.263-.156.57-.226.875-.202a1.612 1.612 0 0 1 1.294.503 1.588 1.588 0 0 1 .412 1.317v3.167h-.973v-2.925c0-.786-.344-1.177-1.063-1.177a1.136 1.136 0 0 0-1.124.763c-.052.154-.07.316-.052.477v2.862h-.973V9.688Zm5.734-1.91h.973v6.802h-.973V7.778Zm2.324 4.354a2.302 2.302 0 0 1 .597-1.78 2.333 2.333 0 0 1 1.727-.759 2.348 2.348 0 0 1 1.727.76 2.314 2.314 0 0 1 .597 1.779 2.304 2.304 0 0 1-.595 1.783 2.334 2.334 0 0 1-1.729.76 2.35 2.35 0 0 1-1.729-.76 2.314 2.314 0 0 1-.595-1.783Zm3.647 0c0-1.06-.48-1.68-1.322-1.68-.845 0-1.32.62-1.32 1.68 0 1.07.475 1.684 1.32 1.684.842 0 1.322-.62 1.322-1.684Zm2.025 1.065c0-.88.66-1.389 1.832-1.46l1.334-.077v-.422c0-.517-.344-.809-1.008-.809-.543 0-.92.198-1.027.544h-.941c.099-.84.895-1.38 2.013-1.38 1.235 0 1.931.611 1.931 1.645v3.342H80.5v-.687h-.077a1.654 1.654 0 0 1-1.48.768 1.497 1.497 0 0 1-1.149-.37 1.479 1.479 0 0 1-.494-1.094Zm3.166-.418v-.41l-1.203.077c-.678.045-.986.274-.986.706 0 .44.385.696.914.696a1.17 1.17 0 0 0 1.153-.626c.07-.138.112-.289.122-.443Zm2.246-.647c0-1.546.8-2.525 2.046-2.525a1.633 1.633 0 0 1 1.51.858h.073V7.778h.973v6.802h-.932v-.773h-.077a1.704 1.704 0 0 1-1.547.854c-1.254 0-2.046-.98-2.046-2.53Zm1.005 0c0 1.038.493 1.662 1.316 1.662.82 0 1.326-.633 1.326-1.658 0-1.02-.511-1.662-1.326-1.662-.818 0-1.316.629-1.316 1.658Zm7.62 0a2.302 2.302 0 0 1 .596-1.78 2.335 2.335 0 0 1 1.727-.759 2.348 2.348 0 0 1 1.728.76 2.316 2.316 0 0 1 .596 1.779 2.302 2.302 0 0 1-.595 1.782 2.334 2.334 0 0 1-1.729.76 2.348 2.348 0 0 1-1.729-.76 2.315 2.315 0 0 1-.594-1.782Zm3.647 0c0-1.06-.48-1.68-1.322-1.68-.845 0-1.32.62-1.32 1.68 0 1.069.475 1.684 1.32 1.684.842 0 1.322-.62 1.322-1.684Zm2.305-2.444h.936v.777h.072a1.471 1.471 0 0 1 1.471-.872 1.614 1.614 0 0 1 1.293.503 1.58 1.58 0 0 1 .412 1.317v3.167h-.972v-2.925c0-.786-.344-1.177-1.064-1.177a1.136 1.136 0 0 0-1.123.763 1.12 1.12 0 0 0-.053.477v2.862h-.972V9.688Zm9.678-1.218v1.24h1.068v.813h-1.068v2.516c0 .513.213.737.697.737.124 0 .247-.008.371-.022v.804a3.221 3.221 0 0 1-.529.05c-1.082 0-1.512-.378-1.512-1.322v-2.763h-.783V9.71h.783V8.47h.973Zm2.396-.692h.964v2.696h.077c.129-.282.342-.517.611-.674.269-.157.58-.227.891-.202a1.633 1.633 0 0 1 1.28.515 1.612 1.612 0 0 1 .417 1.309v3.158h-.974v-2.92c0-.782-.366-1.178-1.053-1.178a1.163 1.163 0 0 0-.911.334 1.145 1.145 0 0 0-.33.907v2.857h-.972V7.778Zm9.91 5.482a1.988 1.988 0 0 1-.809 1.092 2.01 2.01 0 0 1-1.326.323 2.256 2.256 0 0 1-1.727-.74 2.21 2.21 0 0 1-.549-1.786 2.24 2.24 0 0 1 .548-1.792 2.28 2.28 0 0 1 1.724-.764c1.37 0 2.198.93 2.198 2.467v.337h-3.48v.054a1.292 1.292 0 0 0 .784 1.297c.167.07.347.106.529.104a1.184 1.184 0 0 0 1.172-.593h.936Zm-3.421-1.577h2.489a1.173 1.173 0 0 0-.324-.9 1.186 1.186 0 0 0-.889-.368 1.27 1.27 0 0 0-.907.367 1.244 1.244 0 0 0-.369.9Z" fill="#fff"/><rect x=".474" y=".474" width="139.053" height="40.053" rx="4.526" stroke="#fff" stroke-width=".947"/></svg>