<svg width="140" height="41" fill="none" xmlns="http://www.w3.org/2000/svg"><rect x=".474" y=".474" width="138.298" height="40.053" rx="4.526" fill="#000"/><path d="M73.306 15.437c-.85 0-1.568-.299-2.135-.887a3.029 3.029 0 0 1-.863-2.166c0-.86.29-1.587.862-2.163.565-.589 1.283-.888 2.134-.888.841 0 1.559.3 2.135.888.572.595.863 1.323.863 2.163-.01.862-.3 1.589-.863 2.163-.565.593-1.282.89-2.133.89Zm-25.32 0a2.96 2.96 0 0 1-2.145-.876c-.586-.579-.884-1.31-.884-2.175 0-.863.298-1.595.884-2.175.579-.581 1.3-.875 2.145-.875.412 0 .813.082 1.198.25.377.162.684.383.912.654l.056.068-.635.626-.066-.078c-.359-.428-.84-.637-1.475-.637-.567 0-1.062.202-1.47.602-.41.403-.618.93-.618 1.568s.208 1.165.619 1.568c.407.4.902.602 1.47.602.604 0 1.113-.202 1.51-.602.234-.236.379-.566.43-.982H47.88v-.88h2.912l.012.08c.02.148.042.3.042.442 0 .812-.244 1.469-.727 1.954-.548.574-1.266.866-2.133.866Zm33.666-.125h-.898l-2.75-4.418.023.796v3.62h-.897V9.46h1.024l.028.045 2.586 4.162-.024-.793V9.46h.908v5.852Zm-15.093 0h-.91v-4.971h-1.577v-.88h4.063v.88h-1.578v4.971h.002Zm-3.228 0h-.907V9.46h.907v5.852Zm-5.099 0h-.907v-4.971h-1.577v-.88h4.062v.88h-1.578v4.971Zm-3.059-.01h-3.479V9.46h3.48v.88h-2.57v1.606h2.319v.871h-2.319v1.606h2.57v.88Zm16.663-1.357c.406.407.898.612 1.47.612.588 0 1.07-.2 1.47-.612.398-.4.6-.925.6-1.559 0-.633-.202-1.16-.598-1.558a2.007 2.007 0 0 0-1.47-.612c-.588 0-1.069.2-1.467.612-.399.4-.6.925-.6 1.558 0 .634.2 1.16.595 1.559Z" fill="#fff"/><path fill-rule="evenodd" clip-rule="evenodd" d="M70.224 23.483c-2.216 0-4.011 1.688-4.011 4.016 0 2.306 1.807 4.016 4.01 4.016 2.216 0 4.012-1.7 4.012-4.016 0-2.328-1.796-4.016-4.011-4.016Zm0 6.44c-1.213 0-2.256-1.007-2.256-2.434 0-1.447 1.046-2.434 2.255-2.434 1.213 0 2.256.987 2.256 2.434.002 1.436-1.043 2.434-2.255 2.434Zm-8.752-6.44c-2.215 0-4.01 1.688-4.01 4.016 0 2.306 1.807 4.016 4.01 4.016 2.216 0 4.011-1.7 4.011-4.016 0-2.328-1.798-4.016-4.01-4.016Zm0 6.44c-1.212 0-2.255-1.007-2.255-2.434 0-1.447 1.046-2.434 2.255-2.434 1.212 0 2.256.987 2.256 2.434 0 1.436-1.044 2.434-2.256 2.434ZM51.06 24.71v1.7h4.063c-.124.953-.439 1.657-.92 2.14-.595.597-1.514 1.247-3.133 1.247-2.497 0-4.45-2.024-4.45-4.531 0-2.507 1.953-4.532 4.45-4.532 1.347 0 2.33.535 3.059 1.218l1.2-1.206c-1.013-.974-2.36-1.72-4.25-1.72-3.425 0-6.3 2.8-6.3 6.23 0 3.44 2.873 6.231 6.3 6.231 1.85 0 3.237-.607 4.334-1.751 1.119-1.123 1.473-2.707 1.473-3.985 0-.398-.03-.756-.094-1.06h-5.734c.002-.002.002.02.002.02Zm42.593 1.323c-.335-.901-1.348-2.558-3.425-2.558-2.058 0-3.77 1.626-3.77 4.015 0 2.255 1.693 4.016 3.97 4.016 1.828 0 2.892-1.123 3.33-1.782L92.4 28.81c-.45.67-1.076 1.11-1.964 1.11-.898 0-1.526-.409-1.944-1.216l5.348-2.225c0 .003-.188-.447-.188-.447ZM88.2 27.374c-.042-1.551 1.2-2.34 2.09-2.34.7 0 1.284.346 1.483.85l-3.573 1.49Zm-4.343 3.89h1.755V19.468h-1.755v11.798Zm-2.884-6.889h-.063c-.397-.473-1.149-.901-2.11-.901-1.995 0-3.833 1.762-3.833 4.027 0 2.255 1.829 3.997 3.833 3.997.95 0 1.713-.43 2.11-.913h.063v.576c0 1.533-.816 2.359-2.13 2.359-1.077 0-1.745-.777-2.017-1.427l-1.526.64c.438 1.06 1.608 2.371 3.54 2.371 2.058 0 3.802-1.217 3.802-4.185v-7.205h-1.66v.661h-.009Zm-2.016 5.548c-1.212 0-2.225-1.017-2.225-2.422 0-1.417 1.013-2.443 2.225-2.443 1.2 0 2.13 1.038 2.13 2.443.013 1.405-.927 2.422-2.13 2.422Zm22.918-10.456h-4.2v11.798h1.757v-4.468h2.445c1.943 0 3.854-1.415 3.854-3.66 0-2.246-1.904-3.67-3.856-3.67Zm.051 5.682H99.43v-4.048h2.496c1.315 0 2.058 1.09 2.058 2.024 0 .925-.752 2.024-2.058 2.024Zm10.842-1.687c-1.275 0-2.59.567-3.134 1.803l1.557.65c.335-.65.949-.871 1.598-.871.91 0 1.829.546 1.85 1.52v.125c-.314-.179-1.003-.452-1.828-.452-1.681 0-3.386.923-3.386 2.653 0 1.584 1.379 2.6 2.914 2.6 1.18 0 1.829-.533 2.234-1.152h.064v.913h1.692v-4.52c0-2.104-1.556-3.27-3.561-3.27Zm-.22 6.461c-.574 0-1.378-.282-1.378-1.007 0-.914 1.003-1.26 1.859-1.26.773 0 1.139.168 1.598.398a2.116 2.116 0 0 1-2.079 1.87Zm9.956-6.21-2.016 5.118h-.063l-2.089-5.117h-1.889l3.134 7.153-1.787 3.976h1.829l4.822-11.13h-1.941Zm-15.805 7.552h1.756V19.467h-1.756v11.798Z" fill="#fff"/><path fill-rule="evenodd" clip-rule="evenodd" d="M15.984 10.058c-.272.294-.429.744-.429 1.333v20.872c0 .588.157 1.038.439 1.32l.072.064 11.647-11.694v-.262L16.057 9.995l-.073.063Z" fill="url(#a)"/><path fill-rule="evenodd" clip-rule="evenodd" d="m31.588 25.863-3.885-3.9v-.274l3.885-3.9.084.051 4.595 2.623c1.315.744 1.315 1.972 0 2.726l-4.595 2.622-.084.052Z" fill="url(#b)"/><path fill-rule="evenodd" clip-rule="evenodd" d="m31.672 25.81-3.969-3.984-11.719 11.767c.43.461 1.15.513 1.953.063l13.735-7.845Z" fill="url(#c)"/><path fill-rule="evenodd" clip-rule="evenodd" d="m31.672 17.84-13.735-7.833c-.804-.462-1.526-.398-1.953.063l11.72 11.756 3.968-3.986Z" fill="url(#d)"/><path opacity=".2" fill-rule="evenodd" clip-rule="evenodd" d="m31.588 25.726-13.641 7.782c-.762.44-1.442.41-1.88.01l-.073.073.073.063c.438.398 1.118.431 1.88-.01l13.735-7.833-.094-.085Z" fill="#000"/><path opacity=".12" fill-rule="evenodd" clip-rule="evenodd" d="m36.267 23.052-4.69 2.674.084.085 4.594-2.622c.66-.377.983-.871.983-1.363-.04.452-.376.88-.97 1.226Z" fill="#000"/><path opacity=".25" fill-rule="evenodd" clip-rule="evenodd" d="M17.937 10.143 36.267 20.6c.595.337.93.777.982 1.227 0-.492-.324-.986-.982-1.363l-18.33-10.456c-1.315-.756-2.382-.125-2.382 1.384v.136c0-1.51 1.067-2.13 2.382-1.384Z" fill="#fff"/><rect x=".474" y=".474" width="138.298" height="40.053" rx="4.526" stroke="#fff" stroke-width=".947"/><defs><linearGradient id="a" x1="26.668" y1="11.165" x2="8.002" y2="16.119" gradientUnits="userSpaceOnUse"><stop stop-color="#00A0FF"/><stop offset=".007" stop-color="#00A1FF"/><stop offset=".26" stop-color="#00BEFF"/><stop offset=".512" stop-color="#00D2FF"/><stop offset=".76" stop-color="#00DFFF"/><stop offset="1" stop-color="#00E3FF"/></linearGradient><linearGradient id="b" x1="37.982" y1="21.826" x2="15.235" y2="21.826" gradientUnits="userSpaceOnUse"><stop stop-color="#FFE000"/><stop offset=".409" stop-color="#FFBD00"/><stop offset=".775" stop-color="orange"/><stop offset="1" stop-color="#FF9C00"/></linearGradient><linearGradient id="c" x1="29.514" y1="23.994" x2="14.447" y2="49.25" gradientUnits="userSpaceOnUse"><stop stop-color="#FF3A44"/><stop offset="1" stop-color="#C31162"/></linearGradient><linearGradient id="d" x1="13.033" y1="3.116" x2="19.756" y2="14.396" gradientUnits="userSpaceOnUse"><stop stop-color="#32A071"/><stop offset=".069" stop-color="#2DA771"/><stop offset=".476" stop-color="#15CF74"/><stop offset=".801" stop-color="#06E775"/><stop offset="1" stop-color="#00F076"/></linearGradient></defs></svg>