<svg width="140" height="16" fill="none" xmlns="http://www.w3.org/2000/svg"><g clip-path="url(#a)" fill-rule="evenodd" clip-rule="evenodd"><path d="M53.698 12.089c.75-.689.774-1.71.774-2.399V1.12h3.096v8.924c0 1.16-.188 2.457-1.43 3.519-1.643 1.415-4.199 1.474-5.7 1.474-1.501 0-4.057-.059-5.7-1.474-1.242-1.062-1.43-2.36-1.43-3.519V1.12h3.096v8.57c0 .767.023 1.69.797 2.399.868.786 2.275.884 3.237.884.891 0 2.416-.098 3.26-.884Zm6.215 2.79V3.185c0-.511 0-1.061.563-1.533.54-.452 1.29-.53 1.853-.53h7.81c.868 0 2.251 0 3.26.825 1.126.904 1.243 2.457 1.243 3.617 0 1.12-.14 2.889-1.43 3.774-.61.413-1.549.668-2.51.668H63.01v4.875h-3.097Zm8.983-6.938c.68 0 1.478 0 2.017-.511.492-.472.54-1.356.54-1.887 0-.61-.071-1.435-.587-1.887-.54-.452-1.408-.472-1.923-.472h-4.995c-.212 0-.493-.02-.727.177-.211.176-.211.413-.211.649v3.93h5.886Zm9.733 6.939c-.539 0-1.149-.099-1.524-.354a1.362 1.362 0 0 1-.587-1.14V1.12h3.096v10.95c0 .157-.023.413.212.59.093.058.281.157.774.157h9.006v2.064H78.629Zm25.472-12.463c1.712 1.376 1.876 3.775 1.876 5.583 0 1.808-.188 4.207-1.876 5.582-1.783 1.455-4.644 1.455-6.544 1.455-1.946 0-4.737 0-6.544-1.455-1.899-1.532-1.899-4.03-1.899-5.582 0-1.867.117-4.167 1.9-5.583C92.844.963 95.564.963 97.557.963c1.947 0 4.738 0 6.544 1.454Zm-10.789 9.416c.962 1.042 2.51 1.14 4.221 1.14 1.689 0 3.26-.098 4.246-1.14.539-.57 1.008-1.612 1.008-3.833 0-2.379-.493-3.322-1.008-3.853-.961-1.002-2.58-1.12-4.246-1.12-1.711 0-3.26.117-4.22 1.12-.634.668-1.01 1.75-1.01 3.853 0 2.24.47 3.263 1.01 3.833Zm19.091-9.317c.587-1.16 1.22-1.553 2.698-1.553 1.407 0 2.111.393 2.697 1.553l6.192 12.364h-3.26l-1.689-3.48h-7.904l-1.665 3.48h-3.26l6.191-12.364Zm-.469 7.037h6.309L115.57 3.95c-.094-.197-.258-.57-.469-.57-.212 0-.375.373-.469.57l-2.698 5.602Zm15.27 5.327c-1.22 0-1.712-.295-1.83-.374-.305-.196-.68-.61-.68-1.376V3.322c0-.511.023-1.102.563-1.612.235-.216.774-.59 1.759-.59h6.426c2.275 0 3.823.727 4.808 1.632 1.595 1.474 1.665 3.44 1.665 5.09 0 1.495-.117 3.853-1.454 5.347-.656.727-2.017 1.69-4.597 1.69h-6.66Zm.587-3.008c0 .276-.025.53.21.747.211.197.516.197.797.197h3.566c1.713 0 2.836-.315 3.541-1.278.399-.53.821-1.553.821-3.892 0-1.18-.117-2.555-1.15-3.46-.937-.825-2.415-1.002-3.518-1.002h-3.212c-.188 0-.517 0-.728.138a.823.823 0 0 0-.327.688v7.863ZM99.463 7.688l-2.736-1.681-.046-.028a.347.347 0 0 0-.151-.034.249.249 0 0 0-.277.206V9.7a.25.25 0 0 0 .276.205.342.342 0 0 0 .157-.036l.038-.023 2.74-1.683a.255.255 0 0 0 .109-.097.26.26 0 0 0 0-.281.255.255 0 0 0-.11-.097Z" fill="#fff"/><path d="M12.562 13.386c-.468 1.042-.89 1.651-2.343 1.651-1.57 0-1.946-.786-2.344-1.651L3.68 4.206c-.07-.156-.258-.451-.399-.451-.258 0-.258.354-.258.413l.07 10.712H0V2.771C0 .982 2.18.963 2.648.963c1.899 0 2.438.806 2.883 1.769l4.242 9.179c.14.295.305.511.446.511.14 0 .304-.216.445-.511l4.242-9.18C15.61 1.18 16.617.964 17.79.964c1.524 0 2.648.55 2.648 1.808V14.88h-3.094l.094-10.713c0-.374-.187-.413-.281-.413-.164 0-.328.295-.398.452l-4.196 9.18Zm10.22 1.494V1.12h3.093v13.76h-3.093Zm16.242 0-4.383-5.151-4.383 5.15h-3.68l6.305-6.978-6.117-6.78h3.68l4.195 4.953 4.195-4.954h3.68l-6.117 6.781 6.305 6.979h-3.68Z" fill="#E81943"/></g><defs><clipPath id="a"><path fill="#fff" transform="translate(0 .963)" d="M0 0h140v14.074H0z"/></clipPath></defs></svg>