<svg width="170" height="120" fill="none" xmlns="http://www.w3.org/2000/svg"><circle cx="85" cy="23" r="23" fill="#E81943"/><path fill-rule="evenodd" clip-rule="evenodd" d="M87.752 29.006C87.202 30.264 86.706 31 85 31c-1.844 0-2.284-.95-2.752-1.994L77.32 17.918c-.083-.19-.303-.546-.468-.546-.303 0-.303.428-.303.499l.083 12.94H73V16.184C73 14.024 75.56 14 76.11 14c2.23 0 2.862.973 3.385 2.137l4.982 11.087c.165.356.358.617.523.617.165 0 .358-.26.523-.617l4.982-11.087C91.33 14.26 92.514 14 93.89 14c1.79 0 3.11.665 3.11 2.184V30.81h-3.633l.11-12.94c0-.451-.22-.499-.33-.499-.193 0-.386.357-.468.547l-4.927 11.088Z" fill="#fff"/><g clip-path="url(#a)" fill-rule="evenodd" clip-rule="evenodd"><path d="M65.204 81.51c.912-.836.94-2.077.94-2.912V68.19h3.76v10.836c0 1.41-.228 2.984-1.738 4.273-1.994 1.718-5.097 1.79-6.92 1.79-1.823 0-4.927-.071-6.92-1.79-1.51-1.29-1.738-2.864-1.738-4.273V68.191h3.76v10.407c0 .93.028 2.052.968 2.912 1.053.954 2.762 1.074 3.93 1.074 1.082 0 2.933-.12 3.958-1.074Zm7.547 3.389V70.697c0-.62 0-1.289.684-1.862.655-.549 1.567-.644 2.25-.644h9.484c1.053 0 2.733 0 3.958 1.002 1.367 1.098 1.51 2.984 1.51 4.392 0 1.36-.171 3.509-1.738 4.584-.74.5-1.88.81-3.047.81h-9.34v5.92h-3.76Zm10.908-8.426c.826 0 1.794 0 2.45-.62.597-.573.654-1.647.654-2.292 0-.74-.085-1.742-.712-2.291-.655-.55-1.71-.573-2.335-.573H77.65c-.256 0-.598-.024-.882.215-.257.214-.257.501-.257.787v4.774h7.148Zm11.82 8.426c-.656 0-1.396-.12-1.852-.43a1.655 1.655 0 0 1-.712-1.384V68.191h3.76v13.294c0 .192-.03.502.256.717.114.071.341.19.94.19h10.936V84.9H95.478Zm30.929-15.133c2.079 1.67 2.278 4.583 2.278 6.779 0 2.195-.228 5.108-2.278 6.779-2.165 1.766-5.639 1.766-7.946 1.766-2.364 0-5.753 0-7.946-1.766-2.306-1.862-2.306-4.893-2.306-6.78 0-2.267.142-5.06 2.307-6.778C112.738 68 116.042 68 118.462 68c2.364 0 5.753 0 7.946 1.766ZM113.307 81.2c1.168 1.266 3.048 1.385 5.126 1.385 2.05 0 3.959-.12 5.155-1.385.655-.692 1.225-1.957 1.225-4.654 0-2.888-.599-4.034-1.225-4.679-1.167-1.217-3.133-1.36-5.155-1.36-2.078 0-3.958.143-5.126 1.36-.769.812-1.224 2.125-1.224 4.679 0 2.721.57 3.962 1.225 4.654h-.001Zm23.182-11.313c.713-1.41 1.482-1.886 3.276-1.886 1.709 0 2.563.477 3.275 1.886l7.519 15.013H146.6l-2.051-4.225h-9.597l-2.021 4.225h-3.959l7.517-15.013Zm-.569 8.545h7.661l-3.246-6.803c-.114-.239-.314-.692-.57-.692-.257 0-.456.453-.57.692l-3.275 6.803Zm18.541 6.468c-1.481 0-2.079-.358-2.221-.454-.371-.238-.826-.74-.826-1.67v-11.91c0-.621.028-1.338.684-1.958.284-.263.94-.716 2.135-.716h7.803c2.763 0 4.643.883 5.839 1.981 1.937 1.79 2.021 4.177 2.021 6.182 0 1.814-.142 4.678-1.765 6.492-.797.883-2.449 2.053-5.582 2.053h-8.088Zm.713-3.652c0 .334-.029.644.255.907.257.239.627.239.969.239h4.329c2.08 0 3.445-.382 4.3-1.552.485-.644.998-1.885.998-4.725 0-1.433-.143-3.104-1.397-4.201-1.137-1.003-2.933-1.218-4.272-1.218h-3.901c-.228 0-.627 0-.883.168a.995.995 0 0 0-.3.369.99.99 0 0 0-.098.466v9.547Zm-34.398-5.081-3.322-2.041-.055-.034a.423.423 0 0 0-.185-.041.3.3 0 0 0-.335.25v4.309a.3.3 0 0 0 .335.25.415.415 0 0 0 .19-.044l.046-.028 3.326-2.044a.303.303 0 0 0 .133-.118.315.315 0 0 0-.133-.46Z" fill="#000"/><path d="M15.254 83.085c-.57 1.265-1.081 2.005-2.845 2.005-1.908 0-2.363-.955-2.847-2.005L4.468 71.94c-.085-.19-.313-.549-.484-.549-.313 0-.313.43-.313.501L3.757 84.9H0V70.196C0 68.024 2.647 68 3.216 68c2.305 0 2.96.978 3.5 2.148l5.151 11.146c.171.358.37.62.541.62.171 0 .37-.262.541-.62L18.1 70.148C18.954 68.263 20.178 68 21.6 68c1.851 0 3.217.668 3.217 2.196v14.703H21.06l.114-13.009c0-.453-.228-.5-.342-.5-.199 0-.398.357-.483.548l-5.095 11.147Zm12.41 1.814V68.19h3.756v16.708h-3.757Zm19.722 0-5.322-6.255-5.322 6.255h-4.468l7.656-8.474-7.428-8.234h4.468l5.094 6.015 5.094-6.015h4.469l-7.428 8.234 7.655 8.474h-4.468Z" fill="#E81943"/></g><path d="M31.26 107.09c-.38 0-.76-.013-1.14-.04a7.52 7.52 0 0 1-1.17-.16v-6.72c.32-.06.67-.103 1.05-.13.38-.033.733-.05 1.06-.05.44 0 .843.033 1.21.1.373.06.693.167.96.32.266.153.473.357.62.61.153.247.23.553.23.92 0 .553-.267.99-.8 1.31.44.167.74.393.9.68.16.287.24.61.24.97 0 .727-.267 1.273-.8 1.64-.527.367-1.314.55-2.36.55Zm-.79-3.11v1.79c.113.013.236.023.37.03.133.007.28.01.44.01.466 0 .843-.067 1.13-.2.286-.133.43-.38.43-.74 0-.32-.12-.547-.36-.68-.24-.14-.584-.21-1.03-.21h-.98Zm0-1.19h.76c.48 0 .823-.06 1.03-.18.206-.127.31-.327.31-.6 0-.28-.107-.477-.32-.59-.214-.113-.527-.17-.94-.17-.134 0-.277.003-.43.01-.154 0-.29.007-.41.02v1.51Zm5.198 4.21v-6.93h4.68v1.31h-3.12v1.36h2.77v1.28h-2.77v1.67h3.35V107h-4.91Zm7.955-1.19c.22 0 .4-.017.54-.05.146-.04.263-.09.35-.15a.532.532 0 0 0 .18-.23.8.8 0 0 0 .05-.29c0-.227-.107-.413-.32-.56-.214-.153-.58-.317-1.1-.49a9.621 9.621 0 0 1-.68-.27 2.748 2.748 0 0 1-.61-.39 1.95 1.95 0 0 1-.44-.57 1.81 1.81 0 0 1-.17-.82c0-.32.06-.607.18-.86.12-.26.29-.48.51-.66.22-.18.486-.317.8-.41.313-.1.666-.15 1.06-.15.466 0 .87.05 1.21.15.34.1.62.21.84.33l-.45 1.23c-.194-.1-.41-.187-.65-.26a2.637 2.637 0 0 0-.85-.12c-.374 0-.644.053-.81.16-.16.1-.24.257-.24.47 0 .127.03.233.09.32a.95.95 0 0 0 .25.24c.113.067.24.13.38.19.146.053.306.11.48.17.36.133.673.267.94.4.266.127.486.277.66.45.18.173.313.377.4.61.086.233.13.517.13.85 0 .647-.227 1.15-.68 1.51-.454.353-1.137.53-2.05.53-.307 0-.584-.02-.83-.06a5.035 5.035 0 0 1-.66-.13 4.086 4.086 0 0 1-.49-.17 4.136 4.136 0 0 1-.34-.17l.44-1.24c.206.113.46.217.76.31.306.087.68.13 1.12.13Zm8.875-5.74v1.33h-2.09v5.6h-1.56v-5.6h-2.09v-1.33h5.74Zm8.055.74c.08.273.166.583.26.93l.31 1.06.34 1.1c.113.367.223.707.33 1.02.086-.34.173-.71.26-1.11.093-.4.18-.813.26-1.24.08-.427.156-.85.23-1.27.08-.427.153-.837.22-1.23h1.62a68.152 68.152 0 0 1-.81 3.53 49.357 49.357 0 0 1-.98 3.4h-1.43c-.234-.64-.46-1.31-.68-2.01a259.74 259.74 0 0 1-.65-2.12l-.64 2.12c-.214.7-.437 1.37-.67 2.01h-1.43a53.381 53.381 0 0 1-.99-3.4c-.3-1.193-.567-2.37-.8-3.53h1.69a73.207 73.207 0 0 0 .47 2.5c.086.427.173.84.26 1.24.093.4.186.77.28 1.11.12-.327.236-.673.35-1.04a67.5 67.5 0 0 0 .33-1.1c.106-.367.203-.72.29-1.06l.25-.91h1.33Zm4.832 6.19v-6.93h4.68v1.31h-3.12v1.36h2.77v1.28h-2.77v1.67h3.35V107h-4.91Zm8.374.09c-.38 0-.76-.013-1.14-.04a7.52 7.52 0 0 1-1.17-.16v-6.72c.32-.06.67-.103 1.05-.13.38-.033.734-.05 1.06-.05.44 0 .844.033 1.21.1.374.06.694.167.96.32.267.153.474.357.62.61.154.247.23.553.23.92 0 .553-.266.99-.8 1.31.44.167.74.393.9.68.16.287.24.61.24.97 0 .727-.266 1.273-.8 1.64-.526.367-1.313.55-2.36.55Zm-.79-3.11v1.79c.114.013.237.023.37.03.134.007.28.01.44.01.467 0 .844-.067 1.13-.2.287-.133.43-.38.43-.74 0-.32-.12-.547-.36-.68-.24-.14-.583-.21-1.03-.21h-.98Zm0-1.19h.76c.48 0 .824-.06 1.03-.18.207-.127.31-.327.31-.6 0-.28-.106-.477-.32-.59-.213-.113-.526-.17-.94-.17-.133 0-.276.003-.43.01-.153 0-.29.007-.41.02v1.51Zm7.09 3.02c.22 0 .4-.017.54-.05.146-.04.263-.09.35-.15a.534.534 0 0 0 .18-.23.803.803 0 0 0 .05-.29c0-.227-.108-.413-.32-.56-.214-.153-.58-.317-1.1-.49a9.583 9.583 0 0 1-.68-.27 2.745 2.745 0 0 1-.61-.39c-.18-.16-.328-.35-.44-.57a1.81 1.81 0 0 1-.17-.82c0-.32.06-.607.18-.86.12-.26.29-.48.51-.66.22-.18.486-.317.8-.41.313-.1.666-.15 1.06-.15.466 0 .87.05 1.21.15.34.1.62.21.84.33l-.45 1.23c-.194-.1-.41-.187-.65-.26a2.638 2.638 0 0 0-.85-.12c-.374 0-.644.053-.81.16-.16.1-.24.257-.24.47 0 .127.03.233.09.32s.142.167.25.24c.112.067.24.13.38.19.146.053.306.11.48.17.36.133.672.267.94.4.266.127.486.277.66.45.18.173.313.377.4.61.086.233.13.517.13.85 0 .647-.228 1.15-.68 1.51-.454.353-1.137.53-2.05.53-.308 0-.584-.02-.83-.06a5.028 5.028 0 0 1-.66-.13 4.08 4.08 0 0 1-.49-.17 4.104 4.104 0 0 1-.34-.17l.44-1.24c.206.113.46.217.76.31.306.087.68.13 1.12.13Zm3.93-5.74h1.56V107h-1.56v-6.93Zm8.303 0v1.33h-2.09v5.6h-1.56v-5.6h-2.09v-1.33h5.74Zm1.003 6.93v-6.93h4.68v1.31h-3.12v1.36h2.77v1.28h-2.77v1.67h3.35V107h-4.91Zm8.467 0v-6.93h4.64v1.31h-3.08v1.45h2.74v1.31h-2.74V107h-1.56Zm6.974-3.47c0 .34.04.647.12.92.087.273.207.51.36.71.16.193.353.343.58.45.227.107.487.16.78.16.287 0 .543-.053.77-.16.233-.107.427-.257.58-.45.16-.2.28-.437.36-.71.087-.273.13-.58.13-.92 0-.34-.043-.647-.13-.92-.08-.28-.2-.517-.36-.71a1.513 1.513 0 0 0-.58-.46 1.782 1.782 0 0 0-.77-.16c-.293 0-.553.057-.78.17-.227.107-.42.26-.58.46-.153.193-.273.43-.36.71-.08.273-.12.577-.12.91Zm5.29 0c0 .593-.09 1.117-.27 1.57a3.212 3.212 0 0 1-.72 1.13c-.307.3-.673.527-1.1.68-.42.153-.873.23-1.36.23-.473 0-.92-.077-1.34-.23a3.109 3.109 0 0 1-1.1-.68 3.269 3.269 0 0 1-.74-1.13c-.18-.453-.27-.977-.27-1.57 0-.593.093-1.113.28-1.56.187-.453.437-.833.75-1.14.32-.307.687-.537 1.1-.69.42-.153.86-.23 1.32-.23.473 0 .92.077 1.34.23.42.153.787.383 1.1.69.313.307.56.687.74 1.14.18.447.27.967.27 1.56Zm3.33-3.54c1.04 0 1.837.187 2.39.56.554.367.83.94.83 1.72 0 .487-.113.883-.34 1.19-.22.3-.54.537-.96.71.14.173.287.373.44.6.154.22.304.453.45.7.154.24.3.493.44.76.14.26.27.517.39.77h-1.75a52.188 52.188 0 0 0-.39-.69c-.126-.233-.26-.46-.4-.68-.133-.22-.266-.427-.4-.62-.133-.2-.266-.38-.4-.54h-.77V107h-1.56v-6.83c.34-.067.69-.113 1.05-.14.367-.027.694-.04.98-.04Zm.09 1.33c-.113 0-.216.003-.31.01l-.25.02v1.88h.44c.587 0 1.007-.073 1.26-.22.254-.147.38-.397.38-.75 0-.34-.13-.58-.39-.72-.253-.147-.63-.22-1.13-.22Zm8.513 4.41c.073.007.156.013.25.02h.35c.78 0 1.356-.197 1.73-.59.38-.393.57-.937.57-1.63 0-.727-.18-1.277-.54-1.65-.36-.373-.93-.56-1.71-.56-.107 0-.217.003-.33.01-.114 0-.22.007-.32.02v4.38Zm4.51-2.2c0 .6-.094 1.123-.28 1.57a2.89 2.89 0 0 1-.8 1.11c-.34.293-.757.513-1.25.66a5.811 5.811 0 0 1-1.66.22c-.28 0-.607-.013-.98-.04a7.552 7.552 0 0 1-1.1-.14v-6.75c.36-.067.733-.11 1.12-.13.393-.027.73-.04 1.01-.04.593 0 1.13.067 1.61.2a3.3 3.3 0 0 1 1.25.63c.346.287.613.653.8 1.1.186.447.28.983.28 1.61Zm4.858 1.14c0 .34-.04.66-.12.96a1.88 1.88 0 0 1-.4.79c-.186.22-.443.397-.77.53-.32.127-.726.19-1.22.19-.453 0-.843-.053-1.17-.16a3.398 3.398 0 0 1-.81-.39l.52-1.21c.194.113.4.213.62.3.22.087.46.13.72.13.38 0 .654-.093.82-.28.167-.187.25-.5.25-.94v-4.52h1.56v4.6Zm3.393 1.14c.22 0 .4-.017.54-.05.147-.04.264-.09.35-.15a.528.528 0 0 0 .18-.23.788.788 0 0 0 .05-.29c0-.227-.106-.413-.32-.56-.213-.153-.58-.317-1.1-.49a9.796 9.796 0 0 1-.68-.27 2.762 2.762 0 0 1-.61-.39 1.96 1.96 0 0 1-.44-.57c-.113-.227-.17-.5-.17-.82 0-.32.06-.607.18-.86.12-.26.29-.48.51-.66.22-.18.487-.317.8-.41.314-.1.667-.15 1.06-.15.467 0 .87.05 1.21.15.34.1.62.21.84.33l-.45 1.23c-.193-.1-.41-.187-.65-.26a2.634 2.634 0 0 0-.85-.12c-.373 0-.643.053-.81.16-.16.1-.24.257-.24.47 0 .127.03.233.09.32a.96.96 0 0 0 .25.24c.114.067.24.13.38.19.147.053.307.11.48.17.36.133.674.267.94.4.267.127.487.277.66.45.18.173.314.377.4.61.087.233.13.517.13.85 0 .647-.226 1.15-.68 1.51-.453.353-1.136.53-2.05.53-.306 0-.583-.02-.83-.06a5.075 5.075 0 0 1-.66-.13 4.123 4.123 0 0 1-.49-.17 4.286 4.286 0 0 1-.34-.17l.44-1.24c.207.113.46.217.76.31.307.087.68.13 1.12.13Zm-90.375 12.33c-1.127 0-1.987-.313-2.58-.94-.587-.627-.88-1.517-.88-2.67 0-.573.09-1.083.27-1.53a3.25 3.25 0 0 1 .74-1.14c.313-.313.686-.55 1.12-.71a4.04 4.04 0 0 1 1.41-.24c.293 0 .56.023.8.07.24.04.45.09.63.15a2.765 2.765 0 0 1 .71.31l-.45 1.26a3.77 3.77 0 0 0-.75-.29 3.5 3.5 0 0 0-.96-.12c-.24 0-.477.04-.71.12-.227.08-.43.21-.61.39a1.9 1.9 0 0 0-.42.68c-.107.28-.16.62-.16 1.02 0 .32.033.62.1.9.073.273.186.51.34.71.16.2.366.36.62.48.253.113.56.17.92.17.226 0 .43-.013.61-.04.18-.027.34-.057.48-.09a2.9 2.9 0 0 0 .37-.13l.29-.13.43 1.25c-.22.133-.53.253-.93.36-.4.107-.864.16-1.39.16Zm5.354-7.15c1.04 0 1.837.187 2.39.56.553.367.83.94.83 1.72 0 .487-.113.883-.34 1.19-.22.3-.54.537-.96.71.14.173.287.373.44.6.154.22.303.453.45.7.154.24.3.493.44.76.14.26.27.517.39.77h-1.75a70.56 70.56 0 0 0-.39-.69 11.44 11.44 0 0 0-.4-.68c-.133-.22-.267-.427-.4-.62-.133-.2-.267-.38-.4-.54h-.77V118h-1.56v-6.83c.34-.067.69-.113 1.05-.14.367-.027.694-.04.98-.04Zm.09 1.33a4.19 4.19 0 0 0-.31.01l-.25.02v1.88h.44c.587 0 1.007-.073 1.26-.22.253-.147.38-.397.38-.75 0-.34-.13-.58-.39-.72-.253-.147-.63-.22-1.13-.22Zm4.55 5.68v-6.93h4.68v1.31H59.9v1.36h2.77v1.28H59.9v1.67h3.35V118h-4.91Zm10.704 0c-.073-.24-.156-.487-.25-.74l-.26-.76h-2.7c-.086.253-.176.507-.27.76-.086.253-.166.5-.24.74h-1.62c.26-.747.507-1.437.74-2.07.234-.633.46-1.23.68-1.79.227-.56.447-1.09.66-1.59.22-.507.447-1 .68-1.48h1.49a51.032 51.032 0 0 1 1.33 3.07c.227.56.457 1.157.69 1.79.234.633.48 1.323.74 2.07h-1.67Zm-1.87-5.36c-.033.1-.083.237-.15.41l-.23.6c-.086.227-.183.477-.29.75-.1.273-.203.56-.31.86h1.97c-.106-.3-.21-.587-.31-.86s-.196-.523-.29-.75a209.62 209.62 0 0 0-.39-1.01Zm8.757-1.57v1.33h-2.09v5.6h-1.56v-5.6h-2.09v-1.33h5.74Zm1.003 6.93v-6.93h4.68v1.31h-3.12v1.36h2.77v1.28h-2.77v1.67h3.35V118h-4.91Zm7.624-1.27c.074.007.157.013.25.02h.35c.78 0 1.357-.197 1.73-.59.38-.393.57-.937.57-1.63 0-.727-.18-1.277-.54-1.65-.36-.373-.93-.56-1.71-.56-.106 0-.216.003-.33.01-.113 0-.22.007-.32.02v4.38Zm4.51-2.2c0 .6-.093 1.123-.28 1.57a2.88 2.88 0 0 1-.8 1.11c-.34.293-.756.513-1.25.66a5.807 5.807 0 0 1-1.66.22c-.28 0-.606-.013-.98-.04a7.563 7.563 0 0 1-1.1-.14v-6.75c.36-.067.734-.11 1.12-.13.394-.027.73-.04 1.01-.04.594 0 1.13.067 1.61.2.487.133.904.343 1.25.63a2.8 2.8 0 0 1 .8 1.1c.187.447.28.983.28 1.61Zm6.016 3.56c-.38 0-.76-.013-1.14-.04a7.518 7.518 0 0 1-1.17-.16v-6.72c.32-.06.67-.103 1.05-.13.38-.033.733-.05 1.06-.05.44 0 .843.033 1.21.1.373.06.693.167.96.32.266.153.473.357.62.61.153.247.23.553.23.92 0 .553-.267.99-.8 1.31.44.167.74.393.9.68.16.287.24.61.24.97 0 .727-.267 1.273-.8 1.64-.527.367-1.314.55-2.36.55Zm-.79-3.11v1.79c.113.013.236.023.37.03.133.007.28.01.44.01.466 0 .843-.067 1.13-.2.286-.133.43-.38.43-.74 0-.32-.12-.547-.36-.68-.24-.14-.584-.21-1.03-.21h-.98Zm0-1.19h.76c.48 0 .823-.06 1.03-.18.206-.127.31-.327.31-.6 0-.28-.107-.477-.32-.59-.214-.113-.527-.17-.94-.17-.134 0-.277.003-.43.01-.154 0-.29.007-.41.02v1.51Zm7.397.13c.28-.473.546-.947.8-1.42.253-.473.486-.95.7-1.43h1.72c-.38.747-.774 1.47-1.18 2.17-.407.7-.837 1.403-1.29 2.11V118h-1.56v-2.63a59.434 59.434 0 0 1-1.3-2.12c-.407-.707-.8-1.433-1.18-2.18h1.81c.213.48.443.957.69 1.43.246.473.51.947.79 1.42Zm8.033 2.81c.074.007.157.013.25.02h.35c.78 0 1.357-.197 1.73-.59.38-.393.57-.937.57-1.63 0-.727-.18-1.277-.54-1.65-.36-.373-.93-.56-1.71-.56-.106 0-.216.003-.33.01-.113 0-.22.007-.32.02v4.38Zm4.51-2.2c0 .6-.093 1.123-.28 1.57a2.869 2.869 0 0 1-.8 1.11c-.34.293-.756.513-1.25.66a5.802 5.802 0 0 1-1.66.22c-.28 0-.606-.013-.98-.04a7.57 7.57 0 0 1-1.1-.14v-6.75c.36-.067.734-.11 1.12-.13.394-.027.73-.04 1.01-.04.594 0 1.13.067 1.61.2.487.133.904.343 1.25.63.347.287.614.653.8 1.1.187.447.28.983.28 1.61Zm4.859 1.14c0 .34-.04.66-.12.96-.073.3-.207.563-.4.79-.187.22-.443.397-.77.53-.32.127-.727.19-1.22.19-.453 0-.843-.053-1.17-.16a3.36 3.36 0 0 1-.81-.39l.52-1.21c.193.113.4.213.62.3.22.087.46.13.72.13.38 0 .653-.093.82-.28.167-.187.25-.5.25-.94v-4.52h1.56v4.6Zm3.393 1.14c.22 0 .4-.017.54-.05.147-.04.263-.09.35-.15a.528.528 0 0 0 .18-.23.81.81 0 0 0 .05-.29c0-.227-.107-.413-.32-.56-.213-.153-.58-.317-1.1-.49a9.602 9.602 0 0 1-.68-.27 2.738 2.738 0 0 1-.61-.39c-.18-.16-.327-.35-.44-.57-.113-.227-.17-.5-.17-.82 0-.32.06-.607.18-.86.12-.26.29-.48.51-.66.22-.18.487-.317.8-.41.313-.1.667-.15 1.06-.15.467 0 .87.05 1.21.15.34.1.62.21.84.33l-.45 1.23c-.193-.1-.41-.187-.65-.26a2.638 2.638 0 0 0-.85-.12c-.373 0-.643.053-.81.16-.16.1-.24.257-.24.47 0 .127.03.233.09.32s.143.167.25.24c.113.067.24.13.38.19.147.053.307.11.48.17.36.133.673.267.94.4.267.127.487.277.66.45.18.173.313.377.4.61.087.233.13.517.13.85 0 .647-.227 1.15-.68 1.51-.453.353-1.137.53-2.05.53-.307 0-.583-.02-.83-.06a5.009 5.009 0 0 1-.66-.13 4.061 4.061 0 0 1-.49-.17 4.12 4.12 0 0 1-.34-.17l.44-1.24c.207.113.46.217.76.31.307.087.68.13 1.12.13Z" fill="#B3B3B3"/><defs><clipPath id="a"><path fill="#fff" transform="translate(0 68)" d="M0 0h170v17.09H0z"/></clipPath></defs></svg>