<?xml version="1.0" encoding="utf-8"?><svg viewBox="0 0 26 26" xmlns="http://www.w3.org/2000/svg" xmlns:xlink="http://www.w3.org/1999/xlink"><style>:root>svg{display:none}:root>svg:target{display:block}</style><svg viewBox="-1 -1 26 26" id="svg-burger" xmlns="http://www.w3.org/2000/svg"><path d="M21 7.75H3c-.41 0-.75-.34-.75-.75s.34-.75.75-.75h18c.41 0 .75.34.75.75s-.34.75-.75.75zM21 12.75H3c-.41 0-.75-.34-.75-.75s.34-.75.75-.75h18c.41 0 .75.34.75.75s-.34.75-.75.75zM21 17.75H3c-.41 0-.75-.34-.75-.75s.34-.75.75-.75h18c.41 0 .75.34.75.75s-.34.75-.75.75z"/></svg><svg viewBox="-1 -1 26 26" id="svg-cart" xmlns="http://www.w3.org/2000/svg"><path d="M16.49 22.75H7.5c-1.72 0-3.01-.46-3.81-1.37-.8-.91-1.11-2.23-.9-3.94l.9-7.5c.26-2.21.82-4.19 4.72-4.19h7.2c3.89 0 4.45 1.98 4.72 4.19l.9 7.5c.2 1.71-.1 3.04-.9 3.94-.83.91-2.11 1.37-3.84 1.37zM8.4 7.25c-2.88 0-3.02 1.14-3.23 2.86l-.9 7.5c-.15 1.27.03 2.2.54 2.77.51.57 1.41.86 2.69.86h8.99c1.28 0 2.18-.29 2.69-.86.51-.57.69-1.5.54-2.77l-.9-7.5c-.21-1.73-.34-2.86-3.23-2.86H8.4z"/><path d="M16 8.75c-.41 0-.75-.34-.75-.75V4.5c0-1.08-.67-1.75-1.75-1.75h-3c-1.08 0-1.75.67-1.75 1.75V8c0 .41-.34.75-.75.75s-.75-.34-.75-.75V4.5c0-1.91 1.34-3.25 3.25-3.25h3c1.91 0 3.25 1.34 3.25 3.25V8c0 .41-.34.75-.75.75zM20.41 17.78H8c-.41 0-.75-.34-.75-.75s.34-.75.75-.75h12.41c.41 0 .75.34.75.75s-.34.75-.75.75z"/></svg><svg viewBox="-1 -1 26 26" id="svg-chart" xmlns="http://www.w3.org/2000/svg"><path d="M13 22.75H9c-5.43 0-7.75-2.32-7.75-7.75V9c0-5.43 2.32-7.75 7.75-7.75h6c5.43 0 7.75 2.32 7.75 7.75v4c0 .41-.34.75-.75.75s-.75-.34-.75-.75V9c0-4.61-1.64-6.25-6.25-6.25H9C4.39 2.75 2.75 4.39 2.75 9v6c0 4.61 1.64 6.25 6.25 6.25h4c.41 0 .75.34.75.75s-.34.75-.75.75z"/><path d="M7.33 15.24c-.16 0-.32-.05-.46-.16a.749.749 0 01-.14-1.05l2.38-3.09c.29-.37.7-.61 1.17-.67.47-.06.93.07 1.3.36l1.83 1.44c.07.06.14.05.19.05.04 0 .11-.02.17-.1l2.31-2.98c.25-.33.72-.39 1.05-.13.33.25.39.72.13 1.05l-2.31 2.98c-.29.37-.7.61-1.17.66-.46.06-.93-.07-1.29-.36l-1.83-1.44a.22.22 0 00-.19-.05c-.04 0-.11.02-.17.1l-2.38 3.09c-.14.2-.36.3-.59.3zM20.26 22.75c-.35 0-.8-.11-1.33-.43l-.25-.15a.526.526 0 00-.35 0l-.25.15c-1.15.69-1.88.4-2.2.16-.33-.24-.84-.84-.54-2.16l.05-.21c.02-.08-.04-.27-.09-.33l-.35-.35c-.59-.6-.82-1.3-.62-1.93.2-.62.79-1.06 1.62-1.2l.38-.06c.07-.02.21-.12.25-.19l.28-.57c.39-.79.99-1.24 1.65-1.24.66 0 1.26.45 1.65 1.24l.28.56c.04.07.18.17.25.19l.38.06c.83.14 1.42.58 1.62 1.2.2.62-.02 1.32-.62 1.93l-.35.35c-.05.06-.11.25-.09.33l.05.21c.3 1.32-.21 1.92-.54 2.16-.18.14-.47.28-.88.28zm-1.77-7c-.01.01-.15.11-.29.4l-.28.57c-.24.49-.81.91-1.34 1l-.38.06c-.32.05-.43.16-.44.18 0 .02.03.18.26.41l.35.35c.41.42.62 1.14.49 1.71l-.05.21c-.09.39-.05.56-.03.62.03-.02.2-.04.53-.24l.25-.15c.55-.33 1.34-.33 1.89 0l.25.15c.41.25.58.22.59.22-.04 0 .01-.2-.08-.6l-.05-.21c-.13-.58.08-1.29.49-1.71l.35-.35c.23-.23.26-.39.26-.42-.01-.02-.12-.12-.44-.18l-.38-.06c-.54-.09-1.1-.51-1.34-1l-.28-.56c-.16-.3-.3-.39-.33-.4z"/></svg><svg fill="none" viewBox="-1 -1 26 26" id="svg-close" xmlns="http://www.w3.org/2000/svg"><path d="M5.325 4.229a.772.772 0 00-1.098 0 .786.786 0 000 1.106l6.675 6.725-6.555 6.605a.786.786 0 000 1.106.772.772 0 001.098 0L12 13.166l6.555 6.605a.772.772 0 001.098 0 .786.786 0 000-1.106l-6.555-6.605 6.675-6.725a.786.786 0 000-1.106.772.772 0 00-1.098 0L12 10.955 5.325 4.229z" fill="#4D4D4D"/></svg><svg viewBox="-1 -1 16 16" id="svg-down" xmlns="http://www.w3.org/2000/svg"><path d="M7 9.8a1.59 1.59 0 01-1.125-.467L2.07 5.53a.44.44 0 010-.618.44.44 0 01.619 0l3.803 3.803c.28.28.735.28 1.015 0l3.803-3.803a.44.44 0 01.619 0c.169.169.169.449 0 .618L8.126 9.333A1.59 1.59 0 017 9.8z"/></svg><svg viewBox="-1 -1 26 26" id="svg-info" xmlns="http://www.w3.org/2000/svg"><path d="M12 22.75C6.07 22.75 1.25 17.93 1.25 12S6.07 1.25 12 1.25 22.75 6.07 22.75 12 17.93 22.75 12 22.75zm0-20C6.9 2.75 2.75 6.9 2.75 12S6.9 21.25 12 21.25s9.25-4.15 9.25-9.25S17.1 2.75 12 2.75z"/><path d="M12 13.75c-.41 0-.75-.34-.75-.75V8c0-.41.34-.75.75-.75s.75.34.75.75v5c0 .41-.34.75-.75.75zM12 17c-.13 0-.26-.03-.38-.08s-.23-.12-.33-.21c-.09-.1-.16-.2-.21-.33A.995.995 0 0111 16c0-.13.03-.26.08-.38s.12-.23.21-.33c.1-.09.21-.16.33-.21a1 1 0 01.76 0c.12.05.23.12.33.21.09.1.16.21.21.33.05.12.08.25.08.38s-.03.26-.08.38c-.05.13-.12.23-.21.33-.1.09-.21.16-.33.21-.12.05-.25.08-.38.08z"/></svg><svg viewBox="-1 -1 26 26" id="svg-message" xmlns="http://www.w3.org/2000/svg"><path d="M12 22.81c-.69 0-1.34-.35-1.8-.96l-1.5-2a.472.472 0 00-.2-.1H8c-4.17 0-6.75-1.13-6.75-6.75V8c0-4.42 2.33-6.75 6.75-6.75h8c4.42 0 6.75 2.33 6.75 6.75v5c0 4.42-2.33 6.75-6.75 6.75h-.5c-.08 0-.15.04-.2.1l-1.5 2c-.46.61-1.11.96-1.8.96zM8 2.75C4.42 2.75 2.75 4.42 2.75 8v5c0 4.52 1.55 5.25 5.25 5.25h.5c.51 0 1.09.29 1.4.7l1.5 2c.35.46.85.46 1.2 0l1.5-2c.33-.44.85-.7 1.4-.7h.5c3.58 0 5.25-1.67 5.25-5.25V8c0-3.58-1.67-5.25-5.25-5.25H8z"/><path d="M12 12c-.56 0-1-.45-1-1s.45-1 1-1 1 .45 1 1-.44 1-1 1zM16 12c-.56 0-1-.45-1-1s.45-1 1-1 1 .45 1 1-.44 1-1 1zM8 12c-.56 0-1-.45-1-1s.45-1 1-1 1 .45 1 1-.44 1-1 1z"/></svg><svg viewBox="-1 -1 26 26" id="svg-microphone" xmlns="http://www.w3.org/2000/svg"><path d="M12 16.25c-2.62 0-4.75-2.13-4.75-4.75V6c0-2.62 2.13-4.75 4.75-4.75S16.75 3.38 16.75 6v5.5c0 2.62-2.13 4.75-4.75 4.75zm0-13.5c-1.79 0-3.25 1.46-3.25 3.25v5.5c0 1.79 1.46 3.25 3.25 3.25s3.25-1.46 3.25-3.25V6c0-1.79-1.46-3.25-3.25-3.25z"/><path d="M12 19.75c-4.63 0-8.4-3.77-8.4-8.4v-1.7c0-.41.34-.75.75-.75s.75.34.75.75v1.7c0 3.8 3.1 6.9 6.9 6.9 3.8 0 6.9-3.1 6.9-6.9v-1.7c0-.41.34-.75.75-.75s.75.34.75.75v1.7c0 4.63-3.77 8.4-8.4 8.4zM13.39 7.18c-.08 0-.17-.01-.26-.04-.73-.27-1.53-.27-2.26 0a.75.75 0 11-.51-1.41 4.89 4.89 0 013.29 0c.39.14.59.57.45.96-.12.3-.41.49-.71.49z"/><path d="M12.8 9.3c-.07 0-.13-.01-.2-.03-.4-.11-.81-.11-1.21 0a.75.75 0 01-.92-.53c-.11-.39.13-.8.53-.91.65-.18 1.35-.18 2 0 .4.11.64.52.53.92-.09.33-.4.55-.73.55zM12 22.75c-.41 0-.75-.34-.75-.75v-3c0-.41.34-.75.75-.75s.75.34.75.75v3c0 .41-.34.75-.75.75z"/></svg><svg viewBox="-1 -1 22 22" id="svg-moon" xmlns="http://www.w3.org/2000/svg"><path d="M10.383 18.958c-.141 0-.283 0-.425-.008-4.666-.208-8.566-3.967-8.891-8.55-.284-3.933 1.991-7.608 5.658-9.15 1.042-.433 1.592-.1 1.825.142.233.233.558.775.125 1.766a6.83 6.83 0 00-.567 2.792c.017 3.692 3.084 6.825 6.825 6.975a7.203 7.203 0 001.592-.108c1.1-.2 1.558.241 1.733.525.175.283.375.891-.291 1.791-1.767 2.417-4.575 3.825-7.584 3.825zm-8.075-8.65c.284 3.967 3.667 7.217 7.7 7.392a8.11 8.11 0 006.942-3.3c.125-.175.183-.3.208-.367a1.312 1.312 0 00-.416.025 8.724 8.724 0 01-1.867.125c-4.4-.175-8-3.866-8.025-8.216 0-1.15.225-2.259.683-3.3.084-.184.1-.309.109-.375-.075 0-.209.016-.425.108-3.175 1.333-5.142 4.517-4.909 7.908z"/></svg><svg viewBox="-1 -1 26 26" id="svg-music" xmlns="http://www.w3.org/2000/svg"><path d="M6.28 22.75a3.88 3.88 0 01-3.87-3.87 3.88 3.88 0 013.87-3.87 3.88 3.88 0 013.87 3.87 3.88 3.88 0 01-3.87 3.87zm0-6.24c-1.31 0-2.37 1.06-2.37 2.37s1.06 2.37 2.37 2.37 2.37-1.06 2.37-2.37-1.06-2.37-2.37-2.37z"/><path d="M9.4 19.63c-.41 0-.75-.34-.75-.75V6.3c0-1.58.95-2.82 2.47-3.23l6.24-1.7c1.27-.35 2.34-.22 3.09.36.76.58 1.14 1.55 1.14 2.88v12.2c0 .41-.34.75-.75.75s-.75-.34-.75-.75V4.6c0-.58-.1-1.34-.55-1.68-.49-.38-1.33-.23-1.79-.1l-6.24 1.7c-.87.24-1.36.89-1.36 1.79v12.58c0 .4-.34.74-.75.74z"/><path d="M17.72 20.67a3.88 3.88 0 01-3.87-3.87 3.88 3.88 0 013.87-3.87 3.88 3.88 0 013.87 3.87 3.88 3.88 0 01-3.87 3.87zm0-6.24c-1.31 0-2.37 1.06-2.37 2.37s1.06 2.37 2.37 2.37 2.37-1.06 2.37-2.37-1.06-2.37-2.37-2.37zM9.4 10.27a.755.755 0 01-.2-1.48l11.44-3.12a.75.75 0 11.39 1.45L9.6 10.24c-.07.02-.14.03-.2.03z"/></svg><svg viewBox="-1 -1 26 26" id="svg-news" xmlns="http://www.w3.org/2000/svg"><path d="M16 22.75H8c-3.65 0-5.75-2.1-5.75-5.75V7c0-3.65 2.1-5.75 5.75-5.75h8c3.65 0 5.75 2.1 5.75 5.75v10c0 3.65-2.1 5.75-5.75 5.75zm-8-20C5.14 2.75 3.75 4.14 3.75 7v10c0 2.86 1.39 4.25 4.25 4.25h8c2.86 0 4.25-1.39 4.25-4.25V7c0-2.86-1.39-4.25-4.25-4.25H8z"/><path d="M18.5 9.25h-2c-1.52 0-2.75-1.23-2.75-2.75v-2c0-.41.34-.75.75-.75s.75.34.75.75v2c0 .69.56 1.25 1.25 1.25h2c.41 0 .75.34.75.75s-.34.75-.75.75zM12 13.75H8c-.41 0-.75-.34-.75-.75s.34-.75.75-.75h4c.41 0 .75.34.75.75s-.34.75-.75.75zM16 17.75H8c-.41 0-.75-.34-.75-.75s.34-.75.75-.75h8c.41 0 .75.34.75.75s-.34.75-.75.75z"/></svg><svg viewBox="-1 -1 20 20" id="svg-next" xmlns="http://www.w3.org/2000/svg"><path d="M6.683 15.502a.556.556 0 01-.398-.165.566.566 0 010-.794l4.89-4.89a.923.923 0 000-1.306l-4.89-4.89a.566.566 0 010-.795.566.566 0 01.795 0l4.89 4.89c.383.383.6.9.6 1.448 0 .547-.21 1.065-.6 1.447l-4.89 4.89a.59.59 0 01-.397.165z"/></svg><svg viewBox="-1 -1 26 26" id="svg-notification" xmlns="http://www.w3.org/2000/svg"><path d="M12.02 20.53c-2.33 0-4.66-.37-6.87-1.11-.84-.29-1.48-.88-1.76-1.65-.29-.77-.19-1.62.27-2.38l1.15-1.91c.24-.4.46-1.2.46-1.67V8.92c0-3.72 3.03-6.75 6.75-6.75s6.75 3.03 6.75 6.75v2.89c0 .46.22 1.27.46 1.68l1.14 1.9c.43.72.51 1.59.22 2.38a2.72 2.72 0 01-1.71 1.65c-2.2.74-4.53 1.11-6.86 1.11zm0-16.86c-2.89 0-5.25 2.35-5.25 5.25v2.89c0 .73-.3 1.81-.67 2.44l-1.15 1.91c-.22.37-.28.76-.15 1.09.12.34.42.6.83.74a20 20 0 0012.79 0c.36-.12.64-.39.77-.75s.1-.75-.1-1.08l-1.15-1.91c-.38-.65-.67-1.72-.67-2.45V8.92c0-2.9-2.35-5.25-5.25-5.25z"/><path d="M13.88 3.94c-.07 0-.14-.01-.21-.03-.29-.08-.57-.14-.84-.18-.85-.11-1.67-.05-2.44.18-.28.09-.58 0-.77-.21a.742.742 0 01-.14-.78 2.724 2.724 0 012.55-1.74c1.14 0 2.14.68 2.55 1.74.1.27.05.57-.14.78-.15.16-.36.24-.56.24zM12.02 22.81c-.99 0-1.95-.4-2.65-1.1-.7-.7-1.1-1.66-1.1-2.65h1.5c0 .59.24 1.17.66 1.59.42.42 1 .66 1.59.66 1.24 0 2.25-1.01 2.25-2.25h1.5c0 2.07-1.68 3.75-3.75 3.75z"/></svg><svg viewBox="-1 -1 26 26" id="svg-people" xmlns="http://www.w3.org/2000/svg"><path d="M18 7.91h-.13c-1.89-.06-3.3-1.52-3.3-3.32 0-1.84 1.5-3.33 3.33-3.33s3.33 1.5 3.33 3.33a3.327 3.327 0 01-3.22 3.33c0-.01 0-.01-.01-.01zm-.1-5.16c-1.01 0-1.83.82-1.83 1.83 0 .99.77 1.79 1.76 1.83.01-.01.09-.01.18 0a1.832 1.832 0 00-.11-3.66zM18.01 15.28c-.39 0-.78-.03-1.17-.1a.75.75 0 01-.61-.87.75.75 0 01.87-.61c1.23.21 2.53-.02 3.4-.6.47-.31.72-.7.72-1.09 0-.39-.26-.77-.72-1.08-.87-.58-2.19-.81-3.43-.59-.41.08-.8-.2-.87-.61-.07-.41.2-.8.61-.87 1.63-.29 3.32.02 4.52.82.88.59 1.39 1.43 1.39 2.33 0 .89-.5 1.74-1.39 2.34-.91.6-2.09.93-3.32.93zM5.97 7.91h-.02a3.324 3.324 0 01-3.22-3.32c0-1.84 1.5-3.34 3.33-3.34s3.33 1.5 3.33 3.33c0 1.81-1.41 3.27-3.21 3.33l-.21-.75.07.75h-.07zm.1-1.5c.06 0 .11 0 .17.01.89-.04 1.67-.84 1.67-1.83a1.83 1.83 0 10-1.93 1.83c.01-.01.05-.01.09-.01zM5.96 15.28c-1.23 0-2.41-.33-3.32-.93-.88-.59-1.39-1.44-1.39-2.34 0-.89.51-1.74 1.39-2.33 1.2-.8 2.89-1.11 4.52-.82.41.07.68.46.61.87-.07.41-.46.69-.87.61-1.24-.22-2.55.01-3.43.59-.47.31-.72.69-.72 1.08 0 .39.26.78.72 1.09.87.58 2.17.81 3.4.6.41-.07.8.21.87.61.07.41-.2.8-.61.87-.39.07-.78.1-1.17.1zM12 15.38h-.13c-1.89-.06-3.3-1.52-3.3-3.32 0-1.84 1.5-3.33 3.33-3.33s3.33 1.5 3.33 3.33a3.327 3.327 0 01-3.22 3.33c0-.01 0-.01-.01-.01zm-.1-5.16c-1.01 0-1.83.82-1.83 1.83 0 .99.77 1.79 1.76 1.83.01-.01.09-.01.18 0 .97-.05 1.72-.85 1.73-1.83 0-1-.82-1.83-1.84-1.83zM12 22.76c-1.2 0-2.4-.31-3.33-.94-.88-.59-1.39-1.43-1.39-2.33 0-.89.5-1.75 1.39-2.34 1.87-1.24 4.8-1.24 6.66 0 .88.59 1.39 1.43 1.39 2.33 0 .89-.5 1.75-1.39 2.34-.93.62-2.13.94-3.33.94zm-2.5-4.35c-.47.31-.72.7-.72 1.09 0 .39.26.77.72 1.08 1.35.91 3.64.91 4.99 0 .47-.31.72-.7.72-1.09 0-.39-.26-.77-.72-1.08-1.34-.91-3.63-.9-4.99 0z"/></svg><svg viewBox="-1 -1 20 20" id="svg-prev" xmlns="http://www.w3.org/2000/svg"><path d="M11.25 15.502a.556.556 0 01-.398-.165l-4.89-4.89a2.055 2.055 0 010-2.895l4.89-4.89a.566.566 0 01.796 0 .566.566 0 010 .795l-4.89 4.89a.923.923 0 000 1.305l4.89 4.89a.566.566 0 010 .796.59.59 0 01-.398.165z"/></svg><svg viewBox="-1 -1 26 26" id="svg-routing" xmlns="http://www.w3.org/2000/svg"><path d="M5.47 10.75c-.71 0-1.43-.26-1.98-.79C1.65 8.21.91 6.3 1.34 4.43c.51-2.2 2.44-3.18 4.13-3.18s3.63.99 4.13 3.18c.43 1.87-.32 3.78-2.15 5.53-.55.53-1.26.79-1.98.79zM2.8 4.77c-.38 1.67.73 3.15 1.73 4.1.53.51 1.36.5 1.89 0 1-.95 2.11-2.43 1.72-4.11-.34-1.48-1.65-2.01-2.66-2.01-1.02 0-2.33.53-2.68 2.02z"/><path d="M5.51 6.2c-.55 0-1-.45-1-1s.44-1 1-1h.01c.55 0 1 .45 1 1s-.45 1-1.01 1zM18.49 22.75c-.71 0-1.43-.26-1.99-.79-1.85-1.75-2.6-3.66-2.16-5.54.51-2.19 2.45-3.18 4.15-3.18 1.7 0 3.64.99 4.15 3.18.43 1.87-.32 3.79-2.17 5.53-.55.54-1.26.8-1.98.8zm0-8c-1.02 0-2.34.53-2.69 2.02-.39 1.67.73 3.16 1.73 4.11.53.51 1.37.51 1.91 0 1-.95 2.12-2.43 1.73-4.1-.33-1.5-1.65-2.03-2.68-2.03z"/><path d="M18.53 18.2c-.55 0-1-.45-1-1s.44-1 1-1h.01c.55 0 1 .45 1 1s-.46 1-1.01 1zM12 19.75H9.32c-1.16 0-2.17-.7-2.57-1.78-.41-1.08-.11-2.27.76-3.04l7.99-6.99c.48-.42.49-.99.35-1.38-.15-.39-.53-.81-1.17-.81H12c-.41 0-.75-.34-.75-.75s.34-.75.75-.75h2.68c1.16 0 2.17.7 2.57 1.78.41 1.08.11 2.27-.76 3.04L8.5 16.06c-.48.42-.49.99-.35 1.38.15.39.53.81 1.17.81H12c.41 0 .75.34.75.75s-.34.75-.75.75z"/><path d="M12 19.75H9.32c-1.16 0-2.17-.7-2.57-1.78-.41-1.08-.11-2.27.76-3.04l7.99-6.99c.48-.42.49-.99.35-1.38-.15-.39-.53-.81-1.17-.81H12c-.41 0-.75-.34-.75-.75s.34-.75.75-.75h2.68c1.16 0 2.17.7 2.57 1.78.41 1.08.11 2.27-.76 3.04L8.5 16.06c-.48.42-.49.99-.35 1.38.15.39.53.81 1.17.81H12c.41 0 .75.34.75.75s-.34.75-.75.75z"/></svg><svg viewBox="-1 -1 22 22" id="svg-search" xmlns="http://www.w3.org/2000/svg"><path d="M9.583 18.125c-4.708 0-8.541-3.833-8.541-8.542 0-4.708 3.833-8.541 8.541-8.541s8.542 3.833 8.542 8.541c0 4.709-3.834 8.542-8.542 8.542zm0-15.833c-4.025 0-7.292 3.275-7.292 7.291 0 4.017 3.267 7.292 7.292 7.292s7.292-3.275 7.292-7.292c0-4.016-3.267-7.291-7.292-7.291zM18.334 18.958a.618.618 0 01-.442-.183l-1.667-1.667a.629.629 0 010-.883.629.629 0 01.883 0l1.667 1.667a.629.629 0 010 .883.618.618 0 01-.441.183z"/></svg><svg viewBox="-1 -1 26 26" id="svg-stream" xmlns="http://www.w3.org/2000/svg"><path d="M15 22.75H9c-5.43 0-7.75-2.32-7.75-7.75V9c0-5.43 2.32-7.75 7.75-7.75h6c5.43 0 7.75 2.32 7.75 7.75v6c0 5.43-2.32 7.75-7.75 7.75zm-6-20C4.39 2.75 2.75 4.39 2.75 9v6c0 4.61 1.64 6.25 6.25 6.25h6c4.61 0 6.25-1.64 6.25-6.25V9c0-4.61-1.64-6.25-6.25-6.25H9z"/><path d="M21.48 7.86H2.52a.749.749 0 110-1.5h18.96a.749.749 0 110 1.5z"/><path d="M8.52 7.72c-.41 0-.75-.34-.75-.75V2.11c0-.41.34-.75.75-.75s.75.34.75.75v4.86c0 .41-.34.75-.75.75zM15.48 7.27c-.41 0-.75-.34-.75-.75V2.11c0-.41.34-.75.75-.75s.75.34.75.75v4.41c0 .42-.33.75-.75.75zM11.09 18.12c-.36 0-.7-.09-1.01-.26-.68-.4-1.08-1.2-1.08-2.21v-2.4c0-1.01.4-1.82 1.09-2.22.69-.4 1.59-.34 2.46.17l2.08 1.2c.87.5 1.38 1.25 1.38 2.05 0 .8-.51 1.55-1.39 2.05l-2.08 1.2c-.48.28-.98.42-1.45.42zm.01-5.85c-.1 0-.19.02-.26.06-.21.12-.34.46-.34.92v2.4c0 .45.13.79.34.92.21.12.57.06.96-.17l2.08-1.2c.39-.23.63-.51.63-.75s-.23-.52-.63-.75l-2.08-1.2c-.26-.15-.51-.23-.7-.23z"/></svg><svg viewBox="-1 -1 22 22" id="svg-sun" xmlns="http://www.w3.org/2000/svg"><path d="M10 16.042A6.046 6.046 0 013.958 10 6.046 6.046 0 0110 3.958 6.046 6.046 0 0116.042 10 6.046 6.046 0 0110 16.042zm0-10.834A4.798 4.798 0 005.208 10 4.798 4.798 0 0010 14.792 4.798 4.798 0 0014.792 10 4.798 4.798 0 0010 5.208zM10 19.133c-.458 0-.833-.341-.833-.8v-.066c0-.459.375-.834.833-.834.459 0 .834.375.834.834 0 .458-.375.866-.834.866zm5.95-2.35a.853.853 0 01-.591-.241l-.109-.109a.83.83 0 111.175-1.175l.108.109a.83.83 0 01-.583 1.416zm-11.9 0a.83.83 0 01-.592-1.417l.109-.108a.83.83 0 111.175 1.175l-.109.109a.834.834 0 01-.583.241zm14.284-5.95h-.067a.836.836 0 01-.834-.833c0-.458.375-.833.834-.833.458 0 .867.375.867.833 0 .458-.342.833-.8.833zm-16.6 0h-.067A.836.836 0 01.833 10c0-.458.375-.833.834-.833.458 0 .867.375.867.833 0 .458-.342.833-.8.833zm14.108-5.841a.83.83 0 01-.592-1.417l.108-.108a.83.83 0 111.175 1.175l-.108.108a.82.82 0 01-.583.242zm-11.684 0a.854.854 0 01-.591-.242l-.109-.117a.83.83 0 111.175-1.175l.109.109a.83.83 0 010 1.175.809.809 0 01-.583.25zM10 2.533c-.458 0-.833-.341-.833-.8v-.066c0-.459.375-.834.833-.834.459 0 .834.375.834.834 0 .458-.375.866-.834.866z"/></svg><svg viewBox="-1 -1 26 26" id="svg-top" xmlns="http://www.w3.org/2000/svg"><path d="M12 16.75c-.4 0-.8-.03-1.18-.1-2.12-.31-4.05-1.53-5.27-3.34A7.767 7.767 0 014.25 9c0-4.27 3.48-7.75 7.75-7.75S19.75 4.73 19.75 9c0 1.54-.45 3.03-1.3 4.31a7.8 7.8 0 01-5.3 3.35c-.35.06-.75.09-1.15.09zm0-14c-3.45 0-6.25 2.8-6.25 6.25 0 1.25.36 2.45 1.04 3.47a6.254 6.254 0 004.26 2.69c.64.11 1.27.11 1.86 0 1.75-.25 3.3-1.24 4.29-2.7a6.232 6.232 0 001.04-3.47c.01-3.44-2.79-6.24-6.24-6.24z"/><path d="M6.47 22.59c-.14 0-.27-.02-.41-.05-.65-.15-1.15-.65-1.3-1.3l-.35-1.47a.261.261 0 00-.19-.19l-1.65-.39a1.74 1.74 0 01-1.28-1.22c-.17-.61 0-1.27.45-1.72l3.9-3.9c.16-.16.38-.24.6-.22.22.02.42.14.55.33.99 1.46 2.54 2.45 4.27 2.7.64.11 1.27.11 1.86 0 1.75-.25 3.3-1.24 4.29-2.7.12-.19.33-.31.55-.33.22-.02.44.06.6.22l3.9 3.9c.45.45.62 1.11.45 1.72a1.74 1.74 0 01-1.28 1.22l-1.65.39c-.09.02-.16.09-.19.19l-.35 1.47c-.15.65-.65 1.15-1.3 1.3-.65.16-1.32-.07-1.74-.58L12 17.13l-4.2 4.84c-.34.4-.82.62-1.33.62zm-.38-8.56L2.8 17.32c-.09.09-.08.19-.06.25.01.05.06.15.18.17l1.65.39c.65.15 1.15.65 1.3 1.3l.35 1.47c.03.13.13.17.19.19.06.01.16.02.25-.08l3.83-4.41a7.768 7.768 0 01-4.4-2.57zm7.42 2.56l3.83 4.4c.09.11.2.11.26.09.06-.01.15-.06.19-.19l.35-1.47c.15-.65.65-1.15 1.3-1.3l1.65-.39c.12-.03.17-.12.18-.17.02-.05.03-.16-.06-.25l-3.29-3.29a7.793 7.793 0 01-4.41 2.57z"/><path d="M13.89 12.89c-.26 0-.57-.07-.94-.29l-.95-.57-.95.56c-.87.52-1.44.22-1.65.07-.21-.15-.66-.6-.43-1.59l.24-1.03-.8-.74c-.44-.44-.6-.97-.45-1.45.15-.48.59-.82 1.21-.92l1.07-.18.51-1.12c.29-.57.74-.89 1.25-.89s.97.33 1.25.9l.59 1.18.99.12c.61.1 1.05.44 1.21.92.15.48-.01 1.01-.45 1.45l-.83.83.26.93c.23.99-.22 1.44-.43 1.59-.11.09-.35.23-.7.23zm-4.28-4.5l.69.69c.32.32.48.86.38 1.3l-.19.8.8-.47c.43-.25 1.01-.25 1.43 0l.8.47-.18-.8c-.1-.45.05-.98.37-1.3l.69-.69-.87-.15c-.42-.07-.84-.38-1.03-.76L12 6.5l-.5 1c-.18.37-.6.69-1.02.76l-.87.13z"/></svg><svg viewBox="-1 -1 26 26" id="svg-trend" xmlns="http://www.w3.org/2000/svg"><path d="M15 22.75H9c-5.43 0-7.75-2.32-7.75-7.75V9c0-5.43 2.32-7.75 7.75-7.75h6c5.43 0 7.75 2.32 7.75 7.75v6c0 5.43-2.32 7.75-7.75 7.75zm-6-20C4.39 2.75 2.75 4.39 2.75 9v6c0 4.61 1.64 6.25 6.25 6.25h6c4.61 0 6.25-1.64 6.25-6.25V9c0-4.61-1.64-6.25-6.25-6.25H9z"/><path d="M7.33 15.24c-.16 0-.32-.05-.46-.16a.749.749 0 01-.14-1.05l2.38-3.09c.29-.37.7-.61 1.17-.67.46-.06.93.07 1.3.36l1.83 1.44c.07.06.14.06.19.05.04 0 .11-.02.17-.1l2.31-2.98a.74.74 0 011.05-.13c.33.25.39.72.13 1.05l-2.31 2.98c-.29.37-.7.61-1.17.66-.47.06-.93-.07-1.3-.36l-1.83-1.44a.22.22 0 00-.19-.05c-.04 0-.11.02-.17.1l-2.38 3.09c-.13.2-.35.3-.58.3z"/></svg><svg viewBox="-1 -1 26 26" id="svg-video" xmlns="http://www.w3.org/2000/svg"><path d="M15 22.75H9c-5.43 0-7.75-2.32-7.75-7.75V9c0-5.43 2.32-7.75 7.75-7.75h6c5.43 0 7.75 2.32 7.75 7.75v6c0 5.43-2.32 7.75-7.75 7.75zm-6-20C4.39 2.75 2.75 4.39 2.75 9v6c0 4.61 1.64 6.25 6.25 6.25h6c4.61 0 6.25-1.64 6.25-6.25V9c0-4.61-1.64-6.25-6.25-6.25H9z"/><path d="M10.76 16.37c-.42 0-.81-.1-1.16-.3-.8-.46-1.26-1.4-1.26-2.59v-2.96c0-1.18.46-2.13 1.26-2.59.8-.46 1.84-.39 2.87.21l2.57 1.48c1.02.59 1.61 1.46 1.61 2.38 0 .92-.59 1.79-1.61 2.38l-2.57 1.48c-.58.34-1.17.51-1.71.51zm.01-7.24c-.16 0-.3.03-.41.1-.32.19-.51.66-.51 1.29v2.96c0 .63.18 1.1.51 1.29.32.19.82.11 1.37-.21l2.57-1.48c.55-.32.86-.71.86-1.08 0-.37-.31-.77-.86-1.08l-2.57-1.48c-.36-.21-.69-.31-.96-.31z"/></svg></svg>